Maname-Italic.ufo
<glyph name="exclam" format="1">
  <advance width="247"/>
  <unicode hex="0021"/>
  <outline>
    <contour>
      <point x="102" y="160" type="curve"/>
      <point x="158" y="160" type="line"/>
      <point x="202" y="315"/>
      <point x="237" y="404"/>
      <point x="258" y="530" type="curve" smooth="yes"/>
      <point x="261" y="548"/>
      <point x="262" y="562"/>
      <point x="262" y="574" type="curve" smooth="yes"/>
      <point x="262" y="592"/>
      <point x="260" y="601"/>
      <point x="260" y="601" type="curve" smooth="yes"/>
      <point x="256" y="601" type="line" smooth="yes"/>
      <point x="230" y="601"/>
      <point x="188" y="589"/>
      <point x="166" y="572" type="curve"/>
      <point x="164" y="441"/>
      <point x="138" y="307"/>
    </contour>
    <component base="period" yxScale="0.176" xOffset="29" yOffset="-8"/>
  </outline>
</glyph>
<glyph name="parenleft" format="1">
  <advance width="280"/>
  <unicode hex="0028"/>
  <outline>
    <contour>
      <point x="95" y="163" type="curve" smooth="yes"/>
      <point x="95" y="374"/>
      <point x="210" y="529"/>
      <point x="333" y="671" type="curve"/>
      <point x="367" y="645" type="line"/>
      <point x="252" y="499"/>
      <point x="168" y="365"/>
      <point x="168" y="141" type="curve" smooth="yes"/>
      <point x="168" y="46"/>
      <point x="192" y="-29"/>
      <point x="218" y="-84" type="curve"/>
      <point x="186" y="-125" type="line"/>
      <point x="146" y="-93"/>
      <point x="95" y="37"/>
    </contour>
  </outline>
</glyph>
<glyph name="parenright" format="1">
  <advance width="279"/>
  <unicode hex="0029"/>
  <outline>
    <contour>
      <point x="47" y="-101" type="line"/>
      <point x="170" y="49"/>
      <point x="261" y="213"/>
      <point x="261" y="414" type="curve" smooth="yes"/>
      <point x="261" y="539"/>
      <point x="225" y="629"/>
      <point x="195" y="662" type="curve"/>
      <point x="148" y="638" type="line"/>
      <point x="184" y="581"/>
      <point x="195" y="477"/>
      <point x="195" y="407" type="curve" smooth="yes"/>
      <point x="195" y="214"/>
      <point x="111" y="56"/>
      <point x="10" y="-72" type="curve"/>
    </contour>
  </outline>
</glyph>
<glyph name="asterisk" format="1">
  <advance width="285"/>
  <unicode hex="002A"/>
  <outline>
    <contour>
      <point x="22" y="496" type="line"/>
      <point x="43" y="524"/>
      <point x="78" y="560"/>
      <point x="108" y="578" type="curve"/>
      <point x="107" y="584"/>
      <point x="118" y="550"/>
      <point x="117" y="556" type="curve"/>
      <point x="102" y="587"/>
      <point x="51" y="630"/>
      <point x="27" y="644" type="curve"/>
      <point x="45" y="662" type="line"/>
      <point x="73" y="653"/>
      <point x="118" y="637"/>
      <point x="152" y="601" type="curve"/>
      <point x="130" y="600" type="line"/>
      <point x="152" y="617"/>
      <point x="189" y="676"/>
      <point x="196" y="698" type="curve"/>
      <point x="206" y="692"/>
      <point x="209" y="690"/>
      <point x="217" y="685" type="curve"/>
      <point x="212" y="657"/>
      <point x="205" y="618"/>
      <point x="179" y="576" type="curve"/>
      <point x="180" y="589" type="line"/>
      <point x="203" y="575"/>
      <point x="251" y="563"/>
      <point x="279" y="559" type="curve"/>
      <point x="280" y="547"/>
      <point x="281" y="543"/>
      <point x="283" y="534" type="curve"/>
      <point x="255" y="527"/>
      <point x="192" y="531"/>
      <point x="170" y="540" type="curve"/>
      <point x="177" y="553" type="line"/>
      <point x="178" y="521"/>
      <point x="192" y="479"/>
      <point x="204" y="444" type="curve"/>
      <point x="176" y="438" type="line"/>
      <point x="155" y="454"/>
      <point x="128" y="519"/>
      <point x="125" y="543" type="curve"/>
      <point x="141" y="537" type="line"/>
      <point x="106" y="526"/>
      <point x="68" y="503"/>
      <point x="38" y="476" type="curve"/>
    </contour>
  </outline>
</glyph>
<glyph name="comma" format="1">
  <advance width="149"/>
  <unicode hex="002C"/>
  <outline>
    <contour>
      <point x="-1" y="-162" type="line"/>
      <point x="66" y="-110"/>
      <point x="163" y="11"/>
      <point x="176" y="67" type="curve"/>
      <point x="144" y="73"/>
      <point x="131" y="75"/>
      <point x="93" y="83" type="curve"/>
      <point x="78" y="-16"/>
      <point x="22" y="-89"/>
      <point x="-13" y="-137" type="curve"/>
    </contour>
  </outline>
</glyph>
<glyph name="hyphen" format="1">
  <advance width="405"/>
  <unicode hex="002D"/>
  <outline>
    <contour>
      <point x="34" y="249" type="line"/>
      <point x="47" y="314" type="line"/>
      <point x="118" y="310"/>
      <point x="173" y="309"/>
      <point x="227" y="309" type="curve" smooth="yes"/>
      <point x="281" y="309"/>
      <point x="333" y="310"/>
      <point x="397" y="314" type="curve"/>
      <point x="392" y="293"/>
      <point x="394" y="275"/>
      <point x="388" y="249" type="curve"/>
    </contour>
  </outline>
</glyph>
<glyph name="period" format="1">
  <advance width="154"/>
  <unicode hex="002E"/>
  <outline>
    <contour>
      <point x="33" y="22" type="curve" smooth="yes"/>
      <point x="33" y="61"/>
      <point x="62" y="86"/>
      <point x="87" y="86" type="curve" smooth="yes"/>
      <point x="121" y="86"/>
      <point x="137" y="66"/>
      <point x="137" y="40" type="curve" smooth="yes"/>
      <point x="137" y="-2"/>
      <point x="111" y="-21"/>
      <point x="75" y="-21" type="curve" smooth="yes"/>
      <point x="53" y="-21"/>
      <point x="33" y="-5"/>
    </contour>
  </outline>
</glyph>
<glyph name="zero" format="1">
  <advance width="529"/>
  <unicode hex="0030"/>
  <outline>
    <contour>
      <point x="264" y="-4" type="curve" smooth="yes"/>
      <point x="431" y="-4"/>
      <point x="507" y="154"/>
      <point x="507" y="319" type="curve" smooth="yes"/>
      <point x="507" y="464"/>
      <point x="433" y="523"/>
      <point x="337" y="523" type="curve" smooth="yes"/>
      <point x="192" y="523"/>
      <point x="74" y="403"/>
      <point x="74" y="202" type="curve" smooth="yes"/>
      <point x="74" y="81"/>
      <point x="141" y="-4"/>
    </contour>
    <contour>
      <point x="265" y="41" type="curve" smooth="yes"/>
      <point x="183" y="41"/>
      <point x="150" y="113"/>
      <point x="150" y="215" type="curve" smooth="yes"/>
      <point x="150" y="372"/>
      <point x="229" y="473"/>
      <point x="321" y="473" type="curve" smooth="yes"/>
      <point x="385" y="473"/>
      <point x="435" y="418"/>
      <point x="435" y="321" type="curve" smooth="yes"/>
      <point x="435" y="180"/>
      <point x="364" y="41"/>
    </contour>
  </outline>
</glyph>
<glyph name="one" format="1">
  <advance width="325"/>
  <unicode hex="0031"/>
  <outline>
    <contour>
      <point x="65" y="458" type="curve"/>
      <point x="68" y="489" type="line"/>
      <point x="138" y="491"/>
      <point x="274" y="528"/>
      <point x="274" y="528" type="curve"/>
      <point x="257" y="449"/>
      <point x="210" y="65"/>
      <point x="195" y="0" type="curve"/>
      <point x="123" y="0" type="line"/>
      <point x="154" y="150"/>
      <point x="177" y="340"/>
      <point x="177" y="389" type="curve" smooth="yes"/>
      <point x="177" y="436"/>
      <point x="119" y="458"/>
    </contour>
    <contour>
      <point x="46" y="0" type="line"/>
      <point x="53" y="40" type="line"/>
      <point x="56" y="40"/>
      <point x="59" y="40"/>
      <point x="62" y="40" type="curve" smooth="yes"/>
      <point x="107" y="40"/>
      <point x="135" y="62"/>
      <point x="143" y="104" type="curve"/>
      <point x="214" y="115" type="line"/>
      <point x="213" y="109"/>
      <point x="212" y="104"/>
      <point x="212" y="100" type="curve" smooth="yes"/>
      <point x="212" y="46"/>
      <point x="264" y="40"/>
      <point x="287" y="40" type="curve"/>
      <point x="287" y="0" type="line"/>
    </contour>
  </outline>
</glyph>
<glyph name="three" format="1">
  <advance width="457"/>
  <unicode hex="0033"/>
  <outline>
    <contour>
      <point x="129" y="-93" type="curve" smooth="yes"/>
      <point x="262" y="-93"/>
      <point x="410" y="-41"/>
      <point x="410" y="120" type="curve" smooth="yes"/>
      <point x="410" y="200"/>
      <point x="345" y="255"/>
      <point x="237" y="255" type="curve" smooth="yes"/>
      <point x="236" y="255"/>
      <point x="239" y="255"/>
      <point x="237" y="255" type="curve"/>
      <point x="245" y="236" type="line"/>
      <point x="350" y="254"/>
      <point x="442" y="330"/>
      <point x="445" y="426" type="curve" smooth="yes"/>
      <point x="445" y="485"/>
      <point x="402" y="535"/>
      <point x="296" y="535" type="curve" smooth="yes"/>
      <point x="223" y="535"/>
      <point x="157" y="509"/>
      <point x="115" y="483" type="curve"/>
      <point x="115" y="483"/>
      <point x="104" y="432"/>
      <point x="105" y="384" type="curve"/>
      <point x="144" y="431"/>
      <point x="195" y="495"/>
      <point x="274" y="495" type="curve" smooth="yes"/>
      <point x="330" y="495"/>
      <point x="367" y="463"/>
      <point x="367" y="406" type="curve" smooth="yes"/>
      <point x="367" y="320"/>
      <point x="280" y="267"/>
      <point x="176" y="248" type="curve"/>
      <point x="168" y="211" type="line"/>
      <point x="255" y="217"/>
      <point x="339" y="175"/>
      <point x="339" y="99" type="curve" smooth="yes"/>
      <point x="339" y="30"/>
      <point x="291" y="-42"/>
      <point x="190" y="-42" type="curve" smooth="yes"/>
      <point x="133" y="-42"/>
      <point x="79" y="-8"/>
      <point x="65" y="21" type="curve"/>
      <point x="44" y="-6"/>
      <point x="32" y="-48"/>
      <point x="32" y="-72" type="curve" smooth="yes"/>
      <point x="32" y="-76"/>
      <point x="32" y="-80"/>
      <point x="33" y="-83" type="curve"/>
      <point x="46" y="-88"/>
      <point x="103" y="-93"/>
    </contour>
  </outline>
</glyph>
<glyph name="four" format="1">
  <advance width="545"/>
  <unicode hex="0034"/>
  <outline>
    <contour>
      <point x="293" y="-85" type="line"/>
      <point x="319" y="52"/>
      <point x="342" y="175"/>
      <point x="354" y="299" type="curve"/>
      <point x="354" y="299"/>
      <point x="395" y="318"/>
      <point x="441" y="342" type="curve"/>
      <point x="396" y="123"/>
      <point x="383" y="49"/>
      <point x="375" y="-85" type="curve"/>
    </contour>
    <contour>
      <point x="44" y="106" type="line"/>
      <point x="150" y="224"/>
      <point x="254" y="393"/>
      <point x="293" y="496" type="curve"/>
      <point x="320" y="498"/>
      <point x="347" y="499"/>
      <point x="391" y="505" type="curve"/>
      <point x="355" y="416"/>
      <point x="201" y="185"/>
      <point x="90" y="113" type="curve"/>
      <point x="99" y="143" type="line"/>
      <point x="152" y="143" type="line" smooth="yes"/>
      <point x="271" y="143"/>
      <point x="473" y="146"/>
      <point x="535" y="150" type="curve"/>
      <point x="535" y="78" type="line"/>
      <point x="63" y="78" type="line"/>
    </contour>
  </outline>
</glyph>
<glyph name="five" format="1">
  <advance width="451"/>
  <unicode hex="0035"/>
  <outline>
    <contour>
      <point x="26" y="-74" type="curve" smooth="yes"/>
      <point x="26" y="-45"/>
      <point x="37" y="-6"/>
      <point x="60" y="27" type="curve"/>
      <point x="74" y="-8"/>
      <point x="111" y="-46"/>
      <point x="176" y="-46" type="curve" smooth="yes"/>
      <point x="264" y="-46"/>
      <point x="344" y="6"/>
      <point x="347" y="103" type="curve" smooth="yes"/>
      <point x="347" y="191"/>
      <point x="252" y="252"/>
      <point x="125" y="252" type="curve" smooth="yes"/>
      <point x="115" y="252"/>
      <point x="106" y="252"/>
      <point x="95" y="251" type="curve"/>
      <point x="116" y="341"/>
      <point x="130" y="410"/>
      <point x="147" y="509" type="curve"/>
      <point x="173" y="508"/>
      <point x="201" y="507"/>
      <point x="230" y="507" type="curve" smooth="yes"/>
      <point x="299" y="507"/>
      <point x="382" y="511"/>
      <point x="433" y="514" type="curve"/>
      <point x="419" y="447" type="line"/>
      <point x="322" y="453"/>
      <point x="291" y="453"/>
      <point x="185" y="453" type="curve"/>
      <point x="164" y="306" type="line"/>
      <point x="291" y="306"/>
      <point x="420" y="252"/>
      <point x="420" y="131" type="curve" smooth="yes"/>
      <point x="420" y="-11"/>
      <point x="286" y="-79"/>
      <point x="201" y="-93" type="curve" smooth="yes"/>
      <point x="179" y="-97"/>
      <point x="153" y="-98"/>
      <point x="128" y="-98" type="curve" smooth="yes"/>
      <point x="82" y="-98"/>
      <point x="39" y="-93"/>
      <point x="27" y="-85" type="curve"/>
      <point x="26" y="-81"/>
      <point x="26" y="-78"/>
    </contour>
  </outline>
</glyph>
<glyph name="six" format="1">
  <advance width="500"/>
  <unicode hex="0036"/>
  <outline>
    <contour>
      <point x="81" y="186" type="curve" smooth="yes"/>
      <point x="81" y="433"/>
      <point x="247" y="565"/>
      <point x="397" y="598" type="curve" smooth="yes"/>
      <point x="416" y="603"/>
      <point x="438" y="606"/>
      <point x="458" y="606" type="curve" smooth="yes"/>
      <point x="464" y="606"/>
      <point x="471" y="606"/>
      <point x="478" y="605" type="curve"/>
      <point x="478" y="565" type="line"/>
      <point x="286" y="565"/>
      <point x="181" y="374"/>
      <point x="173" y="211" type="curve" smooth="yes"/>
      <point x="173" y="204"/>
      <point x="172" y="196"/>
      <point x="172" y="189" type="curve" smooth="yes"/>
      <point x="172" y="93"/>
      <point x="206" y="35"/>
      <point x="270" y="35" type="curve" smooth="yes"/>
      <point x="347" y="34"/>
      <point x="394" y="118"/>
      <point x="397" y="217" type="curve" smooth="yes"/>
      <point x="397" y="294"/>
      <point x="352" y="322"/>
      <point x="301" y="322" type="curve" smooth="yes"/>
      <point x="217" y="322"/>
      <point x="165" y="263"/>
      <point x="155" y="255" type="curve"/>
      <point x="157" y="255"/>
      <point x="141" y="282"/>
      <point x="143" y="283" type="curve" smooth="yes"/>
      <point x="215" y="369"/>
      <point x="287" y="386"/>
      <point x="336" y="386" type="curve" smooth="yes"/>
      <point x="406" y="386"/>
      <point x="488" y="340"/>
      <point x="488" y="230" type="curve" smooth="yes"/>
      <point x="488" y="218"/>
      <point x="488" y="205"/>
      <point x="486" y="192" type="curve" smooth="yes"/>
      <point x="470" y="89"/>
      <point x="385" y="-11"/>
      <point x="250" y="-11" type="curve" smooth="yes"/>
      <point x="118" y="-11"/>
      <point x="81" y="100"/>
    </contour>
  </outline>
</glyph>
<glyph name="seven" format="1">
  <advance width="504"/>
  <unicode hex="0037"/>
  <outline>
    <contour>
      <point x="171" y="-97" type="curve"/>
      <point x="240" y="97"/>
      <point x="404" y="347"/>
      <point x="528" y="470" type="curve"/>
      <point x="499" y="511" type="line"/>
      <point x="440" y="508"/>
      <point x="321" y="501"/>
      <point x="204" y="501" type="curve" smooth="yes"/>
      <point x="176" y="501"/>
      <point x="150" y="501"/>
      <point x="123" y="502" type="curve"/>
      <point x="117" y="441"/>
      <point x="107" y="413"/>
      <point x="98" y="366" type="curve"/>
      <point x="128" y="404"/>
      <point x="172" y="431"/>
      <point x="245" y="435" type="curve"/>
      <point x="466" y="435" type="line"/>
      <point x="466" y="457" type="line"/>
      <point x="318" y="344"/>
      <point x="141" y="66"/>
      <point x="92" y="-57" type="curve"/>
      <point x="115" y="-65"/>
      <point x="145" y="-77"/>
    </contour>
  </outline>
</glyph>
<glyph name="eight" format="1">
  <advance width="476"/>
  <unicode hex="0038"/>
  <outline>
    <contour>
      <point x="52" y="110" type="curve" smooth="yes"/>
      <point x="52" y="43"/>
      <point x="93" y="-19"/>
      <point x="223" y="-19" type="curve" smooth="yes"/>
      <point x="335" y="-19"/>
      <point x="449" y="47"/>
      <point x="449" y="169" type="curve" smooth="yes"/>
      <point x="449" y="335"/>
      <point x="196" y="320"/>
      <point x="196" y="448" type="curve" smooth="yes"/>
      <point x="196" y="516"/>
      <point x="250" y="556"/>
      <point x="302" y="556" type="curve" smooth="yes"/>
      <point x="358" y="556"/>
      <point x="387" y="519"/>
      <point x="387" y="469" type="curve" smooth="yes"/>
      <point x="386" y="401"/>
      <point x="334" y="341"/>
      <point x="283" y="319" type="curve"/>
      <point x="301" y="296" type="line"/>
      <point x="359" y="302"/>
      <point x="467" y="362"/>
      <point x="467" y="476" type="curve" smooth="yes"/>
      <point x="467" y="552"/>
      <point x="407" y="601"/>
      <point x="321" y="601" type="curve" smooth="yes"/>
      <point x="220" y="601"/>
      <point x="111" y="536"/>
      <point x="111" y="419" type="curve" smooth="yes"/>
      <point x="111" y="258"/>
      <point x="350" y="286"/>
      <point x="350" y="158" type="curve" smooth="yes"/>
      <point x="350" y="90"/>
      <point x="314" y="30"/>
      <point x="236" y="29" type="curve" smooth="yes"/>
      <point x="170" y="29"/>
      <point x="143" y="74"/>
      <point x="143" y="123" type="curve" smooth="yes"/>
      <point x="145" y="188"/>
      <point x="176" y="234"/>
      <point x="252" y="266" type="curve" smooth="yes"/>
      <point x="252" y="266"/>
      <point x="252" y="268"/>
      <point x="252" y="270" type="curve" smooth="yes"/>
      <point x="252" y="276"/>
      <point x="250" y="289"/>
      <point x="250" y="295" type="curve" smooth="yes"/>
      <point x="250" y="297"/>
      <point x="250" y="298"/>
      <point x="251" y="298" type="curve"/>
      <point x="137" y="291"/>
      <point x="62" y="213"/>
      <point x="52" y="132" type="curve" smooth="yes"/>
      <point x="52" y="125"/>
      <point x="52" y="118"/>
    </contour>
  </outline>
</glyph>
<glyph name="nine" format="1">
  <advance width="481"/>
  <unicode hex="0039"/>
  <outline>
    <contour>
      <point x="108" y="-95" type="curve" smooth="yes"/>
      <point x="128" y="-95"/>
      <point x="150" y="-92"/>
      <point x="169" y="-87" type="curve"/>
      <point x="319" y="-54"/>
      <point x="485" y="78"/>
      <point x="485" y="325" type="curve" smooth="yes"/>
      <point x="485" y="410"/>
      <point x="448" y="521"/>
      <point x="316" y="521" type="curve" smooth="yes"/>
      <point x="181" y="521"/>
      <point x="97" y="422"/>
      <point x="81" y="318" type="curve"/>
      <point x="78" y="306"/>
      <point x="78" y="293"/>
      <point x="78" y="281" type="curve" smooth="yes"/>
      <point x="78" y="170"/>
      <point x="160" y="125"/>
      <point x="230" y="125" type="curve" smooth="yes"/>
      <point x="278" y="125"/>
      <point x="351" y="141"/>
      <point x="423" y="228" type="curve"/>
      <point x="425" y="229"/>
      <point x="409" y="256"/>
      <point x="410" y="256" type="curve"/>
      <point x="401" y="248"/>
      <point x="349" y="188"/>
      <point x="264" y="188" type="curve" smooth="yes"/>
      <point x="214" y="188"/>
      <point x="169" y="217"/>
      <point x="169" y="293" type="curve" smooth="yes"/>
      <point x="172" y="392"/>
      <point x="218" y="476"/>
      <point x="295" y="476" type="curve" smooth="yes"/>
      <point x="359" y="476"/>
      <point x="390" y="419"/>
      <point x="390" y="324" type="curve" smooth="yes"/>
      <point x="390" y="316"/>
      <point x="390" y="308"/>
      <point x="389" y="299" type="curve"/>
      <point x="378" y="138"/>
      <point x="290" y="-55"/>
      <point x="87" y="-55" type="curve"/>
      <point x="87" y="-94" type="line"/>
      <point x="94" y="-95"/>
      <point x="101" y="-95"/>
    </contour>
  </outline>
</glyph>
<glyph name="question" format="1">
  <advance width="417"/>
  <unicode hex="003F"/>
  <outline>
    <contour>
      <point x="71" y="153" type="line"/>
      <point x="78" y="210"/>
      <point x="113" y="258"/>
      <point x="150" y="293" type="curve" smooth="yes"/>
      <point x="226" y="366"/>
      <point x="310" y="431"/>
      <point x="312" y="515" type="curve" smooth="yes"/>
      <point x="313" y="553"/>
      <point x="294" y="586"/>
      <point x="247" y="586" type="curve" smooth="yes"/>
      <point x="182" y="586"/>
      <point x="125" y="522"/>
      <point x="92" y="468" type="curve"/>
      <point x="93" y="506"/>
      <point x="94" y="544"/>
      <point x="100" y="568" type="curve"/>
      <point x="113" y="587" type="line"/>
      <point x="131" y="596"/>
      <point x="213" y="628"/>
      <point x="279" y="629" type="curve" smooth="yes"/>
      <point x="359" y="629"/>
      <point x="404" y="596"/>
      <point x="404" y="540" type="curve" smooth="yes"/>
      <point x="404" y="454"/>
      <point x="278" y="366"/>
      <point x="208" y="292" type="curve" smooth="yes"/>
      <point x="164" y="246"/>
      <point x="157" y="206"/>
      <point x="157" y="153" type="curve"/>
    </contour>
    <component base="period" yxScale="0.176" xOffset="9" yOffset="-2"/>
  </outline>
</glyph>
<glyph name="A" format="1">
  <advance width="611"/>
  <unicode hex="0041"/>
  <outline>
    <contour>
      <point x="15" y="0" type="line"/>
      <point x="21" y="46" type="line"/>
      <point x="81" y="48"/>
      <point x="98" y="89"/>
      <point x="119" y="141" type="curve" smooth="yes"/>
      <point x="192" y="306"/>
      <point x="261" y="470"/>
      <point x="318" y="592" type="curve"/>
      <point x="345" y="597"/>
      <point x="372" y="606"/>
      <point x="401" y="616" type="curve"/>
      <point x="427" y="456"/>
      <point x="464" y="318"/>
      <point x="514" y="114" type="curve" smooth="yes"/>
      <point x="522" y="79"/>
      <point x="541" y="37"/>
      <point x="593" y="39" type="curve"/>
      <point x="587" y="0" type="line"/>
      <point x="356" y="0" type="line"/>
      <point x="362" y="44" type="line"/>
      <point x="410" y="43"/>
      <point x="434" y="48"/>
      <point x="434" y="80" type="curve" smooth="yes"/>
      <point x="434" y="84"/>
      <point x="434" y="89"/>
      <point x="433" y="94" type="curve" smooth="yes"/>
      <point x="419" y="189"/>
      <point x="382" y="308"/>
      <point x="358" y="420" type="curve" smooth="yes"/>
      <point x="351" y="450"/>
      <point x="350" y="502"/>
      <point x="347" y="534" type="curve"/>
      <point x="280" y="374"/>
      <point x="188" y="160"/>
      <point x="171" y="110" type="curve"/>
      <point x="168" y="98"/>
      <point x="166" y="88"/>
      <point x="166" y="79" type="curve" smooth="yes"/>
      <point x="166" y="37"/>
      <point x="203" y="38"/>
      <point x="226" y="39" type="curve"/>
      <point x="221" y="0" type="line"/>
    </contour>
    <contour>
      <point x="196" y="204" type="line"/>
      <point x="203" y="250" type="line"/>
      <point x="449" y="256" type="line"/>
      <point x="442" y="206" type="line"/>
    </contour>
  </outline>
</glyph>
<glyph name="B" format="1">
  <advance width="560"/>
  <unicode hex="0042"/>
  <outline>
    <contour>
      <point x="11" y="0" type="line"/>
      <point x="16" y="43" type="line"/>
      <point x="76" y="43"/>
      <point x="88" y="59"/>
      <point x="94" y="97" type="curve" smooth="yes"/>
      <point x="121" y="260"/>
      <point x="142" y="356"/>
      <point x="151" y="477" type="curve" smooth="yes"/>
      <point x="151" y="483"/>
      <point x="152" y="488"/>
      <point x="152" y="494" type="curve" smooth="yes"/>
      <point x="152" y="530"/>
      <point x="140" y="558"/>
      <point x="79" y="559" type="curve"/>
      <point x="83" y="606" type="line"/>
      <point x="104" y="605"/>
      <point x="122" y="605"/>
      <point x="138" y="605" type="curve" smooth="yes"/>
      <point x="214" y="605"/>
      <point x="248" y="610"/>
      <point x="342" y="610" type="curve" smooth="yes"/>
      <point x="438" y="610"/>
      <point x="499" y="568"/>
      <point x="499" y="488" type="curve" smooth="yes"/>
      <point x="499" y="412"/>
      <point x="444" y="319"/>
      <point x="355" y="315" type="curve"/>
      <point x="374" y="334" type="line"/>
      <point x="456" y="323"/>
      <point x="505" y="265"/>
      <point x="505" y="196" type="curve" smooth="yes"/>
      <point x="505" y="189"/>
      <point x="504" y="182"/>
      <point x="503" y="175" type="curve" smooth="yes"/>
      <point x="486" y="44"/>
      <point x="358" y="0"/>
      <point x="236" y="0" type="curve" smooth="yes"/>
    </contour>
    <contour>
      <point x="169" y="106" type="curve" smooth="yes"/>
      <point x="169" y="57"/>
      <point x="190" y="52"/>
      <point x="250" y="52" type="curve" smooth="yes"/>
      <point x="333" y="52"/>
      <point x="421" y="104"/>
      <point x="421" y="190" type="curve" smooth="yes"/>
      <point x="421" y="248"/>
      <point x="380" y="293"/>
      <point x="299" y="296" type="curve" smooth="yes"/>
      <point x="267" y="296"/>
      <point x="220" y="293"/>
      <point x="193" y="287" type="curve"/>
      <point x="183" y="213"/>
      <point x="169" y="160"/>
    </contour>
    <contour>
      <point x="201" y="344" type="curve"/>
      <point x="213" y="344"/>
      <point x="224" y="344"/>
      <point x="233" y="344" type="curve" smooth="yes"/>
      <point x="256" y="344"/>
      <point x="274" y="344"/>
      <point x="293" y="345" type="curve" smooth="yes"/>
      <point x="367" y="349"/>
      <point x="413" y="408"/>
      <point x="420" y="455" type="curve" smooth="yes"/>
      <point x="421" y="461"/>
      <point x="421" y="466"/>
      <point x="421" y="471" type="curve" smooth="yes"/>
      <point x="421" y="532"/>
      <point x="375" y="564"/>
      <point x="321" y="565" type="curve" smooth="yes"/>
      <point x="286" y="566"/>
      <point x="255" y="562"/>
      <point x="237" y="555" type="curve"/>
      <point x="224" y="496"/>
      <point x="211" y="419"/>
    </contour>
  </outline>
</glyph>
<glyph name="D" format="1">
  <advance width="600"/>
  <unicode hex="0044"/>
  <outline>
    <contour>
      <point x="-12" y="0" type="line"/>
      <point x="-7" y="46" type="line"/>
      <point x="41" y="46"/>
      <point x="70" y="62"/>
      <point x="78" y="100" type="curve" smooth="yes"/>
      <point x="92" y="170"/>
      <point x="104" y="238"/>
      <point x="112" y="304" type="curve" smooth="yes"/>
      <point x="121" y="367"/>
      <point x="125" y="452"/>
      <point x="128" y="492" type="curve" smooth="yes"/>
      <point x="130" y="530"/>
      <point x="115" y="558"/>
      <point x="53" y="559" type="curve"/>
      <point x="59" y="607" type="line"/>
      <point x="89" y="606"/>
      <point x="116" y="606"/>
      <point x="141" y="606" type="curve" smooth="yes"/>
      <point x="236" y="606"/>
      <point x="305" y="611"/>
      <point x="359" y="611" type="curve" smooth="yes"/>
      <point x="476" y="611"/>
      <point x="575" y="551"/>
      <point x="575" y="401" type="curve" smooth="yes"/>
      <point x="575" y="152"/>
      <point x="415" y="3"/>
      <point x="201" y="0" type="curve" smooth="yes"/>
    </contour>
    <contour>
      <point x="166" y="102" type="curve" smooth="yes"/>
      <point x="166" y="65"/>
      <point x="202" y="62"/>
      <point x="238" y="62" type="curve" smooth="yes"/>
      <point x="256" y="62" type="line" smooth="yes"/>
      <point x="388" y="65"/>
      <point x="492" y="191"/>
      <point x="492" y="369" type="curve" smooth="yes"/>
      <point x="492" y="488"/>
      <point x="441" y="559"/>
      <point x="318" y="562" type="curve" smooth="yes"/>
      <point x="278" y="562"/>
      <point x="241" y="555"/>
      <point x="220" y="547" type="curve"/>
      <point x="185" y="367"/>
      <point x="166" y="205"/>
    </contour>
  </outline>
</glyph>
<glyph name="E" format="1">
  <advance width="530"/>
  <unicode hex="0045"/>
  <outline>
    <contour>
      <point x="11" y="0" type="line"/>
      <point x="16" y="46" type="line"/>
      <point x="68" y="49"/>
      <point x="78" y="70"/>
      <point x="85" y="107" type="curve" smooth="yes"/>
      <point x="106" y="215"/>
      <point x="129" y="371"/>
      <point x="138" y="504" type="curve" smooth="yes"/>
      <point x="141" y="540"/>
      <point x="128" y="562"/>
      <point x="76" y="562" type="curve"/>
      <point x="81" y="608" type="line"/>
      <point x="122" y="604"/>
      <point x="183" y="604"/>
      <point x="238" y="604" type="curve" smooth="yes"/>
      <point x="260" y="604"/>
      <point x="281" y="604"/>
      <point x="299" y="604" type="curve" smooth="yes"/>
      <point x="365" y="604"/>
      <point x="451" y="605"/>
      <point x="525" y="609" type="curve"/>
      <point x="525" y="584"/>
      <point x="504" y="453"/>
      <point x="502" y="454" type="curve"/>
      <point x="448" y="459" type="line"/>
      <point x="448" y="504"/>
      <point x="435" y="556"/>
      <point x="406" y="586" type="curve"/>
      <point x="473" y="550" type="line"/>
      <point x="413" y="556"/>
      <point x="345" y="559"/>
      <point x="270" y="559" type="curve" smooth="yes"/>
      <point x="232" y="559"/>
      <point x="220" y="536"/>
      <point x="214" y="513" type="curve"/>
      <point x="180" y="359"/>
      <point x="165" y="188"/>
      <point x="157" y="95" type="curve" smooth="yes"/>
      <point x="157" y="91"/>
      <point x="156" y="87"/>
      <point x="156" y="83" type="curve" smooth="yes"/>
      <point x="156" y="66"/>
      <point x="161" y="50"/>
      <point x="183" y="48" type="curve" smooth="yes"/>
      <point x="199" y="46"/>
      <point x="216" y="45"/>
      <point x="233" y="45" type="curve" smooth="yes"/>
      <point x="293" y="45"/>
      <point x="359" y="54"/>
      <point x="390" y="62" type="curve"/>
      <point x="325" y="14" type="line"/>
      <point x="363" y="52"/>
      <point x="385" y="105"/>
      <point x="403" y="155" type="curve"/>
      <point x="458" y="161" type="line"/>
      <point x="458" y="157"/>
      <point x="448" y="65"/>
      <point x="435" y="0" type="curve"/>
    </contour>
    <contour>
      <point x="137" y="279" type="curve"/>
      <point x="144" y="330" type="line"/>
      <point x="293" y="331" type="line"/>
      <point x="410" y="344" type="line"/>
      <point x="402" y="281" type="line"/>
      <point x="374" y="283"/>
      <point x="348" y="283"/>
      <point x="323" y="283" type="curve" smooth="yes"/>
      <point x="262" y="283"/>
      <point x="204" y="280"/>
    </contour>
    <contour>
      <point x="335" y="642" type="move" name="top"/>
    </contour>
  </outline>
</glyph>
<glyph name="F" format="1">
  <advance width="500"/>
  <unicode hex="0046"/>
  <outline>
    <contour>
      <point x="2" y="0" type="line"/>
      <point x="8" y="47" type="line"/>
      <point x="62" y="52"/>
      <point x="69" y="69"/>
      <point x="77" y="103" type="curve"/>
      <point x="97" y="205"/>
      <point x="121" y="366"/>
      <point x="131" y="504" type="curve" smooth="yes"/>
      <point x="131" y="509"/>
      <point x="132" y="513"/>
      <point x="132" y="517" type="curve" smooth="yes"/>
      <point x="132" y="545"/>
      <point x="120" y="561"/>
      <point x="68" y="562" type="curve"/>
      <point x="69" y="608" type="line"/>
      <point x="125" y="603"/>
      <point x="205" y="603"/>
      <point x="266" y="603" type="curve" smooth="yes"/>
      <point x="328" y="603"/>
      <point x="406" y="605"/>
      <point x="497" y="609" type="curve"/>
      <point x="496" y="581"/>
      <point x="475" y="448"/>
      <point x="473" y="447" type="curve"/>
      <point x="426" y="453" type="line"/>
      <point x="426" y="498"/>
      <point x="414" y="556"/>
      <point x="385" y="586" type="curve"/>
      <point x="445" y="551" type="line"/>
      <point x="273" y="556" type="line" smooth="yes"/>
      <point x="229" y="557"/>
      <point x="214" y="539"/>
      <point x="208" y="507" type="curve" smooth="yes"/>
      <point x="172" y="321"/>
      <point x="153" y="111"/>
      <point x="153" y="101" type="curve" smooth="yes"/>
      <point x="153" y="45"/>
      <point x="199" y="43"/>
      <point x="219" y="43" type="curve"/>
      <point x="214" y="0" type="line"/>
    </contour>
    <contour>
      <point x="127" y="288" type="curve"/>
      <point x="134" y="340" type="line"/>
      <point x="283" y="341" type="line"/>
      <point x="387" y="354" type="line"/>
      <point x="378" y="283" type="line"/>
      <point x="308" y="287"/>
      <point x="256" y="289"/>
      <point x="195" y="289" type="curve" smooth="yes"/>
      <point x="174" y="289"/>
      <point x="152" y="289"/>
    </contour>
  </outline>
</glyph>
<glyph name="G" format="1">
  <advance width="621"/>
  <unicode hex="0047"/>
  <outline>
    <contour>
      <point x="269" y="-21" type="curve" smooth="yes"/>
      <point x="341" y="-21"/>
      <point x="443" y="1"/>
      <point x="508" y="81" type="curve"/>
      <point x="464" y="105" type="line"/>
      <point x="426" y="66"/>
      <point x="386" y="41"/>
      <point x="308" y="41" type="curve" smooth="yes"/>
      <point x="173" y="41"/>
      <point x="112" y="130"/>
      <point x="112" y="242" type="curve" smooth="yes"/>
      <point x="112" y="418"/>
      <point x="239" y="556"/>
      <point x="371" y="556" type="curve" smooth="yes"/>
      <point x="469" y="556"/>
      <point x="511" y="506"/>
      <point x="524" y="503" type="curve"/>
      <point x="531" y="514"/>
      <point x="534" y="524"/>
      <point x="534" y="532" type="curve" smooth="yes"/>
      <point x="534" y="566"/>
      <point x="482" y="580"/>
      <point x="449" y="580" type="curve" smooth="yes"/>
      <point x="436" y="580"/>
      <point x="426" y="578"/>
      <point x="423" y="574" type="curve"/>
      <point x="458" y="568"/>
      <point x="499" y="513"/>
      <point x="515" y="446" type="curve"/>
      <point x="565" y="444" type="line"/>
      <point x="571" y="476"/>
      <point x="576" y="552"/>
      <point x="578" y="591" type="curve"/>
      <point x="578" y="591"/>
      <point x="522" y="609"/>
      <point x="432" y="609" type="curve" smooth="yes"/>
      <point x="180" y="609"/>
      <point x="24" y="424"/>
      <point x="24" y="211" type="curve" smooth="yes"/>
      <point x="24" y="72"/>
      <point x="122" y="-21"/>
    </contour>
    <contour>
      <point x="402" y="35" type="curve"/>
      <point x="508" y="81" type="line"/>
      <point x="515" y="107"/>
      <point x="521" y="158"/>
      <point x="525" y="198" type="curve" smooth="yes"/>
      <point x="531" y="251"/>
      <point x="568" y="252"/>
      <point x="596" y="251" type="curve"/>
      <point x="599" y="296" type="line"/>
      <point x="559" y="295"/>
      <point x="520" y="293"/>
      <point x="480" y="293" type="curve" smooth="yes"/>
      <point x="447" y="293"/>
      <point x="412" y="294"/>
      <point x="377" y="296" type="curve"/>
      <point x="368" y="248" type="line"/>
      <point x="419" y="246"/>
      <point x="442" y="231"/>
      <point x="442" y="202" type="curve" smooth="yes"/>
      <point x="442" y="149"/>
      <point x="426" y="80"/>
    </contour>
  </outline>
</glyph>
<glyph name="H" format="1">
  <advance width="667"/>
  <unicode hex="0048"/>
  <outline>
    <contour>
      <point x="344" y="-1" type="line"/>
      <point x="352" y="47" type="line"/>
      <point x="400" y="48"/>
      <point x="428" y="57"/>
      <point x="436" y="105" type="curve" smooth="yes"/>
      <point x="451" y="189"/>
      <point x="473" y="346"/>
      <point x="485" y="485" type="curve" smooth="yes"/>
      <point x="485" y="491"/>
      <point x="486" y="496"/>
      <point x="486" y="501" type="curve" smooth="yes"/>
      <point x="486" y="537"/>
      <point x="471" y="562"/>
      <point x="405" y="559" type="curve"/>
      <point x="410" y="608" type="line"/>
      <point x="450" y="606"/>
      <point x="488" y="605"/>
      <point x="523" y="605" type="curve" smooth="yes"/>
      <point x="569" y="605"/>
      <point x="611" y="607"/>
      <point x="653" y="609" type="curve"/>
      <point x="650" y="562" type="line"/>
      <point x="603" y="559"/>
      <point x="575" y="552"/>
      <point x="565" y="504" type="curve" smooth="yes"/>
      <point x="545" y="404"/>
      <point x="525" y="280"/>
      <point x="511" y="116" type="curve" smooth="yes"/>
      <point x="507" y="62"/>
      <point x="543" y="38"/>
      <point x="582" y="41" type="curve"/>
      <point x="584" y="0" type="line"/>
    </contour>
    <contour>
      <point x="-13" y="-1" type="line"/>
      <point x="-5" y="47" type="line"/>
      <point x="43" y="48"/>
      <point x="71" y="57"/>
      <point x="79" y="105" type="curve" smooth="yes"/>
      <point x="94" y="189"/>
      <point x="116" y="346"/>
      <point x="128" y="485" type="curve" smooth="yes"/>
      <point x="131" y="530"/>
      <point x="122" y="562"/>
      <point x="48" y="559" type="curve"/>
      <point x="52" y="608" type="line"/>
      <point x="92" y="606"/>
      <point x="130" y="605"/>
      <point x="166" y="605" type="curve" smooth="yes"/>
      <point x="212" y="605"/>
      <point x="254" y="607"/>
      <point x="296" y="609" type="curve"/>
      <point x="293" y="562" type="line"/>
      <point x="246" y="559"/>
      <point x="217" y="552"/>
      <point x="207" y="504" type="curve" smooth="yes"/>
      <point x="188" y="404"/>
      <point x="168" y="280"/>
      <point x="154" y="116" type="curve" smooth="yes"/>
      <point x="150" y="62"/>
      <point x="185" y="38"/>
      <point x="225" y="41" type="curve"/>
      <point x="226" y="0" type="line"/>
    </contour>
    <contour>
      <point x="144" y="272" type="line"/>
      <point x="150" y="320" type="line"/>
      <point x="370" y="321" type="line"/>
      <point x="526" y="326" type="line"/>
      <point x="518" y="272" type="line"/>
    </contour>
  </outline>
</glyph>
<glyph name="I" format="1">
  <advance width="299"/>
  <unicode hex="0049"/>
  <outline>
    <contour>
      <point x="-13" y="-1" type="line"/>
      <point x="-5" y="47" type="line"/>
      <point x="43" y="48"/>
      <point x="71" y="57"/>
      <point x="79" y="105" type="curve" smooth="yes"/>
      <point x="94" y="189"/>
      <point x="116" y="346"/>
      <point x="128" y="485" type="curve" smooth="yes"/>
      <point x="131" y="530"/>
      <point x="122" y="562"/>
      <point x="48" y="559" type="curve"/>
      <point x="52" y="608" type="line"/>
      <point x="92" y="606"/>
      <point x="130" y="605"/>
      <point x="166" y="605" type="curve" smooth="yes"/>
      <point x="212" y="605"/>
      <point x="254" y="607"/>
      <point x="296" y="609" type="curve"/>
      <point x="293" y="562" type="line"/>
      <point x="246" y="559"/>
      <point x="217" y="552"/>
      <point x="207" y="504" type="curve" smooth="yes"/>
      <point x="188" y="404"/>
      <point x="168" y="280"/>
      <point x="154" y="116" type="curve" smooth="yes"/>
      <point x="150" y="62"/>
      <point x="185" y="38"/>
      <point x="225" y="41" type="curve"/>
      <point x="226" y="0" type="line"/>
    </contour>
  </outline>
</glyph>
<glyph name="J" format="1">
  <advance width="321"/>
  <unicode hex="004A"/>
  <outline>
    <contour>
      <point x="-71" y="-147" type="curve"/>
      <point x="-46" y="-108" type="line"/>
      <point x="-30" y="-112"/>
      <point x="-15" y="-114"/>
      <point x="-2" y="-114" type="curve" smooth="yes"/>
      <point x="100" y="-114"/>
      <point x="108" y="-5"/>
      <point x="120" y="64" type="curve" smooth="yes"/>
      <point x="135" y="156"/>
      <point x="150" y="357"/>
      <point x="165" y="496" type="curve" smooth="yes"/>
      <point x="172" y="558"/>
      <point x="105" y="559"/>
      <point x="82" y="559" type="curve"/>
      <point x="90" y="608" type="line"/>
      <point x="131" y="606"/>
      <point x="168" y="604"/>
      <point x="207" y="604" type="curve" smooth="yes"/>
      <point x="250" y="604"/>
      <point x="293" y="606"/>
      <point x="343" y="609" type="curve"/>
      <point x="336" y="559" type="line"/>
      <point x="282" y="557"/>
      <point x="257" y="547"/>
      <point x="249" y="505" type="curve" smooth="yes"/>
      <point x="217" y="315"/>
      <point x="204" y="198"/>
      <point x="188" y="30" type="curve" smooth="yes"/>
      <point x="179" y="-71"/>
      <point x="137" y="-172"/>
      <point x="10" y="-173" type="curve" smooth="yes"/>
      <point x="-32" y="-173"/>
      <point x="-61" y="-153"/>
    </contour>
  </outline>
</glyph>
<glyph name="K" format="1">
  <advance width="647"/>
  <unicode hex="004B"/>
  <outline>
    <contour>
      <point x="346" y="0" type="line"/>
      <point x="568" y="0" type="line"/>
      <point x="572" y="46" type="line"/>
      <point x="511" y="46"/>
      <point x="382" y="249"/>
      <point x="325" y="323" type="curve"/>
      <point x="371" y="366"/>
      <point x="486" y="473"/>
      <point x="534" y="521" type="curve" smooth="yes"/>
      <point x="559" y="545"/>
      <point x="582" y="564"/>
      <point x="613" y="563" type="curve"/>
      <point x="617" y="608" type="line"/>
      <point x="617" y="608"/>
      <point x="555" y="605"/>
      <point x="486" y="605" type="curve" smooth="yes"/>
      <point x="463" y="605"/>
      <point x="439" y="605"/>
      <point x="416" y="606" type="curve"/>
      <point x="411" y="559" type="line"/>
      <point x="448" y="561"/>
      <point x="460" y="552"/>
      <point x="460" y="541" type="curve" smooth="yes"/>
      <point x="460" y="535"/>
      <point x="457" y="529"/>
      <point x="453" y="524" type="curve"/>
      <point x="381" y="444"/>
      <point x="269" y="345"/>
      <point x="237" y="319" type="curve"/>
      <point x="242" y="294" type="line"/>
      <point x="290" y="229"/>
      <point x="377" y="116"/>
      <point x="388" y="96" type="curve" smooth="yes"/>
      <point x="395" y="84"/>
      <point x="398" y="75"/>
      <point x="398" y="68" type="curve" smooth="yes"/>
      <point x="398" y="45"/>
      <point x="369" y="43"/>
      <point x="348" y="43" type="curve"/>
    </contour>
    <contour>
      <point x="11" y="-1" type="line"/>
      <point x="252" y="0" type="line"/>
      <point x="257" y="43" type="line"/>
      <point x="217" y="40"/>
      <point x="181" y="55"/>
      <point x="185" y="109" type="curve" smooth="yes"/>
      <point x="199" y="272"/>
      <point x="220" y="404"/>
      <point x="240" y="505" type="curve" smooth="yes"/>
      <point x="250" y="553"/>
      <point x="294" y="562"/>
      <point x="333" y="562" type="curve"/>
      <point x="332" y="576"/>
      <point x="339" y="609"/>
      <point x="339" y="609" type="curve"/>
      <point x="294" y="606"/>
      <point x="250" y="605"/>
      <point x="204" y="605" type="curve" smooth="yes"/>
      <point x="167" y="605"/>
      <point x="128" y="606"/>
      <point x="87" y="608" type="curve"/>
      <point x="88" y="601"/>
      <point x="81" y="572"/>
      <point x="81" y="560" type="curve"/>
      <point x="133" y="562"/>
      <point x="151" y="543"/>
      <point x="151" y="507" type="curve" smooth="yes"/>
      <point x="151" y="501"/>
      <point x="151" y="495"/>
      <point x="150" y="489" type="curve"/>
      <point x="133" y="350"/>
      <point x="114" y="191"/>
      <point x="99" y="106" type="curve" smooth="yes"/>
      <point x="90" y="59"/>
      <point x="68" y="49"/>
      <point x="18" y="48" type="curve"/>
    </contour>
  </outline>
</glyph>
<glyph name="L" format="1">
  <advance width="487"/>
  <unicode hex="004C"/>
  <outline>
    <contour>
      <point x="2" y="0" type="line"/>
      <point x="9" y="48" type="line"/>
      <point x="57" y="49"/>
      <point x="83" y="62"/>
      <point x="94" y="112" type="curve" smooth="yes"/>
      <point x="117" y="210"/>
      <point x="137" y="372"/>
      <point x="146" y="504" type="curve" smooth="yes"/>
      <point x="148" y="540"/>
      <point x="129" y="562"/>
      <point x="76" y="562" type="curve"/>
      <point x="85" y="608" type="line"/>
      <point x="122" y="605"/>
      <point x="161" y="604"/>
      <point x="200" y="604" type="curve" smooth="yes"/>
      <point x="246" y="604"/>
      <point x="290" y="605"/>
      <point x="325" y="607" type="curve"/>
      <point x="317" y="561" type="line"/>
      <point x="264" y="561"/>
      <point x="238" y="556"/>
      <point x="229" y="511" type="curve" smooth="yes"/>
      <point x="197" y="358"/>
      <point x="171" y="150"/>
      <point x="168" y="110" type="curve" smooth="yes"/>
      <point x="166" y="84"/>
      <point x="168" y="58"/>
      <point x="195" y="55" type="curve"/>
      <point x="205" y="54"/>
      <point x="217" y="54"/>
      <point x="229" y="54" type="curve" smooth="yes"/>
      <point x="278" y="54"/>
      <point x="341" y="58"/>
      <point x="372" y="62" type="curve"/>
      <point x="390" y="91"/>
      <point x="405" y="126"/>
      <point x="412" y="155" type="curve"/>
      <point x="466" y="161" type="line"/>
      <point x="466" y="127"/>
      <point x="454" y="21"/>
      <point x="447" y="0" type="curve"/>
    </contour>
  </outline>
</glyph>
<glyph name="M" format="1">
  <advance width="834"/>
  <unicode hex="004D"/>
  <outline>
    <contour>
      <point x="2" y="-1" type="line"/>
      <point x="10" y="46" type="line"/>
      <point x="57" y="45"/>
      <point x="84" y="60"/>
      <point x="94" y="123" type="curve"/>
      <point x="111" y="207"/>
      <point x="131" y="366"/>
      <point x="144" y="490" type="curve" smooth="yes"/>
      <point x="145" y="495"/>
      <point x="145" y="499"/>
      <point x="145" y="503" type="curve" smooth="yes"/>
      <point x="145" y="553"/>
      <point x="105" y="559"/>
      <point x="64" y="559" type="curve"/>
      <point x="69" y="608" type="line"/>
      <point x="102" y="606"/>
      <point x="130" y="605"/>
      <point x="158" y="605" type="curve" smooth="yes"/>
      <point x="186" y="605"/>
      <point x="214" y="606"/>
      <point x="246" y="607" type="curve"/>
      <point x="265" y="544"/>
      <point x="359" y="321"/>
      <point x="383" y="201" type="curve" smooth="yes"/>
      <point x="386" y="187"/>
      <point x="387" y="171"/>
      <point x="387" y="154" type="curve" smooth="yes"/>
      <point x="387" y="126"/>
      <point x="384" y="96"/>
      <point x="383" y="68" type="curve"/>
      <point x="404" y="30" type="line"/>
      <point x="357" y="14" type="line"/>
      <point x="342" y="72"/>
      <point x="273" y="303"/>
      <point x="227" y="423" type="curve" smooth="yes"/>
      <point x="220" y="440"/>
      <point x="206" y="518"/>
      <point x="198" y="528" type="curve"/>
      <point x="207" y="511" type="line"/>
      <point x="182" y="373"/>
      <point x="160" y="139"/>
      <point x="160" y="106" type="curve"/>
      <point x="162" y="52"/>
      <point x="179" y="42"/>
      <point x="226" y="42" type="curve"/>
      <point x="221" y="0" type="line"/>
    </contour>
    <contour>
      <point x="360" y="56" type="line"/>
      <point x="448" y="222"/>
      <point x="594" y="518"/>
      <point x="639" y="606" type="curve"/>
      <point x="658" y="605"/>
      <point x="682" y="604"/>
      <point x="708" y="604" type="curve" smooth="yes"/>
      <point x="743" y="604"/>
      <point x="781" y="605"/>
      <point x="819" y="608" type="curve"/>
      <point x="812" y="560" type="line"/>
      <point x="766" y="560"/>
      <point x="739" y="550"/>
      <point x="730" y="489" type="curve" smooth="yes"/>
      <point x="711" y="364"/>
      <point x="693" y="200"/>
      <point x="689" y="116" type="curve" smooth="yes"/>
      <point x="685" y="52"/>
      <point x="704" y="40"/>
      <point x="759" y="42" type="curve"/>
      <point x="755" y="-1" type="line"/>
      <point x="511" y="0" type="line"/>
      <point x="516" y="46" type="line"/>
      <point x="563" y="45"/>
      <point x="591" y="52"/>
      <point x="606" y="106" type="curve" smooth="yes"/>
      <point x="616" y="141"/>
      <point x="650" y="394"/>
      <point x="657" y="532" type="curve"/>
      <point x="651" y="524"/>
      <point x="687" y="562"/>
      <point x="682" y="553" type="curve"/>
      <point x="603" y="430"/>
      <point x="502" y="220"/>
      <point x="405" y="30" type="curve"/>
    </contour>
  </outline>
</glyph>
<glyph name="N" format="1">
  <advance width="696"/>
  <unicode hex="004E"/>
  <outline>
    <contour>
      <point x="470" y="-13" type="curve"/>
      <point x="472" y="-12" type="line"/>
      <point x="511" y="-4"/>
      <point x="534" y="-3"/>
      <point x="555" y="0" type="curve"/>
      <point x="568" y="163"/>
      <point x="591" y="369"/>
      <point x="619" y="505" type="curve" smooth="yes"/>
      <point x="629" y="547"/>
      <point x="651" y="562"/>
      <point x="698" y="561" type="curve"/>
      <point x="697" y="575"/>
      <point x="705" y="609"/>
      <point x="705" y="609" type="curve"/>
      <point x="657" y="603"/>
      <point x="626" y="603"/>
      <point x="595" y="603" type="curve" smooth="yes"/>
      <point x="540" y="603"/>
      <point x="511" y="605"/>
      <point x="469" y="608" type="curve"/>
      <point x="470" y="601"/>
      <point x="461" y="572"/>
      <point x="462" y="559" type="curve"/>
      <point x="515" y="559"/>
      <point x="539" y="550"/>
      <point x="536" y="481" type="curve" smooth="yes"/>
      <point x="531" y="386"/>
      <point x="502" y="135"/>
      <point x="480" y="73" type="curve"/>
      <point x="499" y="61" type="line"/>
      <point x="489" y="80"/>
      <point x="475" y="170"/>
      <point x="457" y="202" type="curve" smooth="yes"/>
      <point x="382" y="334"/>
      <point x="286" y="535"/>
      <point x="248" y="606" type="curve"/>
      <point x="211" y="605"/>
      <point x="186" y="604"/>
      <point x="161" y="604" type="curve" smooth="yes"/>
      <point x="133" y="604"/>
      <point x="107" y="605"/>
      <point x="67" y="608" type="curve"/>
      <point x="68" y="601"/>
      <point x="59" y="572"/>
      <point x="59" y="559" type="curve"/>
      <point x="107" y="559"/>
      <point x="134" y="539"/>
      <point x="134" y="495" type="curve" smooth="yes"/>
      <point x="134" y="491"/>
      <point x="134" y="486"/>
      <point x="133" y="481" type="curve"/>
      <point x="119" y="356"/>
      <point x="100" y="207"/>
      <point x="84" y="123" type="curve" smooth="yes"/>
      <point x="72" y="60"/>
      <point x="48" y="47"/>
      <point x="-8" y="46" type="curve"/>
      <point x="-14" y="-1" type="line"/>
      <point x="221" y="0" type="line"/>
      <point x="227" y="43" type="line"/>
      <point x="188" y="43"/>
      <point x="160" y="54"/>
      <point x="159" y="107" type="curve"/>
      <point x="159" y="143"/>
      <point x="187" y="394"/>
      <point x="213" y="532" type="curve"/>
      <point x="216" y="527"/>
      <point x="195" y="552"/>
      <point x="198" y="546" type="curve"/>
      <point x="200" y="543"/>
      <point x="233" y="440"/>
      <point x="236" y="436" type="curve"/>
      <point x="323" y="291"/>
      <point x="366" y="182"/>
    </contour>
  </outline>
</glyph>
<glyph name="O" format="1">
  <advance width="614"/>
  <unicode hex="004F"/>
  <outline>
    <contour>
      <point x="245" y="-11" type="curve" smooth="yes"/>
      <point x="445" y="-11"/>
      <point x="588" y="142"/>
      <point x="588" y="389" type="curve" smooth="yes"/>
      <point x="588" y="542"/>
      <point x="501" y="611"/>
      <point x="386" y="611" type="curve" smooth="yes"/>
      <point x="198" y="611"/>
      <point x="29" y="451"/>
      <point x="29" y="211" type="curve" smooth="yes"/>
      <point x="29" y="78"/>
      <point x="109" y="-11"/>
    </contour>
    <contour>
      <point x="283" y="43" type="curve" smooth="yes"/>
      <point x="174" y="43"/>
      <point x="122" y="128"/>
      <point x="122" y="246" type="curve" smooth="yes"/>
      <point x="122" y="454"/>
      <point x="237" y="555"/>
      <point x="337" y="555" type="curve" smooth="yes"/>
      <point x="436" y="555"/>
      <point x="502" y="473"/>
      <point x="502" y="357" type="curve" smooth="yes"/>
      <point x="502" y="173"/>
      <point x="412" y="43"/>
    </contour>
  </outline>
</glyph>
<glyph name="P" format="1">
  <advance width="526"/>
  <unicode hex="0050"/>
  <outline>
    <contour>
      <point x="9" y="0" type="line"/>
      <point x="224" y="0" type="line"/>
      <point x="229" y="40" type="line"/>
      <point x="188" y="40"/>
      <point x="163" y="49"/>
      <point x="163" y="91" type="curve" smooth="yes"/>
      <point x="163" y="134"/>
      <point x="166" y="171"/>
      <point x="177" y="249" type="curve"/>
      <point x="177" y="249"/>
      <point x="223" y="243"/>
      <point x="264" y="243" type="curve" smooth="yes"/>
      <point x="402" y="245"/>
      <point x="503" y="341"/>
      <point x="503" y="477" type="curve" smooth="yes"/>
      <point x="503" y="553"/>
      <point x="448" y="608"/>
      <point x="344" y="608" type="curve" smooth="yes"/>
      <point x="257" y="608"/>
      <point x="205" y="602"/>
      <point x="136" y="602" type="curve" smooth="yes"/>
      <point x="116" y="602"/>
      <point x="96" y="603"/>
      <point x="73" y="604" type="curve"/>
      <point x="71" y="556" type="line"/>
      <point x="128" y="554"/>
      <point x="140" y="527"/>
      <point x="140" y="491" type="curve" smooth="yes"/>
      <point x="140" y="486"/>
      <point x="141" y="480"/>
      <point x="140" y="475" type="curve"/>
      <point x="131" y="353"/>
      <point x="117" y="260"/>
      <point x="90" y="97" type="curve" smooth="yes"/>
      <point x="84" y="59"/>
      <point x="67" y="43"/>
      <point x="14" y="43" type="curve"/>
    </contour>
    <contour>
      <point x="283" y="293" type="curve" smooth="yes"/>
      <point x="242" y="292"/>
      <point x="212" y="300"/>
      <point x="187" y="313" type="curve"/>
      <point x="197" y="388"/>
      <point x="206" y="493"/>
      <point x="220" y="553" type="curve"/>
      <point x="237" y="559"/>
      <point x="273" y="565"/>
      <point x="306" y="565" type="curve" smooth="yes"/>
      <point x="372" y="565"/>
      <point x="431" y="529"/>
      <point x="431" y="455" type="curve" smooth="yes"/>
      <point x="431" y="365"/>
      <point x="371" y="293"/>
    </contour>
  </outline>
</glyph>
<glyph name="Q" format="1">
  <advance width="640"/>
  <unicode hex="0051"/>
  <outline>
    <contour>
      <point x="273" y="9" type="curve"/>
      <point x="327" y="16" type="line"/>
      <point x="362" y="-65"/>
      <point x="526" y="-97"/>
      <point x="609" y="-97" type="curve" smooth="yes"/>
      <point x="697" y="-97"/>
      <point x="763" y="-73"/>
      <point x="763" y="-73" type="curve"/>
      <point x="771" y="-99" type="line"/>
      <point x="756" y="-163" type="line"/>
      <point x="707" y="-178"/>
      <point x="655" y="-182"/>
      <point x="569" y="-182" type="curve" smooth="yes"/>
      <point x="384" y="-182"/>
      <point x="288" y="-44"/>
    </contour>
    <component base="O"/>
  </outline>
</glyph>
<glyph name="S" format="1">
  <advance width="485"/>
  <unicode hex="0053"/>
  <outline>
    <contour>
      <point x="195" y="-10" type="curve" smooth="yes"/>
      <point x="354" y="-10"/>
      <point x="435" y="81"/>
      <point x="435" y="184" type="curve" smooth="yes"/>
      <point x="435" y="351"/>
      <point x="170" y="354"/>
      <point x="184" y="486" type="curve" smooth="yes"/>
      <point x="188" y="533"/>
      <point x="236" y="574"/>
      <point x="291" y="574" type="curve" smooth="yes"/>
      <point x="385" y="574"/>
      <point x="394" y="496"/>
      <point x="408" y="479" type="curve"/>
      <point x="363" y="604" type="line"/>
      <point x="363" y="604"/>
      <point x="385" y="496"/>
      <point x="382" y="458" type="curve"/>
      <point x="444" y="450" type="line"/>
      <point x="453" y="482"/>
      <point x="464" y="548"/>
      <point x="464" y="594" type="curve"/>
      <point x="464" y="594"/>
      <point x="405" y="618"/>
      <point x="319" y="618" type="curve" smooth="yes"/>
      <point x="181" y="618"/>
      <point x="111" y="533"/>
      <point x="111" y="440" type="curve" smooth="yes"/>
      <point x="111" y="281"/>
      <point x="360" y="279"/>
      <point x="360" y="157" type="curve" smooth="yes"/>
      <point x="360" y="100"/>
      <point x="313" y="44"/>
      <point x="220" y="44" type="curve" smooth="yes"/>
      <point x="133" y="44"/>
      <point x="119" y="100"/>
      <point x="93" y="135" type="curve"/>
      <point x="96" y="93"/>
      <point x="109" y="51"/>
      <point x="147" y="40" type="curve"/>
      <point x="122" y="74"/>
      <point x="117" y="117"/>
      <point x="119" y="163" type="curve"/>
      <point x="59" y="171" type="line"/>
      <point x="48" y="132"/>
      <point x="40" y="92"/>
      <point x="36" y="59" type="curve"/>
      <point x="33" y="43"/>
      <point x="33" y="29"/>
      <point x="33" y="17" type="curve"/>
      <point x="33" y="17"/>
      <point x="101" y="-10"/>
    </contour>
  </outline>
</glyph>
<glyph name="T" format="1">
  <advance width="525"/>
  <unicode hex="0054"/>
  <outline>
    <contour>
      <point x="31" y="459" type="line"/>
      <point x="40" y="495"/>
      <point x="53" y="565"/>
      <point x="59" y="608" type="curve"/>
      <point x="127" y="604"/>
      <point x="180" y="602"/>
      <point x="248" y="602" type="curve" smooth="yes"/>
      <point x="261" y="602"/>
      <point x="275" y="602"/>
      <point x="290" y="602" type="curve" smooth="yes"/>
      <point x="343" y="602"/>
      <point x="469" y="603"/>
      <point x="547" y="609" type="curve"/>
      <point x="543" y="587"/>
      <point x="519" y="458"/>
      <point x="519" y="454" type="curve"/>
      <point x="473" y="461" type="line"/>
      <point x="473" y="505"/>
      <point x="460" y="556"/>
      <point x="431" y="586" type="curve"/>
      <point x="489" y="534" type="line"/>
      <point x="442" y="551"/>
      <point x="387" y="553"/>
      <point x="336" y="553" type="curve" smooth="yes"/>
      <point x="318" y="553"/>
      <point x="301" y="553"/>
      <point x="284" y="553" type="curve" smooth="yes"/>
      <point x="215" y="553"/>
      <point x="132" y="549"/>
      <point x="104" y="550" type="curve"/>
      <point x="148" y="578" type="line"/>
      <point x="116" y="551"/>
      <point x="103" y="495"/>
      <point x="89" y="467" type="curve"/>
    </contour>
    <contour>
      <point x="87" y="0" type="line"/>
      <point x="97" y="46" type="line"/>
      <point x="150" y="48"/>
      <point x="172" y="74"/>
      <point x="180" y="111" type="curve" smooth="yes"/>
      <point x="211" y="248"/>
      <point x="233" y="427"/>
      <point x="236" y="524" type="curve" smooth="yes"/>
      <point x="238" y="557"/>
      <point x="220" y="567"/>
      <point x="197" y="567" type="curve"/>
      <point x="193" y="577" type="line"/>
      <point x="241" y="575"/>
      <point x="337" y="593"/>
      <point x="337" y="593" type="curve"/>
      <point x="298" y="435"/>
      <point x="264" y="230"/>
      <point x="259" y="98" type="curve" smooth="yes"/>
      <point x="257" y="51"/>
      <point x="299" y="48"/>
      <point x="319" y="49" type="curve"/>
      <point x="314" y="0" type="line"/>
    </contour>
  </outline>
</glyph>
<glyph name="U" format="1">
  <advance width="583"/>
  <unicode hex="0055"/>
  <outline>
    <contour>
      <point x="236" y="-13" type="curve" smooth="yes"/>
      <point x="334" y="-13"/>
      <point x="454" y="35"/>
      <point x="484" y="180" type="curve" smooth="yes"/>
      <point x="501" y="261"/>
      <point x="509" y="379"/>
      <point x="531" y="504" type="curve" smooth="yes"/>
      <point x="538" y="544"/>
      <point x="561" y="556"/>
      <point x="614" y="559" type="curve"/>
      <point x="613" y="573"/>
      <point x="614" y="608"/>
      <point x="614" y="608" type="curve"/>
      <point x="580" y="606"/>
      <point x="533" y="605"/>
      <point x="484" y="605" type="curve" smooth="yes"/>
      <point x="449" y="605"/>
      <point x="413" y="606"/>
      <point x="381" y="607" type="curve"/>
      <point x="382" y="600"/>
      <point x="382" y="575"/>
      <point x="382" y="563" type="curve"/>
      <point x="430" y="563"/>
      <point x="463" y="558"/>
      <point x="463" y="506" type="curve" smooth="yes"/>
      <point x="463" y="501"/>
      <point x="463" y="495"/>
      <point x="462" y="488" type="curve"/>
      <point x="461" y="487" type="line"/>
      <point x="451" y="391"/>
      <point x="444" y="296"/>
      <point x="426" y="203" type="curve" smooth="yes"/>
      <point x="407" y="111"/>
      <point x="352" y="53"/>
      <point x="279" y="47" type="curve"/>
      <point x="273" y="47"/>
      <point x="267" y="46"/>
      <point x="261" y="46" type="curve" smooth="yes"/>
      <point x="168" y="46"/>
      <point x="135" y="108"/>
      <point x="138" y="192" type="curve"/>
      <point x="138" y="224"/>
      <point x="159" y="383"/>
      <point x="178" y="480" type="curve" smooth="yes"/>
      <point x="188" y="531"/>
      <point x="203" y="555"/>
      <point x="280" y="559" type="curve"/>
      <point x="280" y="609" type="line"/>
      <point x="234" y="606"/>
      <point x="193" y="605"/>
      <point x="153" y="605" type="curve" smooth="yes"/>
      <point x="109" y="605"/>
      <point x="67" y="606"/>
      <point x="21" y="608" type="curve"/>
      <point x="22" y="601"/>
      <point x="21" y="572"/>
      <point x="22" y="560" type="curve"/>
      <point x="77" y="561"/>
      <point x="91" y="545"/>
      <point x="91" y="505" type="curve" smooth="yes"/>
      <point x="91" y="499"/>
      <point x="91" y="493"/>
      <point x="90" y="486" type="curve"/>
      <point x="86" y="423"/>
      <point x="59" y="271"/>
      <point x="47" y="176" type="curve"/>
      <point x="46" y="165"/>
      <point x="45" y="155"/>
      <point x="45" y="145" type="curve" smooth="yes"/>
      <point x="45" y="16"/>
      <point x="155" y="-13"/>
    </contour>
  </outline>
</glyph>
<glyph name="V" format="1">
  <advance width="628"/>
  <unicode hex="0056"/>
  <outline>
    <contour>
      <point x="42" y="607" type="line"/>
      <point x="84" y="605"/>
      <point x="131" y="604"/>
      <point x="174" y="604" type="curve" smooth="yes"/>
      <point x="218" y="604"/>
      <point x="260" y="605"/>
      <point x="291" y="607" type="curve"/>
      <point x="285" y="559" type="line"/>
      <point x="236" y="559"/>
      <point x="200" y="558"/>
      <point x="200" y="523" type="curve" smooth="yes"/>
      <point x="200" y="520"/>
      <point x="200" y="517"/>
      <point x="201" y="513" type="curve" smooth="yes"/>
      <point x="215" y="423"/>
      <point x="257" y="287"/>
      <point x="274" y="181" type="curve" smooth="yes"/>
      <point x="279" y="152"/>
      <point x="291" y="89"/>
      <point x="290" y="58" type="curve"/>
      <point x="361" y="203"/>
      <point x="478" y="449"/>
      <point x="496" y="497" type="curve" smooth="yes"/>
      <point x="500" y="509"/>
      <point x="502" y="519"/>
      <point x="502" y="527" type="curve" smooth="yes"/>
      <point x="502" y="570"/>
      <point x="453" y="569"/>
      <point x="423" y="568" type="curve"/>
      <point x="427" y="607" type="line"/>
      <point x="477" y="605"/>
      <point x="526" y="603"/>
      <point x="574" y="603" type="curve" smooth="yes"/>
      <point x="608" y="603"/>
      <point x="641" y="604"/>
      <point x="673" y="607" type="curve"/>
      <point x="668" y="561" type="line"/>
      <point x="661" y="562"/>
      <point x="655" y="562"/>
      <point x="649" y="562" type="curve" smooth="yes"/>
      <point x="603" y="562"/>
      <point x="585" y="538"/>
      <point x="568" y="504" type="curve" smooth="yes"/>
      <point x="476" y="326"/>
      <point x="383" y="143"/>
      <point x="325" y="6" type="curve"/>
      <point x="294" y="2"/>
      <point x="258" y="-8"/>
      <point x="226" y="-17" type="curve"/>
      <point x="200" y="142"/>
      <point x="169" y="305"/>
      <point x="118" y="508" type="curve"/>
      <point x="108" y="536"/>
      <point x="90" y="565"/>
      <point x="37" y="565" type="curve"/>
    </contour>
  </outline>
</glyph>
<glyph name="W" format="1">
  <advance width="928"/>
  <unicode hex="0057"/>
  <outline>
    <contour>
      <point x="540" y="-17" type="curve"/>
      <point x="567" y="-8"/>
      <point x="594" y="2"/>
      <point x="621" y="6" type="curve"/>
      <point x="680" y="143"/>
      <point x="758" y="325"/>
      <point x="836" y="502" type="curve" smooth="yes"/>
      <point x="851" y="537"/>
      <point x="870" y="560"/>
      <point x="917" y="560" type="curve" smooth="yes"/>
      <point x="923" y="560"/>
      <point x="929" y="560"/>
      <point x="936" y="559" type="curve"/>
      <point x="941" y="606" type="line"/>
      <point x="705" y="606" type="line"/>
      <point x="700" y="562" type="line"/>
      <point x="748" y="563"/>
      <point x="779" y="548"/>
      <point x="779" y="514" type="curve" smooth="yes"/>
      <point x="779" y="507"/>
      <point x="777" y="499"/>
      <point x="775" y="491" type="curve" smooth="yes"/>
      <point x="762" y="440"/>
      <point x="657" y="213"/>
      <point x="591" y="53" type="curve"/>
      <point x="587" y="84"/>
      <point x="581" y="142"/>
      <point x="578" y="171" type="curve"/>
      <point x="559" y="281"/>
      <point x="531" y="416"/>
      <point x="518" y="511" type="curve" smooth="yes"/>
      <point x="513" y="560"/>
      <point x="549" y="562"/>
      <point x="599" y="561" type="curve"/>
      <point x="605" y="606" type="line"/>
      <point x="372" y="606" type="line"/>
      <point x="366" y="564" type="line"/>
      <point x="371" y="565"/>
      <point x="375" y="565"/>
      <point x="380" y="565" type="curve" smooth="yes"/>
      <point x="425" y="565"/>
      <point x="435" y="524"/>
      <point x="443" y="492" type="curve" smooth="yes"/>
      <point x="495" y="295"/>
      <point x="514" y="138"/>
    </contour>
    <contour>
      <point x="191" y="-17" type="curve"/>
      <point x="219" y="-8"/>
      <point x="254" y="2"/>
      <point x="282" y="6" type="curve"/>
      <point x="336" y="143"/>
      <point x="431" y="325"/>
      <point x="509" y="502" type="curve"/>
      <point x="449" y="484" type="line"/>
      <point x="432" y="436"/>
      <point x="322" y="217"/>
      <point x="255" y="65" type="curve"/>
      <point x="252" y="91"/>
      <point x="240" y="164"/>
      <point x="237" y="182" type="curve" smooth="yes"/>
      <point x="218" y="292"/>
      <point x="192" y="416"/>
      <point x="177" y="511" type="curve"/>
      <point x="177" y="514"/>
      <point x="176" y="517"/>
      <point x="176" y="520" type="curve" smooth="yes"/>
      <point x="176" y="556"/>
      <point x="211" y="558"/>
      <point x="255" y="557" type="curve"/>
      <point x="261" y="607" type="line"/>
      <point x="232" y="605"/>
      <point x="196" y="604"/>
      <point x="159" y="604" type="curve" smooth="yes"/>
      <point x="117" y="604"/>
      <point x="73" y="605"/>
      <point x="34" y="607" type="curve"/>
      <point x="28" y="557" type="line"/>
      <point x="81" y="559"/>
      <point x="93" y="527"/>
      <point x="101" y="492" type="curve" smooth="yes"/>
      <point x="147" y="294"/>
      <point x="163" y="138"/>
    </contour>
  </outline>
</glyph>
<glyph name="X" format="1">
  <advance width="613"/>
  <unicode hex="0058"/>
  <outline>
    <contour>
      <point x="-13" y="1" type="line"/>
      <point x="227" y="1" type="line"/>
      <point x="234" y="46" type="line"/>
      <point x="197" y="46"/>
      <point x="185" y="58"/>
      <point x="185" y="74" type="curve" smooth="yes"/>
      <point x="185" y="89"/>
      <point x="195" y="107"/>
      <point x="206" y="124" type="curve" smooth="yes"/>
      <point x="244" y="179"/>
      <point x="293" y="245"/>
      <point x="340" y="290" type="curve"/>
      <point x="340" y="298" type="line"/>
      <point x="372" y="337"/>
      <point x="442" y="418"/>
      <point x="490" y="473" type="curve" smooth="yes"/>
      <point x="537" y="528"/>
      <point x="573" y="554"/>
      <point x="633" y="554" type="curve"/>
      <point x="640" y="606" type="line"/>
      <point x="607" y="603"/>
      <point x="570" y="602"/>
      <point x="533" y="602" type="curve" smooth="yes"/>
      <point x="495" y="602"/>
      <point x="457" y="603"/>
      <point x="420" y="606" type="curve"/>
      <point x="412" y="553" type="line"/>
      <point x="444" y="553"/>
      <point x="459" y="550"/>
      <point x="459" y="538" type="curve" smooth="yes"/>
      <point x="459" y="529"/>
      <point x="451" y="516"/>
      <point x="436" y="496" type="curve" smooth="yes"/>
      <point x="411" y="464"/>
      <point x="353" y="393"/>
      <point x="316" y="344" type="curve"/>
      <point x="292" y="322" type="line"/>
      <point x="244" y="258"/>
      <point x="160" y="150"/>
      <point x="122" y="112" type="curve" smooth="yes"/>
      <point x="90" y="80"/>
      <point x="61" y="50"/>
      <point x="-5" y="50" type="curve"/>
    </contour>
    <contour>
      <point x="296" y="1" type="line"/>
      <point x="562" y="1" type="line"/>
      <point x="571" y="45" type="line"/>
      <point x="469" y="48"/>
      <point x="360" y="294"/>
      <point x="337" y="335" type="curve"/>
      <point x="331" y="334" type="line"/>
      <point x="325" y="344"/>
      <point x="283" y="435"/>
      <point x="256" y="494" type="curve" smooth="yes"/>
      <point x="251" y="505"/>
      <point x="248" y="516"/>
      <point x="248" y="524" type="curve" smooth="yes"/>
      <point x="248" y="544"/>
      <point x="265" y="556"/>
      <point x="320" y="557" type="curve"/>
      <point x="325" y="606" type="line"/>
      <point x="284" y="603"/>
      <point x="243" y="601"/>
      <point x="198" y="601" type="curve" smooth="yes"/>
      <point x="160" y="601"/>
      <point x="119" y="602"/>
      <point x="75" y="606" type="curve"/>
      <point x="68" y="556" type="line"/>
      <point x="116" y="556"/>
      <point x="144" y="537"/>
      <point x="176" y="473" type="curve" smooth="yes"/>
      <point x="214" y="397"/>
      <point x="243" y="345"/>
      <point x="269" y="287" type="curve"/>
      <point x="285" y="268" type="line"/>
      <point x="306" y="224"/>
      <point x="352" y="154"/>
      <point x="372" y="109" type="curve" smooth="yes"/>
      <point x="376" y="100"/>
      <point x="377" y="92"/>
      <point x="377" y="85" type="curve" smooth="yes"/>
      <point x="377" y="53"/>
      <point x="337" y="48"/>
      <point x="301" y="47" type="curve"/>
    </contour>
  </outline>
</glyph>
<glyph name="Y" format="1">
  <advance width="489"/>
  <unicode hex="0059"/>
  <outline>
    <contour>
      <point x="207" y="228" type="curve"/>
      <point x="233" y="236"/>
      <point x="256" y="242"/>
      <point x="278" y="245" type="curve"/>
      <point x="314" y="306"/>
      <point x="378" y="384"/>
      <point x="465" y="503" type="curve" smooth="yes"/>
      <point x="492" y="540"/>
      <point x="517" y="559"/>
      <point x="562" y="561" type="curve"/>
      <point x="565" y="605" type="line"/>
      <point x="524" y="603"/>
      <point x="483" y="602"/>
      <point x="442" y="602" type="curve" smooth="yes"/>
      <point x="409" y="602"/>
      <point x="377" y="603"/>
      <point x="345" y="605" type="curve"/>
      <point x="340" y="557" type="line"/>
      <point x="379" y="559"/>
      <point x="410" y="553"/>
      <point x="410" y="531" type="curve" smooth="yes"/>
      <point x="410" y="524"/>
      <point x="408" y="515"/>
      <point x="401" y="505" type="curve" smooth="yes"/>
      <point x="347" y="423"/>
      <point x="293" y="347"/>
      <point x="253" y="293" type="curve"/>
      <point x="236" y="371" type="line"/>
      <point x="215" y="420"/>
      <point x="198" y="472"/>
      <point x="185" y="509" type="curve"/>
      <point x="181" y="519"/>
      <point x="179" y="526"/>
      <point x="179" y="533" type="curve" smooth="yes"/>
      <point x="179" y="554"/>
      <point x="200" y="560"/>
      <point x="245" y="564" type="curve"/>
      <point x="245" y="605" type="line"/>
      <point x="195" y="604"/>
      <point x="155" y="603"/>
      <point x="114" y="603" type="curve" smooth="yes"/>
      <point x="83" y="603"/>
      <point x="52" y="603"/>
      <point x="16" y="605" type="curve"/>
      <point x="11" y="561" type="line"/>
      <point x="46" y="562"/>
      <point x="74" y="555"/>
      <point x="94" y="508" type="curve" smooth="yes"/>
      <point x="154" y="365"/>
      <point x="175" y="306"/>
    </contour>
    <contour>
      <point x="90" y="-1" type="line"/>
      <point x="322" y="0" type="line"/>
      <point x="327" y="43" type="line"/>
      <point x="278" y="47"/>
      <point x="266" y="55"/>
      <point x="266" y="118" type="curve" smooth="yes"/>
      <point x="266" y="156"/>
      <point x="273" y="210"/>
      <point x="296" y="293" type="curve"/>
      <point x="203" y="283" type="line"/>
      <point x="202" y="189"/>
      <point x="192" y="145"/>
      <point x="182" y="106" type="curve" smooth="yes"/>
      <point x="172" y="67"/>
      <point x="151" y="47"/>
      <point x="97" y="43" type="curve"/>
    </contour>
  </outline>
</glyph>
<glyph name="Z" format="1">
  <advance width="557"/>
  <unicode hex="005A"/>
  <outline>
    <contour>
      <point x="-4" y="0" type="curve"/>
      <point x="483" y="0" type="line"/>
      <point x="487" y="21"/>
      <point x="502" y="158"/>
      <point x="501" y="161" type="curve"/>
      <point x="445" y="155" type="line"/>
      <point x="438" y="126"/>
      <point x="426" y="89"/>
      <point x="408" y="60" type="curve"/>
      <point x="372" y="55"/>
      <point x="282" y="55"/>
      <point x="220" y="55" type="curve" smooth="yes"/>
      <point x="177" y="56"/>
      <point x="112" y="65"/>
      <point x="92" y="87" type="curve"/>
      <point x="118" y="43" type="line"/>
      <point x="134" y="56"/>
      <point x="462" y="511"/>
      <point x="536" y="562" type="curve"/>
      <point x="536" y="608" type="line"/>
      <point x="503" y="605"/>
      <point x="446" y="605"/>
      <point x="392" y="605" type="curve" smooth="yes"/>
      <point x="277" y="605" type="line" smooth="yes"/>
      <point x="211" y="605"/>
      <point x="125" y="610"/>
      <point x="90" y="609" type="curve"/>
      <point x="87" y="587"/>
      <point x="73" y="450"/>
      <point x="74" y="447" type="curve"/>
      <point x="130" y="453" type="line"/>
      <point x="138" y="484"/>
      <point x="150" y="522"/>
      <point x="172" y="553" type="curve"/>
      <point x="216" y="556"/>
      <point x="315" y="557"/>
      <point x="371" y="557" type="curve" smooth="yes"/>
      <point x="394" y="557"/>
      <point x="401" y="553"/>
      <point x="401" y="548" type="curve" smooth="yes"/>
      <point x="401" y="544"/>
      <point x="398" y="539"/>
      <point x="394" y="534" type="curve" smooth="yes"/>
      <point x="302" y="412"/>
      <point x="77" y="105"/>
      <point x="-1" y="54" type="curve"/>
      <point x="-3" y="45"/>
      <point x="-3" y="34"/>
      <point x="-3" y="24" type="curve" smooth="yes"/>
      <point x="-3" y="14"/>
      <point x="-3" y="6"/>
    </contour>
  </outline>
</glyph>
<glyph name="a" format="1">
  <advance width="484"/>
  <unicode hex="0061"/>
  <outline>
    <contour>
      <point x="356" y="-14" type="curve" smooth="yes"/>
      <point x="405" y="-14"/>
      <point x="444" y="3"/>
      <point x="466" y="17" type="curve"/>
      <point x="468" y="21"/>
      <point x="469" y="26"/>
      <point x="469" y="32" type="curve" smooth="yes"/>
      <point x="469" y="36"/>
      <point x="469" y="41"/>
      <point x="468" y="46" type="curve"/>
      <point x="460" y="45"/>
      <point x="451" y="44"/>
      <point x="444" y="44" type="curve" smooth="yes"/>
      <point x="384" y="44"/>
      <point x="369" y="71"/>
      <point x="369" y="121" type="curve" smooth="yes"/>
      <point x="372" y="243"/>
      <point x="421" y="391"/>
      <point x="437" y="449" type="curve"/>
      <point x="426" y="464" type="line"/>
      <point x="420" y="464" type="line" smooth="yes"/>
      <point x="179" y="464"/>
      <point x="16" y="280"/>
      <point x="16" y="103" type="curve" smooth="yes"/>
      <point x="16" y="48"/>
      <point x="46" y="-11"/>
      <point x="118" y="-11" type="curve" smooth="yes"/>
      <point x="254" y="-11"/>
      <point x="331" y="194"/>
      <point x="331" y="194" type="curve"/>
      <point x="327" y="255" type="line"/>
      <point x="312" y="197"/>
      <point x="240" y="63"/>
      <point x="154" y="63" type="curve" smooth="yes"/>
      <point x="113" y="63"/>
      <point x="94" y="97"/>
      <point x="94" y="136" type="curve" smooth="yes"/>
      <point x="94" y="242"/>
      <point x="183" y="397"/>
      <point x="297" y="397" type="curve" smooth="yes"/>
      <point x="357" y="397"/>
      <point x="391" y="357"/>
      <point x="394" y="353" type="curve"/>
      <point x="425" y="439" type="line"/>
      <point x="419" y="438"/>
      <point x="410" y="437"/>
      <point x="404" y="437" type="curve" smooth="yes"/>
      <point x="399" y="437"/>
      <point x="397" y="438"/>
      <point x="397" y="438" type="curve"/>
      <point x="353" y="454" type="line"/>
      <point x="350" y="366"/>
      <point x="327" y="261"/>
      <point x="312" y="187" type="curve"/>
      <point x="322" y="178" type="line"/>
      <point x="310" y="133"/>
      <point x="296" y="79"/>
      <point x="296" y="45" type="curve" smooth="yes"/>
      <point x="296" y="12"/>
      <point x="312" y="-14"/>
    </contour>
    <contour>
      <point x="329" y="522" type="move" name="top"/>
    </contour>
  </outline>
</glyph>
<glyph name="b" format="1">
  <advance width="482"/>
  <unicode hex="0062"/>
  <outline>
    <contour>
      <point x="47" y="4" type="curve"/>
      <point x="61" y="-11" type="line"/>
      <point x="74" y="-11"/>
      <point x="87" y="-12"/>
      <point x="100" y="-12" type="curve" smooth="yes"/>
      <point x="338" y="-12"/>
      <point x="463" y="191"/>
      <point x="463" y="336" type="curve" smooth="yes"/>
      <point x="463" y="417"/>
      <point x="422" y="467"/>
      <point x="353" y="467" type="curve" smooth="yes"/>
      <point x="237" y="467"/>
      <point x="154" y="308"/>
      <point x="138" y="225" type="curve"/>
      <point x="148" y="186" type="line"/>
      <point x="163" y="266"/>
      <point x="241" y="395"/>
      <point x="315" y="395" type="curve" smooth="yes"/>
      <point x="362" y="395"/>
      <point x="384" y="362"/>
      <point x="384" y="306" type="curve" smooth="yes"/>
      <point x="384" y="212"/>
      <point x="319" y="65"/>
      <point x="220" y="56" type="curve" smooth="yes"/>
      <point x="212" y="55"/>
      <point x="204" y="55"/>
      <point x="197" y="55" type="curve" smooth="yes"/>
      <point x="132" y="55"/>
      <point x="107" y="81"/>
      <point x="107" y="81" type="curve"/>
      <point x="60" y="-9" type="line"/>
      <point x="93" y="-5"/>
      <point x="109" y="0"/>
      <point x="140" y="0" type="curve"/>
      <point x="139" y="14"/>
      <point x="139" y="29"/>
      <point x="139" y="43" type="curve" smooth="yes"/>
      <point x="139" y="120"/>
      <point x="148" y="185"/>
      <point x="153" y="232" type="curve"/>
      <point x="153" y="271" type="line"/>
      <point x="162" y="301"/>
      <point x="173" y="334"/>
      <point x="181" y="370" type="curve" smooth="yes"/>
      <point x="203" y="483"/>
      <point x="224" y="569"/>
      <point x="249" y="646" type="curve"/>
      <point x="238" y="662" type="line"/>
      <point x="194" y="651"/>
      <point x="125" y="632"/>
      <point x="61" y="632" type="curve"/>
      <point x="55" y="620"/>
      <point x="52" y="612"/>
      <point x="52" y="602" type="curve"/>
      <point x="122" y="602"/>
      <point x="144" y="594"/>
      <point x="144" y="526" type="curve" smooth="yes"/>
      <point x="144" y="443"/>
      <point x="91" y="163"/>
    </contour>
    <contour>
      <point x="329" y="522" type="move" name="top"/>
    </contour>
  </outline>
</glyph>
<glyph name="c" format="1">
  <advance width="386"/>
  <unicode hex="0063"/>
  <outline>
    <contour>
      <point x="180" y="-14" type="curve" smooth="yes"/>
      <point x="264" y="-14"/>
      <point x="314" y="33"/>
      <point x="334" y="52" type="curve"/>
      <point x="334" y="62"/>
      <point x="331" y="73"/>
      <point x="323" y="79" type="curve"/>
      <point x="322" y="79"/>
      <point x="277" y="46"/>
      <point x="215" y="46" type="curve" smooth="yes"/>
      <point x="138" y="46"/>
      <point x="110" y="105"/>
      <point x="110" y="169" type="curve" smooth="yes"/>
      <point x="110" y="291"/>
      <point x="200" y="394"/>
      <point x="284" y="394" type="curve" smooth="yes"/>
      <point x="326" y="394"/>
      <point x="353" y="375"/>
      <point x="375" y="347" type="curve"/>
      <point x="385" y="378"/>
      <point x="394" y="420"/>
      <point x="398" y="452" type="curve"/>
      <point x="390" y="464" type="line"/>
      <point x="213" y="454"/>
      <point x="33" y="334"/>
      <point x="33" y="133" type="curve" smooth="yes"/>
      <point x="33" y="52"/>
      <point x="70" y="-14"/>
    </contour>
    <contour>
      <point x="289" y="512" type="move" name="top"/>
    </contour>
  </outline>
</glyph>
<glyph name="d" format="1">
  <advance width="515"/>
  <unicode hex="0064"/>
  <outline>
    <contour>
      <point x="29" y="119" type="curve" smooth="yes"/>
      <point x="29" y="277"/>
      <point x="151" y="467"/>
      <point x="385" y="467" type="curve" smooth="yes"/>
      <point x="397" y="467"/>
      <point x="408" y="466"/>
      <point x="420" y="465" type="curve"/>
      <point x="378" y="369" type="line"/>
      <point x="378" y="369"/>
      <point x="349" y="412"/>
      <point x="289" y="412" type="curve" smooth="yes"/>
      <point x="176" y="412"/>
      <point x="112" y="255"/>
      <point x="112" y="152" type="curve" smooth="yes"/>
      <point x="112" y="103"/>
      <point x="128" y="58"/>
      <point x="178" y="58" type="curve" smooth="yes"/>
      <point x="269" y="58"/>
      <point x="334" y="224"/>
      <point x="343" y="268" type="curve"/>
      <point x="349" y="201" type="line"/>
      <point x="321" y="122"/>
      <point x="257" y="-14"/>
      <point x="142" y="-14" type="curve" smooth="yes"/>
      <point x="54" y="-14"/>
      <point x="29" y="53"/>
    </contour>
    <contour>
      <point x="290" y="602" type="curve"/>
      <point x="289" y="608"/>
      <point x="292" y="622"/>
      <point x="297" y="632" type="curve"/>
      <point x="367" y="632"/>
      <point x="468" y="662"/>
      <point x="470" y="662" type="curve"/>
      <point x="480" y="645" type="line"/>
      <point x="471" y="615"/>
      <point x="463" y="579"/>
      <point x="451" y="518" type="curve" smooth="yes"/>
      <point x="426" y="387"/>
      <point x="395" y="228"/>
      <point x="395" y="112" type="curve" smooth="yes"/>
      <point x="395" y="58"/>
      <point x="418" y="40"/>
      <point x="470" y="40" type="curve" smooth="yes"/>
      <point x="477" y="40"/>
      <point x="486" y="40"/>
      <point x="494" y="41" type="curve"/>
      <point x="495" y="36"/>
      <point x="495" y="32"/>
      <point x="495" y="27" type="curve" smooth="yes"/>
      <point x="495" y="22"/>
      <point x="494" y="17"/>
      <point x="492" y="12" type="curve"/>
      <point x="470" y="-2"/>
      <point x="431" y="-18"/>
      <point x="382" y="-18" type="curve" smooth="yes"/>
      <point x="337" y="-18"/>
      <point x="318" y="11"/>
      <point x="318" y="47" type="curve" smooth="yes"/>
      <point x="318" y="83"/>
      <point x="334" y="147"/>
      <point x="340" y="182" type="curve"/>
      <point x="331" y="205" type="line"/>
      <point x="340" y="249"/>
      <point x="381" y="477"/>
      <point x="381" y="530" type="curve" smooth="yes"/>
      <point x="381" y="598"/>
      <point x="353" y="602"/>
    </contour>
    <contour>
      <point x="229" y="522" type="move" name="top"/>
    </contour>
  </outline>
</glyph>
<glyph name="e" format="1">
  <advance width="416"/>
  <unicode hex="0065"/>
  <outline>
    <contour>
      <point x="170" y="-12" type="curve" smooth="yes"/>
      <point x="262" y="-12"/>
      <point x="317" y="33"/>
      <point x="334" y="51" type="curve"/>
      <point x="334" y="61"/>
      <point x="328" y="72"/>
      <point x="321" y="76" type="curve"/>
      <point x="296" y="61"/>
      <point x="271" y="46"/>
      <point x="217" y="46" type="curve" smooth="yes"/>
      <point x="125" y="46"/>
      <point x="101" y="107"/>
      <point x="101" y="175" type="curve" smooth="yes"/>
      <point x="101" y="279"/>
      <point x="188" y="419"/>
      <point x="282" y="419" type="curve" smooth="yes"/>
      <point x="321" y="419"/>
      <point x="332" y="395"/>
      <point x="332" y="365" type="curve" smooth="yes"/>
      <point x="332" y="289"/>
      <point x="238" y="245"/>
      <point x="99" y="245" type="curve"/>
      <point x="90" y="200" type="line"/>
      <point x="234" y="202"/>
      <point x="399" y="264"/>
      <point x="399" y="379" type="curve" smooth="yes"/>
      <point x="399" y="427"/>
      <point x="370" y="461"/>
      <point x="299" y="461" type="curve" smooth="yes"/>
      <point x="171" y="461"/>
      <point x="26" y="313"/>
      <point x="26" y="131" type="curve" smooth="yes"/>
      <point x="26" y="40"/>
      <point x="70" y="-12"/>
    </contour>
    <contour>
      <point x="309" y="512" type="move" name="top"/>
    </contour>
  </outline>
</glyph>
<glyph name="g" format="1">
  <advance width="482"/>
  <unicode hex="0067"/>
  <outline>
    <contour>
      <point x="81" y="-200" type="curve" smooth="yes"/>
      <point x="238" y="-200"/>
      <point x="364" y="-125"/>
      <point x="364" y="-25" type="curve" smooth="yes"/>
      <point x="364" y="89"/>
      <point x="127" y="68"/>
      <point x="127" y="131" type="curve" smooth="yes"/>
      <point x="127" y="168"/>
      <point x="224" y="192"/>
      <point x="270" y="212" type="curve"/>
      <point x="242" y="230" type="line"/>
      <point x="188" y="214"/>
      <point x="55" y="181"/>
      <point x="55" y="100" type="curve" smooth="yes"/>
      <point x="55" y="8"/>
      <point x="290" y="30"/>
      <point x="290" y="-54" type="curve" smooth="yes"/>
      <point x="290" y="-114"/>
      <point x="214" y="-140"/>
      <point x="140" y="-140" type="curve" smooth="yes"/>
      <point x="62" y="-140"/>
      <point x="-8" y="-109"/>
      <point x="-36" y="-69" type="curve"/>
      <point x="-46" y="-97"/>
      <point x="-60" y="-125"/>
      <point x="-64" y="-161" type="curve"/>
      <point x="-55" y="-177" type="line"/>
      <point x="-21" y="-192"/>
      <point x="27" y="-200"/>
    </contour>
    <contour>
      <point x="148" y="186" type="curve" smooth="yes"/>
      <point x="258" y="186"/>
      <point x="389" y="252"/>
      <point x="389" y="367" type="curve" smooth="yes"/>
      <point x="389" y="436"/>
      <point x="331" y="469"/>
      <point x="259" y="469" type="curve" smooth="yes"/>
      <point x="162" y="469"/>
      <point x="30" y="397"/>
      <point x="30" y="280" type="curve" smooth="yes"/>
      <point x="30" y="225"/>
      <point x="82" y="186"/>
    </contour>
    <contour>
      <point x="186" y="226" type="curve" smooth="yes"/>
      <point x="138" y="226"/>
      <point x="111" y="258"/>
      <point x="111" y="303" type="curve" smooth="yes"/>
      <point x="111" y="385"/>
      <point x="180" y="432"/>
      <point x="233" y="432" type="curve" smooth="yes"/>
      <point x="291" y="432"/>
      <point x="311" y="401"/>
      <point x="311" y="359" type="curve" smooth="yes"/>
      <point x="311" y="287"/>
      <point x="260" y="226"/>
    </contour>
    <contour>
      <point x="353" y="369" type="line"/>
      <point x="390" y="370"/>
      <point x="457" y="374"/>
      <point x="502" y="375" type="curve"/>
      <point x="508" y="402"/>
      <point x="514" y="430"/>
      <point x="519" y="466" type="curve"/>
      <point x="508" y="476" type="line"/>
      <point x="455" y="436"/>
      <point x="388" y="389"/>
      <point x="353" y="381" type="curve"/>
    </contour>
    <contour>
      <point x="279" y="522" type="move" name="top"/>
    </contour>
  </outline>
</glyph>
<glyph name="h" format="1">
  <advance width="499"/>
  <unicode hex="0068"/>
  <outline>
    <contour>
      <point x="352" y="-18" type="curve" smooth="yes"/>
      <point x="397" y="-18"/>
      <point x="448" y="-2"/>
      <point x="476" y="15" type="curve"/>
      <point x="478" y="21"/>
      <point x="480" y="27"/>
      <point x="480" y="33" type="curve" smooth="yes"/>
      <point x="480" y="36"/>
      <point x="479" y="40"/>
      <point x="478" y="44" type="curve"/>
      <point x="464" y="42"/>
      <point x="452" y="40"/>
      <point x="441" y="40" type="curve" smooth="yes"/>
      <point x="403" y="40"/>
      <point x="383" y="55"/>
      <point x="383" y="100" type="curve" smooth="yes"/>
      <point x="383" y="182"/>
      <point x="441" y="327"/>
      <point x="441" y="400" type="curve" smooth="yes"/>
      <point x="441" y="445"/>
      <point x="415" y="464"/>
      <point x="376" y="464" type="curve" smooth="yes"/>
      <point x="288" y="464"/>
      <point x="160" y="347"/>
      <point x="109" y="163" type="curve"/>
      <point x="134" y="156" type="line"/>
      <point x="145" y="234"/>
      <point x="250" y="389"/>
      <point x="330" y="389" type="curve" smooth="yes"/>
      <point x="355" y="389"/>
      <point x="369" y="374"/>
      <point x="368" y="336" type="curve" smooth="yes"/>
      <point x="363" y="211"/>
      <point x="301" y="90"/>
      <point x="293" y="44" type="curve" smooth="yes"/>
      <point x="292" y="39"/>
      <point x="292" y="34"/>
      <point x="292" y="29" type="curve" smooth="yes"/>
      <point x="292" y="-3"/>
      <point x="313" y="-18"/>
    </contour>
    <contour>
      <point x="33" y="-14" type="curve"/>
      <point x="128" y="0" type="line"/>
      <point x="128" y="84"/>
      <point x="130" y="151"/>
      <point x="146" y="221" type="curve" smooth="yes"/>
      <point x="155" y="263"/>
      <point x="192" y="463"/>
      <point x="203" y="518" type="curve" smooth="yes"/>
      <point x="215" y="578"/>
      <point x="228" y="615"/>
      <point x="236" y="645" type="curve"/>
      <point x="226" y="661" type="line"/>
      <point x="225" y="661"/>
      <point x="128" y="632"/>
      <point x="59" y="632" type="curve"/>
      <point x="53" y="625"/>
      <point x="51" y="610"/>
      <point x="51" y="602" type="curve"/>
      <point x="116" y="602"/>
      <point x="138" y="591"/>
      <point x="138" y="550" type="curve" smooth="yes"/>
      <point x="138" y="442"/>
      <point x="74" y="148"/>
      <point x="19" y="-4" type="curve"/>
      <point x="24" y="-7"/>
      <point x="28" y="-11"/>
    </contour>
    <contour>
      <point x="339" y="522" type="move" name="top"/>
    </contour>
  </outline>
</glyph>
<glyph name="l" format="1">
  <advance width="266"/>
  <unicode hex="006C"/>
  <outline>
    <contour>
      <point x="124" y="-18" type="curve" smooth="yes"/>
      <point x="173" y="-18"/>
      <point x="214" y="-2"/>
      <point x="236" y="12" type="curve"/>
      <point x="239" y="17"/>
      <point x="240" y="23"/>
      <point x="240" y="30" type="curve" smooth="yes"/>
      <point x="240" y="33"/>
      <point x="239" y="37"/>
      <point x="239" y="41" type="curve"/>
      <point x="230" y="40"/>
      <point x="222" y="40"/>
      <point x="214" y="40" type="curve" smooth="yes"/>
      <point x="154" y="40"/>
      <point x="138" y="59"/>
      <point x="138" y="106" type="curve" smooth="yes"/>
      <point x="139" y="252"/>
      <point x="208" y="513"/>
      <point x="244" y="646" type="curve"/>
      <point x="234" y="662" type="line"/>
      <point x="233" y="662"/>
      <point x="123" y="632"/>
      <point x="62" y="632" type="curve"/>
      <point x="59" y="625"/>
      <point x="55" y="614"/>
      <point x="55" y="606" type="curve" smooth="yes"/>
      <point x="55" y="602" type="line"/>
      <point x="119" y="602"/>
      <point x="144" y="599"/>
      <point x="141" y="538" type="curve" smooth="yes"/>
      <point x="133" y="393"/>
      <point x="55" y="133"/>
      <point x="55" y="53" type="curve" smooth="yes"/>
      <point x="55" y="14"/>
      <point x="78" y="-18"/>
    </contour>
  </outline>
</glyph>
<glyph name="m" format="1">
  <advance width="805"/>
  <unicode hex="006D"/>
  <outline>
    <contour>
      <point x="142" y="163" type="line"/>
      <point x="193" y="353"/>
      <point x="315" y="464"/>
      <point x="399" y="464" type="curve" smooth="yes"/>
      <point x="440" y="464"/>
      <point x="466" y="442"/>
      <point x="466" y="396" type="curve" smooth="yes"/>
      <point x="466" y="323"/>
      <point x="408" y="180"/>
      <point x="408" y="98" type="curve" smooth="yes"/>
      <point x="408" y="54"/>
      <point x="422" y="38"/>
      <point x="457" y="38" type="curve" smooth="yes"/>
      <point x="467" y="38"/>
      <point x="478" y="40"/>
      <point x="492" y="42" type="curve"/>
      <point x="493" y="39"/>
      <point x="493" y="36"/>
      <point x="493" y="33" type="curve" smooth="yes"/>
      <point x="493" y="26"/>
      <point x="491" y="19"/>
      <point x="489" y="13" type="curve"/>
      <point x="462" y="-4"/>
      <point x="427" y="-18"/>
      <point x="384" y="-18" type="curve" smooth="yes"/>
      <point x="346" y="-18"/>
      <point x="325" y="-3"/>
      <point x="325" y="28" type="curve" smooth="yes"/>
      <point x="325" y="33"/>
      <point x="326" y="38"/>
      <point x="327" y="44" type="curve" smooth="yes"/>
      <point x="335" y="90"/>
      <point x="394" y="223"/>
      <point x="397" y="343" type="curve" smooth="yes"/>
      <point x="398" y="381"/>
      <point x="382" y="396"/>
      <point x="357" y="396" type="curve" smooth="yes"/>
      <point x="276" y="396"/>
      <point x="179" y="234"/>
      <point x="167" y="156" type="curve"/>
    </contour>
    <contour>
      <point x="390" y="163" type="line"/>
      <point x="444" y="361"/>
      <point x="563" y="464"/>
      <point x="647" y="464" type="curve" smooth="yes"/>
      <point x="688" y="464"/>
      <point x="714" y="443"/>
      <point x="714" y="398" type="curve" smooth="yes"/>
      <point x="714" y="326"/>
      <point x="656" y="185"/>
      <point x="656" y="101" type="curve" smooth="yes"/>
      <point x="656" y="55"/>
      <point x="675" y="38"/>
      <point x="712" y="38" type="curve" smooth="yes"/>
      <point x="722" y="38"/>
      <point x="734" y="40"/>
      <point x="748" y="42" type="curve"/>
      <point x="749" y="39"/>
      <point x="749" y="35"/>
      <point x="749" y="31" type="curve" smooth="yes"/>
      <point x="749" y="25"/>
      <point x="748" y="18"/>
      <point x="746" y="13" type="curve"/>
      <point x="718" y="-4"/>
      <point x="675" y="-18"/>
      <point x="631" y="-18" type="curve" smooth="yes"/>
      <point x="592" y="-18"/>
      <point x="571" y="-3"/>
      <point x="571" y="29" type="curve" smooth="yes"/>
      <point x="571" y="34"/>
      <point x="571" y="39"/>
      <point x="572" y="44" type="curve" smooth="yes"/>
      <point x="580" y="90"/>
      <point x="645" y="225"/>
      <point x="645" y="347" type="curve" smooth="yes"/>
      <point x="645" y="382"/>
      <point x="630" y="396"/>
      <point x="605" y="396" type="curve" smooth="yes"/>
      <point x="525" y="396"/>
      <point x="426" y="234"/>
      <point x="415" y="156" type="curve"/>
    </contour>
    <contour>
      <point x="45" y="411" type="curve"/>
      <point x="45" y="421"/>
      <point x="49" y="436"/>
      <point x="52" y="442" type="curve"/>
      <point x="123" y="442"/>
      <point x="215" y="464"/>
      <point x="217" y="464" type="curve"/>
      <point x="227" y="451" type="line"/>
      <point x="214" y="400"/>
      <point x="184" y="285"/>
      <point x="168" y="220" type="curve"/>
      <point x="180" y="220" type="line"/>
      <point x="166" y="146"/>
      <point x="154" y="95"/>
      <point x="156" y="-2" type="curve"/>
      <point x="130" y="-5"/>
      <point x="87" y="-11"/>
      <point x="65" y="-13" type="curve"/>
      <point x="56" y="-2" type="line"/>
      <point x="78" y="58"/>
      <point x="106" y="134"/>
      <point x="122" y="219" type="curve" smooth="yes"/>
      <point x="132" y="274"/>
      <point x="138" y="313"/>
      <point x="138" y="342" type="curve" smooth="yes"/>
      <point x="138" y="399"/>
      <point x="113" y="411"/>
    </contour>
    <contour>
      <point x="429" y="522" type="move" name="top"/>
    </contour>
  </outline>
</glyph>
<glyph name="n" format="1">
  <advance width="520"/>
  <unicode hex="006E"/>
  <outline>
    <contour>
      <point x="30" y="411" type="curve"/>
      <point x="30" y="421"/>
      <point x="34" y="436"/>
      <point x="37" y="442" type="curve"/>
      <point x="108" y="442"/>
      <point x="200" y="464"/>
      <point x="201" y="464" type="curve"/>
      <point x="211" y="451" type="line"/>
      <point x="198" y="400"/>
      <point x="169" y="285"/>
      <point x="153" y="220" type="curve"/>
      <point x="165" y="220" type="line"/>
      <point x="150" y="146"/>
      <point x="139" y="95"/>
      <point x="141" y="-2" type="curve"/>
      <point x="115" y="-5"/>
      <point x="71" y="-11"/>
      <point x="49" y="-13" type="curve"/>
      <point x="41" y="-2" type="line"/>
      <point x="62" y="58"/>
      <point x="91" y="134"/>
      <point x="106" y="219" type="curve" smooth="yes"/>
      <point x="116" y="274"/>
      <point x="122" y="314"/>
      <point x="122" y="343" type="curve" smooth="yes"/>
      <point x="122" y="399"/>
      <point x="98" y="411"/>
    </contour>
    <contour>
      <point x="127" y="163" type="line"/>
      <point x="178" y="345"/>
      <point x="313" y="464"/>
      <point x="396" y="464" type="curve" smooth="yes"/>
      <point x="437" y="464"/>
      <point x="464" y="442"/>
      <point x="464" y="396" type="curve" smooth="yes"/>
      <point x="464" y="323"/>
      <point x="404" y="184"/>
      <point x="404" y="101" type="curve" smooth="yes"/>
      <point x="404" y="55"/>
      <point x="423" y="38"/>
      <point x="460" y="38" type="curve" smooth="yes"/>
      <point x="470" y="38"/>
      <point x="482" y="40"/>
      <point x="496" y="42" type="curve"/>
      <point x="497" y="39"/>
      <point x="497" y="36"/>
      <point x="497" y="33" type="curve" smooth="yes"/>
      <point x="497" y="26"/>
      <point x="495" y="19"/>
      <point x="493" y="13" type="curve"/>
      <point x="466" y="-4"/>
      <point x="423" y="-18"/>
      <point x="379" y="-18" type="curve" smooth="yes"/>
      <point x="339" y="-18"/>
      <point x="318" y="-3"/>
      <point x="318" y="29" type="curve" smooth="yes"/>
      <point x="318" y="34"/>
      <point x="318" y="39"/>
      <point x="319" y="44" type="curve" smooth="yes"/>
      <point x="328" y="90"/>
      <point x="394" y="225"/>
      <point x="394" y="347" type="curve" smooth="yes"/>
      <point x="394" y="382"/>
      <point x="379" y="396"/>
      <point x="355" y="396" type="curve" smooth="yes"/>
      <point x="275" y="396"/>
      <point x="163" y="234"/>
      <point x="152" y="156" type="curve"/>
    </contour>
  </outline>
</glyph>
<glyph name="o" format="1">
  <advance width="443"/>
  <unicode hex="006F"/>
  <outline>
    <contour>
      <point x="167" y="-16" type="curve" smooth="yes"/>
      <point x="323" y="-16"/>
      <point x="422" y="157"/>
      <point x="422" y="316" type="curve" smooth="yes"/>
      <point x="422" y="406"/>
      <point x="372" y="465"/>
      <point x="291" y="465" type="curve" smooth="yes"/>
      <point x="145" y="465"/>
      <point x="24" y="306"/>
      <point x="24" y="144" type="curve" smooth="yes"/>
      <point x="24" y="54"/>
      <point x="66" y="-16"/>
    </contour>
    <contour>
      <point x="191" y="38" type="curve" smooth="yes"/>
      <point x="123" y="38"/>
      <point x="104" y="104"/>
      <point x="104" y="168" type="curve" smooth="yes"/>
      <point x="104" y="297"/>
      <point x="175" y="420"/>
      <point x="255" y="420" type="curve" smooth="yes"/>
      <point x="313" y="420"/>
      <point x="337" y="366"/>
      <point x="337" y="293" type="curve" smooth="yes"/>
      <point x="337" y="175"/>
      <point x="289" y="38"/>
    </contour>
  </outline>
</glyph>
<glyph name="p" format="1">
  <advance width="508"/>
  <unicode hex="0070"/>
  <outline>
    <contour>
      <point x="17" y="-218" type="line"/>
      <point x="24" y="-191"/>
      <point x="48" y="-117"/>
      <point x="66" y="-33" type="curve" smooth="yes"/>
      <point x="87" y="65"/>
      <point x="101" y="116"/>
      <point x="120" y="219" type="curve" smooth="yes"/>
      <point x="129" y="266"/>
      <point x="134" y="302"/>
      <point x="134" y="329" type="curve" smooth="yes"/>
      <point x="134" y="388"/>
      <point x="110" y="405"/>
      <point x="49" y="405" type="curve"/>
      <point x="48" y="416"/>
      <point x="49" y="426"/>
      <point x="55" y="439" type="curve"/>
      <point x="117" y="439"/>
      <point x="179" y="446"/>
      <point x="226" y="461" type="curve"/>
      <point x="236" y="446" type="line"/>
      <point x="216" y="394"/>
      <point x="198" y="301"/>
      <point x="176" y="245" type="curve"/>
      <point x="177" y="245" type="line" smooth="yes"/>
      <point x="182" y="245"/>
      <point x="192" y="257"/>
      <point x="196" y="257" type="curve" smooth="yes"/>
      <point x="197" y="257" type="line"/>
      <point x="192" y="245"/>
      <point x="184" y="234"/>
      <point x="181" y="220" type="curve" smooth="yes"/>
      <point x="169" y="162"/>
      <point x="119" y="-33"/>
      <point x="119" y="-110" type="curve" smooth="yes"/>
      <point x="119" y="-159"/>
      <point x="154" y="-166"/>
      <point x="220" y="-168" type="curve"/>
      <point x="221" y="-182"/>
      <point x="217" y="-193"/>
      <point x="209" y="-205" type="curve"/>
      <point x="193" y="-205" type="line" smooth="yes"/>
      <point x="128" y="-205"/>
      <point x="85" y="-212"/>
      <point x="27" y="-227" type="curve"/>
    </contour>
    <contour>
      <point x="96" y="1" type="curve"/>
      <point x="144" y="84" type="line"/>
      <point x="144" y="84"/>
      <point x="163" y="52"/>
      <point x="233" y="52" type="curve" smooth="yes"/>
      <point x="356" y="52"/>
      <point x="418" y="228"/>
      <point x="418" y="318" type="curve" smooth="yes"/>
      <point x="418" y="372"/>
      <point x="398" y="404"/>
      <point x="360" y="404" type="curve" smooth="yes"/>
      <point x="270" y="404"/>
      <point x="179" y="233"/>
      <point x="170" y="170" type="curve"/>
      <point x="144" y="185" type="line"/>
      <point x="173" y="264"/>
      <point x="252" y="466"/>
      <point x="391" y="466" type="curve" smooth="yes"/>
      <point x="466" y="466"/>
      <point x="496" y="407"/>
      <point x="496" y="334" type="curve" smooth="yes"/>
      <point x="496" y="181"/>
      <point x="373" y="-5"/>
      <point x="141" y="-5" type="curve" smooth="yes"/>
      <point x="127" y="-5"/>
      <point x="111" y="-1"/>
    </contour>
  </outline>
</glyph>
<glyph name="q" format="1">
  <advance width="486"/>
  <unicode hex="0071"/>
  <outline>
    <contour>
      <point x="31" y="119" type="curve" smooth="yes"/>
      <point x="31" y="277"/>
      <point x="150" y="468"/>
      <point x="407" y="468" type="curve" smooth="yes"/>
      <point x="418" y="468"/>
      <point x="429" y="467"/>
      <point x="441" y="467" type="curve"/>
      <point x="400" y="370" type="line"/>
      <point x="400" y="370"/>
      <point x="351" y="412"/>
      <point x="291" y="412" type="curve" smooth="yes"/>
      <point x="179" y="412"/>
      <point x="114" y="255"/>
      <point x="114" y="152" type="curve" smooth="yes"/>
      <point x="114" y="103"/>
      <point x="133" y="58"/>
      <point x="183" y="58" type="curve" smooth="yes"/>
      <point x="274" y="58"/>
      <point x="337" y="224"/>
      <point x="345" y="268" type="curve"/>
      <point x="351" y="201" type="line"/>
      <point x="326" y="122"/>
      <point x="262" y="-14"/>
      <point x="150" y="-14" type="curve" smooth="yes"/>
      <point x="60" y="-14"/>
      <point x="31" y="53"/>
    </contour>
    <contour>
      <point x="245" y="-218" type="line"/>
      <point x="265" y="-131"/>
      <point x="313" y="60"/>
      <point x="337" y="171" type="curve"/>
      <point x="338" y="229" type="line"/>
      <point x="347" y="288"/>
      <point x="358" y="335"/>
      <point x="358" y="402" type="curve" smooth="yes"/>
      <point x="358" y="417"/>
      <point x="357" y="432"/>
      <point x="357" y="450" type="curve"/>
      <point x="442" y="465" type="line"/>
      <point x="454" y="451" type="line"/>
      <point x="416" y="292"/>
      <point x="347" y="2"/>
      <point x="347" y="-98" type="curve" smooth="yes"/>
      <point x="347" y="-161"/>
      <point x="379" y="-166"/>
      <point x="446" y="-168" type="curve"/>
      <point x="447" y="-182"/>
      <point x="443" y="-193"/>
      <point x="435" y="-205" type="curve"/>
      <point x="419" y="-205" type="line" smooth="yes"/>
      <point x="353" y="-205"/>
      <point x="313" y="-212"/>
      <point x="255" y="-227" type="curve"/>
    </contour>
  </outline>
</glyph>
<glyph name="r" format="1">
  <advance width="371"/>
  <unicode hex="0072"/>
  <outline>
    <contour>
      <point x="24" y="411" type="curve"/>
      <point x="24" y="421"/>
      <point x="29" y="436"/>
      <point x="32" y="442" type="curve"/>
      <point x="87" y="442"/>
      <point x="168" y="459"/>
      <point x="192" y="465" type="curve"/>
      <point x="203" y="450" type="line"/>
      <point x="189" y="399"/>
      <point x="160" y="285"/>
      <point x="144" y="220" type="curve"/>
      <point x="156" y="220" type="line"/>
      <point x="141" y="146"/>
      <point x="130" y="95"/>
      <point x="131" y="-2" type="curve"/>
      <point x="106" y="-5"/>
      <point x="72" y="-11"/>
      <point x="50" y="-13" type="curve"/>
      <point x="42" y="-2" type="line"/>
      <point x="63" y="58"/>
      <point x="88" y="134"/>
      <point x="103" y="219" type="curve" smooth="yes"/>
      <point x="113" y="273"/>
      <point x="119" y="312"/>
      <point x="119" y="340" type="curve" smooth="yes"/>
      <point x="119" y="399"/>
      <point x="93" y="411"/>
    </contour>
    <contour>
      <point x="90" y="81" type="line"/>
      <point x="142" y="191"/>
      <point x="113" y="389"/>
      <point x="374" y="465" type="curve"/>
      <point x="384" y="450" type="line"/>
      <point x="382" y="427"/>
      <point x="367" y="368"/>
      <point x="356" y="333" type="curve"/>
      <point x="339" y="354"/>
      <point x="314" y="369"/>
      <point x="285" y="369" type="curve" smooth="yes"/>
      <point x="193" y="369"/>
      <point x="121" y="169"/>
      <point x="121" y="7" type="curve"/>
    </contour>
  </outline>
</glyph>
<glyph name="s" format="1">
  <advance width="360"/>
  <unicode hex="0073"/>
  <outline>
    <contour>
      <point x="116" y="-5" type="curve" smooth="yes"/>
      <point x="228" y="-5"/>
      <point x="296" y="52"/>
      <point x="296" y="131" type="curve" smooth="yes"/>
      <point x="296" y="220"/>
      <point x="160" y="283"/>
      <point x="160" y="365" type="curve" smooth="yes"/>
      <point x="160" y="393"/>
      <point x="177" y="413"/>
      <point x="212" y="413" type="curve" smooth="yes"/>
      <point x="250" y="413"/>
      <point x="287" y="394"/>
      <point x="318" y="338" type="curve"/>
      <point x="330" y="379"/>
      <point x="339" y="429"/>
      <point x="340" y="451" type="curve"/>
      <point x="330" y="465" type="line"/>
      <point x="309" y="465" type="line" smooth="yes"/>
      <point x="179" y="465"/>
      <point x="94" y="423"/>
      <point x="94" y="325" type="curve" smooth="yes"/>
      <point x="94" y="229"/>
      <point x="219" y="188"/>
      <point x="219" y="106" type="curve" smooth="yes"/>
      <point x="219" y="68"/>
      <point x="199" y="40"/>
      <point x="159" y="40" type="curve" smooth="yes"/>
      <point x="88" y="40"/>
      <point x="52" y="109"/>
      <point x="38" y="137" type="curve"/>
      <point x="27" y="93"/>
      <point x="19" y="42"/>
      <point x="19" y="17" type="curve"/>
      <point x="30" y="5" type="line"/>
      <point x="40" y="2"/>
      <point x="69" y="-5"/>
    </contour>
    <contour>
      <point x="269" y="522" type="move" name="top"/>
    </contour>
  </outline>
</glyph>
<glyph name="t" format="1">
  <advance width="303"/>
  <unicode hex="0074"/>
  <outline>
    <contour>
      <point x="107" y="-18" type="curve" smooth="yes"/>
      <point x="156" y="-18"/>
      <point x="202" y="-2"/>
      <point x="224" y="12" type="curve"/>
      <point x="226" y="17"/>
      <point x="227" y="22"/>
      <point x="227" y="27" type="curve" smooth="yes"/>
      <point x="227" y="32"/>
      <point x="227" y="36"/>
      <point x="226" y="41" type="curve"/>
      <point x="218" y="40"/>
      <point x="210" y="40"/>
      <point x="202" y="40" type="curve" smooth="yes"/>
      <point x="142" y="40"/>
      <point x="125" y="55"/>
      <point x="125" y="106" type="curve" smooth="yes"/>
      <point x="125" y="170"/>
      <point x="151" y="300"/>
      <point x="180" y="388" type="curve"/>
      <point x="207" y="401"/>
      <point x="250" y="415"/>
      <point x="291" y="416" type="curve"/>
      <point x="292" y="422"/>
      <point x="293" y="427"/>
      <point x="293" y="433" type="curve" smooth="yes"/>
      <point x="293" y="437"/>
      <point x="293" y="441"/>
      <point x="291" y="445" type="curve"/>
      <point x="188" y="445" type="line"/>
      <point x="205" y="515"/>
      <point x="227" y="584"/>
      <point x="232" y="598" type="curve"/>
      <point x="231" y="598"/>
      <point x="202" y="593"/>
      <point x="170" y="587" type="curve"/>
      <point x="163" y="557"/>
      <point x="135" y="477"/>
      <point x="119" y="447" type="curve"/>
      <point x="38" y="447" type="line"/>
      <point x="34" y="438"/>
      <point x="30" y="420"/>
      <point x="30" y="408" type="curve"/>
      <point x="65" y="408"/>
      <point x="98" y="403"/>
      <point x="104" y="397" type="curve"/>
      <point x="104" y="304"/>
      <point x="39" y="89"/>
      <point x="39" y="40" type="curve" smooth="yes"/>
      <point x="39" y="8"/>
      <point x="63" y="-18"/>
    </contour>
  </outline>
</glyph>
<glyph name="u" format="1">
  <advance width="524"/>
  <unicode hex="0075"/>
  <outline>
    <contour>
      <point x="128" y="-11" type="curve" smooth="yes"/>
      <point x="206" y="-6"/>
      <point x="316" y="100"/>
      <point x="362" y="257" type="curve"/>
      <point x="346" y="275" type="line"/>
      <point x="335" y="206"/>
      <point x="238" y="63"/>
      <point x="164" y="63" type="curve" smooth="yes"/>
      <point x="128" y="63"/>
      <point x="117" y="97"/>
      <point x="117" y="132" type="curve" smooth="yes"/>
      <point x="117" y="232"/>
      <point x="174" y="339"/>
      <point x="206" y="446" type="curve"/>
      <point x="196" y="460" type="line"/>
      <point x="196" y="460"/>
      <point x="122" y="445"/>
      <point x="43" y="445" type="curve"/>
      <point x="41" y="437"/>
      <point x="39" y="428"/>
      <point x="39" y="421" type="curve" smooth="yes"/>
      <point x="39" y="418"/>
      <point x="39" y="415"/>
      <point x="40" y="413" type="curve"/>
      <point x="91" y="413"/>
      <point x="109" y="406"/>
      <point x="109" y="373" type="curve" smooth="yes"/>
      <point x="109" y="283"/>
      <point x="47" y="157"/>
      <point x="47" y="62" type="curve" smooth="yes"/>
      <point x="47" y="17"/>
      <point x="73" y="-15"/>
    </contour>
    <contour>
      <point x="347" y="-18" type="curve" smooth="yes"/>
      <point x="389" y="-20"/>
      <point x="431" y="-4"/>
      <point x="455" y="14" type="curve"/>
      <point x="458" y="21"/>
      <point x="459" y="27"/>
      <point x="459" y="33" type="curve" smooth="yes"/>
      <point x="459" y="36"/>
      <point x="459" y="40"/>
      <point x="458" y="43" type="curve"/>
      <point x="445" y="41"/>
      <point x="433" y="39"/>
      <point x="423" y="39" type="curve" smooth="yes"/>
      <point x="387" y="39"/>
      <point x="368" y="55"/>
      <point x="368" y="102" type="curve" smooth="yes"/>
      <point x="368" y="211"/>
      <point x="431" y="379"/>
      <point x="454" y="446" type="curve"/>
      <point x="444" y="460" type="line"/>
      <point x="442" y="460"/>
      <point x="398" y="454"/>
      <point x="365" y="451" type="curve"/>
      <point x="364" y="416"/>
      <point x="356" y="352"/>
      <point x="348" y="293" type="curve" smooth="yes"/>
      <point x="343" y="254"/>
      <point x="342" y="221"/>
      <point x="334" y="191" type="curve" smooth="yes"/>
      <point x="322" y="143"/>
      <point x="302" y="101"/>
      <point x="296" y="44" type="curve" smooth="yes"/>
      <point x="293" y="13"/>
      <point x="308" y="-17"/>
    </contour>
    <contour>
      <point x="309" y="522" type="move" name="top"/>
    </contour>
  </outline>
</glyph>
<glyph name="v" format="1">
  <advance width="468"/>
  <unicode hex="0076"/>
  <outline>
    <contour>
      <point x="23" y="411" type="curve"/>
      <point x="22" y="418"/>
      <point x="25" y="434"/>
      <point x="28" y="442" type="curve"/>
      <point x="71" y="442"/>
      <point x="144" y="454"/>
      <point x="182" y="465" type="curve"/>
      <point x="193" y="450" type="line"/>
      <point x="189" y="384"/>
      <point x="186" y="302"/>
      <point x="186" y="225" type="curve" smooth="yes"/>
      <point x="186" y="154"/>
      <point x="188" y="86"/>
      <point x="195" y="36" type="curve"/>
      <point x="192" y="36"/>
      <point x="178" y="55"/>
      <point x="178" y="55" type="curve"/>
      <point x="235" y="123"/>
      <point x="369" y="265"/>
      <point x="369" y="365" type="curve" smooth="yes"/>
      <point x="369" y="396"/>
      <point x="343" y="407"/>
      <point x="288" y="407" type="curve"/>
      <point x="286" y="413"/>
      <point x="287" y="421"/>
      <point x="290" y="431" type="curve"/>
      <point x="317" y="445"/>
      <point x="371" y="461"/>
      <point x="406" y="461" type="curve" smooth="yes"/>
      <point x="444" y="461"/>
      <point x="453" y="440"/>
      <point x="453" y="420" type="curve" smooth="yes"/>
      <point x="453" y="310"/>
      <point x="310" y="140"/>
      <point x="189" y="-3" type="curve"/>
      <point x="168" y="-5"/>
      <point x="131" y="-8"/>
      <point x="106" y="-14" type="curve"/>
      <point x="112" y="90"/>
      <point x="119" y="200"/>
      <point x="119" y="290" type="curve" smooth="yes"/>
      <point x="119" y="315"/>
      <point x="118" y="338"/>
      <point x="117" y="359" type="curve" smooth="yes"/>
      <point x="114" y="407"/>
      <point x="77" y="411"/>
    </contour>
    <contour>
      <point x="299" y="522" type="move" name="top"/>
    </contour>
  </outline>
</glyph>
<glyph name="w" format="1">
  <advance width="697"/>
  <unicode hex="0077"/>
  <outline>
    <contour>
      <point x="339" y="-14" type="curve"/>
      <point x="345" y="73"/>
      <point x="352" y="165"/>
      <point x="352" y="241" type="curve" smooth="yes"/>
      <point x="352" y="263"/>
      <point x="351" y="284"/>
      <point x="350" y="303" type="curve"/>
      <point x="425" y="354" type="line"/>
      <point x="414" y="309"/>
      <point x="410" y="249"/>
      <point x="410" y="191" type="curve" smooth="yes"/>
      <point x="410" y="133"/>
      <point x="414" y="77"/>
      <point x="421" y="36" type="curve"/>
      <point x="411" y="55" type="line"/>
      <point x="468" y="125"/>
      <point x="603" y="270"/>
      <point x="603" y="372" type="curve" smooth="yes"/>
      <point x="603" y="404"/>
      <point x="579" y="415"/>
      <point x="529" y="414" type="curve"/>
      <point x="528" y="417"/>
      <point x="527" y="421"/>
      <point x="527" y="425" type="curve" smooth="yes"/>
      <point x="527" y="429"/>
      <point x="528" y="434"/>
      <point x="529" y="439" type="curve"/>
      <point x="553" y="454"/>
      <point x="605" y="468"/>
      <point x="629" y="468" type="curve" smooth="yes"/>
      <point x="675" y="468"/>
      <point x="686" y="447"/>
      <point x="686" y="428" type="curve" smooth="yes"/>
      <point x="686" y="315"/>
      <point x="543" y="142"/>
      <point x="423" y="-3" type="curve"/>
      <point x="401" y="-5"/>
      <point x="365" y="-8"/>
    </contour>
    <contour>
      <point x="10" y="411" type="curve"/>
      <point x="8" y="416"/>
      <point x="12" y="434"/>
      <point x="15" y="442" type="curve"/>
      <point x="58" y="442"/>
      <point x="139" y="455"/>
      <point x="173" y="466" type="curve"/>
      <point x="184" y="452" type="line"/>
      <point x="180" y="393"/>
      <point x="178" y="322"/>
      <point x="178" y="252" type="curve" smooth="yes"/>
      <point x="178" y="172"/>
      <point x="181" y="93"/>
      <point x="188" y="36" type="curve"/>
      <point x="185" y="36"/>
      <point x="170" y="55"/>
      <point x="170" y="55" type="curve"/>
      <point x="227" y="125"/>
      <point x="362" y="271"/>
      <point x="362" y="374" type="curve" smooth="yes"/>
      <point x="362" y="405"/>
      <point x="338" y="416"/>
      <point x="289" y="416" type="curve"/>
      <point x="288" y="419"/>
      <point x="287" y="423"/>
      <point x="287" y="427" type="curve" smooth="yes"/>
      <point x="287" y="431"/>
      <point x="288" y="435"/>
      <point x="289" y="440" type="curve"/>
      <point x="312" y="456"/>
      <point x="364" y="470"/>
      <point x="388" y="470" type="curve" smooth="yes"/>
      <point x="434" y="470"/>
      <point x="445" y="449"/>
      <point x="445" y="429" type="curve" smooth="yes"/>
      <point x="445" y="316"/>
      <point x="302" y="142"/>
      <point x="182" y="-3" type="curve"/>
      <point x="161" y="-5"/>
      <point x="127" y="-8"/>
      <point x="102" y="-14" type="curve"/>
      <point x="108" y="86"/>
      <point x="114" y="191"/>
      <point x="114" y="279" type="curve" smooth="yes"/>
      <point x="114" y="307"/>
      <point x="113" y="334"/>
      <point x="112" y="358" type="curve" smooth="yes"/>
      <point x="109" y="407"/>
      <point x="69" y="411"/>
    </contour>
    <contour>
      <point x="399" y="522" type="move" name="top"/>
    </contour>
  </outline>
</glyph>
<glyph name="x" format="1">
  <advance width="541"/>
  <unicode hex="0078"/>
  <outline>
    <contour>
      <point x="85" y="-7" type="curve" smooth="yes"/>
      <point x="161" y="-7"/>
      <point x="209" y="59"/>
      <point x="239" y="150" type="curve" smooth="yes"/>
      <point x="244" y="164"/>
      <point x="249" y="185"/>
      <point x="255" y="201" type="curve"/>
      <point x="283" y="213" type="line"/>
      <point x="295" y="277"/>
      <point x="356" y="393"/>
      <point x="407" y="393" type="curve" smooth="yes"/>
      <point x="439" y="393"/>
      <point x="453" y="378"/>
      <point x="468" y="334" type="curve"/>
      <point x="477" y="358"/>
      <point x="488" y="403"/>
      <point x="493" y="456" type="curve"/>
      <point x="493" y="463" type="line"/>
      <point x="493" y="463"/>
      <point x="475" y="465"/>
      <point x="456" y="465" type="curve" smooth="yes"/>
      <point x="365" y="465"/>
      <point x="315" y="394"/>
      <point x="275" y="291" type="curve"/>
      <point x="260" y="291" type="line"/>
      <point x="260" y="263" type="line"/>
      <point x="242" y="263" type="line"/>
      <point x="230" y="219"/>
      <point x="198" y="84"/>
      <point x="125" y="84" type="curve" smooth="yes"/>
      <point x="97" y="84"/>
      <point x="71" y="100"/>
      <point x="58" y="124" type="curve"/>
      <point x="49" y="98"/>
      <point x="38" y="59"/>
      <point x="31" y="14" type="curve"/>
      <point x="31" y="2" type="line"/>
      <point x="47" y="-5"/>
      <point x="69" y="-7"/>
    </contour>
    <contour>
      <point x="350" y="-11" type="curve" smooth="yes"/>
      <point x="398" y="-11"/>
      <point x="437" y="11"/>
      <point x="459" y="29" type="curve"/>
      <point x="461" y="34"/>
      <point x="461" y="40"/>
      <point x="461" y="45" type="curve" smooth="yes"/>
      <point x="461" y="51"/>
      <point x="461" y="56"/>
      <point x="459" y="59" type="curve"/>
      <point x="445" y="56"/>
      <point x="433" y="51"/>
      <point x="421" y="51" type="curve" smooth="yes"/>
      <point x="395" y="51"/>
      <point x="372" y="60"/>
      <point x="350" y="81" type="curve"/>
      <point x="321" y="111"/>
      <point x="296" y="186"/>
      <point x="283" y="236" type="curve"/>
      <point x="277" y="256"/>
      <point x="274" y="250"/>
      <point x="273" y="268" type="curve"/>
      <point x="274" y="279"/>
      <point x="279" y="324"/>
      <point x="279" y="334" type="curve" smooth="yes"/>
      <point x="279" y="398"/>
      <point x="275" y="467"/>
      <point x="198" y="467" type="curve" smooth="yes"/>
      <point x="151" y="467"/>
      <point x="107" y="450"/>
      <point x="82" y="435" type="curve"/>
      <point x="80" y="429"/>
      <point x="79" y="423"/>
      <point x="79" y="418" type="curve" smooth="yes"/>
      <point x="79" y="414"/>
      <point x="80" y="410"/>
      <point x="82" y="407" type="curve"/>
      <point x="95" y="409"/>
      <point x="106" y="410"/>
      <point x="116" y="410" type="curve" smooth="yes"/>
      <point x="163" y="410"/>
      <point x="189" y="392"/>
      <point x="204" y="362" type="curve"/>
      <point x="221" y="322"/>
      <point x="238" y="255"/>
      <point x="243" y="202" type="curve"/>
      <point x="244" y="199"/>
      <point x="249" y="199"/>
      <point x="249" y="197" type="curve"/>
      <point x="252" y="182"/>
      <point x="252" y="167"/>
      <point x="255" y="137" type="curve" smooth="yes"/>
      <point x="260" y="93"/>
      <point x="267" y="-11"/>
    </contour>
    <contour>
      <point x="319" y="522" type="move" name="top"/>
    </contour>
  </outline>
</glyph>
<glyph name="y" format="1">
  <advance width="504"/>
  <unicode hex="0079"/>
  <outline>
    <contour>
      <point x="13" y="-217" type="curve" smooth="yes"/>
      <point x="127" y="-217"/>
      <point x="230" y="-105"/>
      <point x="313" y="27" type="curve" smooth="yes"/>
      <point x="404" y="176"/>
      <point x="492" y="339"/>
      <point x="492" y="421" type="curve" smooth="yes"/>
      <point x="492" y="441"/>
      <point x="482" y="462"/>
      <point x="442" y="462" type="curve" smooth="yes"/>
      <point x="414" y="462"/>
      <point x="356" y="447"/>
      <point x="328" y="437" type="curve"/>
      <point x="325" y="431"/>
      <point x="323" y="424"/>
      <point x="323" y="418" type="curve" smooth="yes"/>
      <point x="323" y="415"/>
      <point x="324" y="412"/>
      <point x="325" y="409" type="curve"/>
      <point x="383" y="410"/>
      <point x="400" y="395"/>
      <point x="400" y="353" type="curve" smooth="yes"/>
      <point x="400" y="233"/>
      <point x="286" y="66"/>
      <point x="262" y="31" type="curve"/>
      <point x="240" y="84"/>
      <point x="228" y="175"/>
      <point x="218" y="226" type="curve" smooth="yes"/>
      <point x="202" y="308"/>
      <point x="204" y="385"/>
      <point x="202" y="451" type="curve"/>
      <point x="192" y="465" type="line"/>
      <point x="140" y="451"/>
      <point x="73" y="442"/>
      <point x="37" y="442" type="curve"/>
      <point x="31" y="431"/>
      <point x="30" y="421"/>
      <point x="30" y="410" type="curve"/>
      <point x="81" y="411"/>
      <point x="117" y="402"/>
      <point x="134" y="341" type="curve" smooth="yes"/>
      <point x="156" y="266"/>
      <point x="173" y="135"/>
      <point x="173" y="21" type="curve" smooth="yes"/>
      <point x="173" y="-4" type="line"/>
      <point x="199" y="-2"/>
      <point x="225" y="-2"/>
      <point x="251" y="10" type="curve"/>
      <point x="223" y="-27"/>
      <point x="142" y="-144"/>
      <point x="55" y="-144" type="curve" smooth="yes"/>
      <point x="-4" y="-144"/>
      <point x="-31" y="-109"/>
      <point x="-46" y="-76" type="curve"/>
      <point x="-57" y="-105"/>
      <point x="-70" y="-163"/>
      <point x="-70" y="-190" type="curve"/>
      <point x="-65" y="-201" type="line"/>
      <point x="-47" y="-212"/>
      <point x="-19" y="-217"/>
    </contour>
    <contour>
      <point x="329" y="522" type="move" name="top"/>
    </contour>
  </outline>
</glyph>
<glyph name="z" format="1">
  <advance width="409"/>
  <unicode hex="007A"/>
  <outline>
    <contour>
      <point x="339" y="-1" type="curve"/>
      <point x="350" y="9" type="line"/>
      <point x="355" y="29"/>
      <point x="366" y="78"/>
      <point x="373" y="110" type="curve"/>
      <point x="334" y="77"/>
      <point x="305" y="60"/>
      <point x="264" y="57" type="curve" smooth="yes"/>
      <point x="253" y="56"/>
      <point x="226" y="55"/>
      <point x="198" y="55" type="curve" smooth="yes"/>
      <point x="159" y="55"/>
      <point x="117" y="58"/>
      <point x="117" y="70" type="curve" smooth="yes"/>
      <point x="117" y="74"/>
      <point x="132" y="92"/>
      <point x="139" y="100" type="curve" smooth="yes"/>
      <point x="176" y="143"/>
      <point x="230" y="208"/>
      <point x="300" y="303" type="curve" smooth="yes"/>
      <point x="312" y="319"/>
      <point x="371" y="398"/>
      <point x="392" y="443" type="curve"/>
      <point x="376" y="458" type="line"/>
      <point x="274" y="452"/>
      <point x="177" y="451"/>
      <point x="72" y="451" type="curve"/>
      <point x="64" y="420"/>
      <point x="61" y="389"/>
      <point x="59" y="343" type="curve"/>
      <point x="103" y="389"/>
      <point x="135" y="398"/>
      <point x="166" y="401" type="curve" smooth="yes"/>
      <point x="175" y="402"/>
      <point x="196" y="403"/>
      <point x="218" y="403" type="curve" smooth="yes"/>
      <point x="252" y="403"/>
      <point x="290" y="400"/>
      <point x="290" y="385" type="curve" smooth="yes"/>
      <point x="290" y="366"/>
      <point x="262" y="329"/>
      <point x="254" y="319" type="curve"/>
      <point x="184" y="224"/>
      <point x="56" y="60"/>
      <point x="5" y="14" type="curve"/>
      <point x="17" y="0" type="line"/>
      <point x="48" y="3"/>
      <point x="76" y="3"/>
      <point x="105" y="3" type="curve" smooth="yes"/>
      <point x="224" y="3" type="line" smooth="yes"/>
      <point x="262" y="3"/>
      <point x="302" y="3"/>
    </contour>
    <contour>
      <point x="269" y="522" type="move" name="top"/>
    </contour>
  </outline>
</glyph>
<glyph name="macron" format="1">
  <advance width="0"/>
  <unicode hex="00AF"/>
  <outline>
    <contour>
      <point x="168" y="680" type="line"/>
      <point x="169" y="706"/>
      <point x="174" y="730"/>
      <point x="176" y="751" type="curve"/>
      <point x="43" y="743"/>
      <point x="-20" y="743"/>
      <point x="-169" y="751" type="curve"/>
      <point x="-179" y="680" type="line"/>
    </contour>
  </outline>
</glyph>
<glyph name="periodcentered" format="1">
  <advance width="307"/>
  <unicode hex="00B7"/>
  <outline>
    <contour>
      <point x="156" y="159" type="curve" smooth="yes"/>
      <point x="203" y="159"/>
      <point x="245" y="196"/>
      <point x="245" y="253" type="curve" smooth="yes"/>
      <point x="245" y="306"/>
      <point x="203" y="341"/>
      <point x="153" y="341" type="curve" smooth="yes"/>
      <point x="100" y="341"/>
      <point x="62" y="304"/>
      <point x="62" y="251" type="curve" smooth="yes"/>
      <point x="62" y="203"/>
      <point x="94" y="159"/>
    </contour>
  </outline>
</glyph>
<glyph name="questiondown" format="1">
  <advance width="462"/>
  <unicode hex="00BF"/>
  <outline>
    <contour>
      <point x="188" y="457" type="line"/>
      <point x="191" y="440"/>
      <point x="198" y="380"/>
      <point x="198" y="330" type="curve" smooth="yes"/>
      <point x="198" y="319"/>
      <point x="239" y="371"/>
      <point x="235" y="365" type="curve"/>
      <point x="169" y="344"/>
      <point x="44" y="307"/>
      <point x="17" y="163" type="curve" smooth="yes"/>
      <point x="-5" y="45"/>
      <point x="71" y="-7"/>
      <point x="162" y="-7" type="curve" smooth="yes"/>
      <point x="229" y="-7"/>
      <point x="296" y="21"/>
      <point x="337" y="46" type="curve"/>
      <point x="318" y="76" type="line"/>
      <point x="295" y="63"/>
      <point x="262" y="43"/>
      <point x="220" y="46" type="curve" smooth="yes"/>
      <point x="125" y="54"/>
      <point x="88" y="120"/>
      <point x="101" y="200" type="curve" smooth="yes"/>
      <point x="117" y="302"/>
      <point x="229" y="326"/>
      <point x="270" y="330" type="curve"/>
      <point x="270" y="348"/>
      <point x="274" y="430"/>
      <point x="275" y="458" type="curve"/>
    </contour>
    <contour>
      <point x="266" y="154" type="line"/>
      <point x="264" y="127"/>
      <point x="259" y="73"/>
      <point x="251" y="46" type="curve"/>
      <point x="337" y="46" type="line"/>
      <point x="341" y="73"/>
      <point x="338" y="139"/>
      <point x="332" y="163" type="curve"/>
    </contour>
    <component base="period" xScale="-1" yScale="-1" xOffset="348" yOffset="617"/>
  </outline>
</glyph>
<glyph name="jdotless" format="1">
  <advance width="233"/>
  <unicode hex="0237"/>
  <outline>
    <contour>
      <point x="-41" y="-127" type="curve"/>
      <point x="-42" y="-116"/>
      <point x="-38" y="-101"/>
      <point x="-33" y="-94" type="curve"/>
      <point x="45" y="-83"/>
      <point x="97" y="-50"/>
      <point x="114" y="18" type="curve" smooth="yes"/>
      <point x="135" y="106"/>
      <point x="165" y="249"/>
      <point x="165" y="338" type="curve" smooth="yes"/>
      <point x="165" y="393"/>
      <point x="141" y="411"/>
      <point x="77" y="411" type="curve"/>
      <point x="76" y="418"/>
      <point x="79" y="429"/>
      <point x="84" y="442" type="curve"/>
      <point x="145" y="442"/>
      <point x="226" y="456"/>
      <point x="263" y="465" type="curve"/>
      <point x="273" y="451" type="line"/>
      <point x="238" y="347"/>
      <point x="206" y="188"/>
      <point x="191" y="67" type="curve" smooth="yes"/>
      <point x="179" y="-21"/>
      <point x="171" y="-60"/>
      <point x="137" y="-94" type="curve" smooth="yes"/>
      <point x="120" y="-111"/>
      <point x="85" y="-131"/>
      <point x="52" y="-136" type="curve" smooth="yes"/>
      <point x="21" y="-141"/>
      <point x="-30" y="-136"/>
    </contour>
    <contour>
      <point x="229" y="512" type="move" name="top"/>
    </contour>
  </outline>
</glyph>
<glyph name="ring" format="1">
  <advance width="0"/>
  <unicode hex="02DA"/>
  <outline>
    <contour>
      <point x="0" y="618" type="curve" smooth="yes"/>
      <point x="44" y="618"/>
      <point x="79" y="654"/>
      <point x="79" y="698" type="curve" smooth="yes"/>
      <point x="79" y="742"/>
      <point x="44" y="777"/>
      <point x="0" y="777" type="curve" smooth="yes"/>
      <point x="-44" y="777"/>
      <point x="-79" y="742"/>
      <point x="-79" y="698" type="curve" smooth="yes"/>
      <point x="-79" y="654"/>
      <point x="-44" y="618"/>
    </contour>
    <contour>
      <point x="-1" y="665" type="curve" smooth="yes"/>
      <point x="-19" y="665"/>
      <point x="-34" y="680"/>
      <point x="-34" y="698" type="curve" smooth="yes"/>
      <point x="-34" y="716"/>
      <point x="-19" y="732"/>
      <point x="-1" y="732" type="curve" smooth="yes"/>
      <point x="17" y="732"/>
      <point x="32" y="716"/>
      <point x="32" y="698" type="curve" smooth="yes"/>
      <point x="32" y="680"/>
      <point x="17" y="665"/>
    </contour>
    <contour>
      <point x="0" y="618" type="move" name="_top"/>
    </contour>
  </outline>
</glyph>
<glyph name="tildecomb" format="1">
  <advance width="291"/>
  <unicode hex="0303"/>
  <outline>
    <contour>
      <point x="398" y="723"/>
      <point x="409" y="742"/>
      <point x="414" y="752" type="curve"/>
      <point x="389" y="780"/>
      <point x="366" y="798"/>
      <point x="325" y="796" type="curve" smooth="yes"/>
      <point x="293" y="795"/>
      <point x="272" y="775"/>
      <point x="242" y="775" type="curve" smooth="yes"/>
      <point x="210" y="775"/>
      <point x="195" y="783"/>
      <point x="173" y="798" type="curve"/>
      <point x="144" y="759" type="line"/>
      <point x="158" y="742"/>
      <point x="192" y="711"/>
      <point x="241" y="711" type="curve" smooth="yes"/>
      <point x="276" y="712"/>
      <point x="297" y="731"/>
      <point x="324" y="732" type="curve" smooth="yes"/>
      <point x="346" y="733"/>
      <point x="368" y="728"/>
      <point x="391" y="713" type="curve"/>
    </contour>
    <contour>
      <point x="269" y="682" type="move" name="_top"/>
    </contour>
  </outline>
</glyph>
<glyph name="macroncomb" format="1">
  <advance width="338"/>
  <unicode hex="0304"/>
  <outline>
    <contour>
      <point x="109" y="657" type="line"/>
      <point x="426" y="657" type="line"/>
      <point x="427" y="683"/>
      <point x="432" y="704"/>
      <point x="433" y="725" type="curve"/>
      <point x="367" y="722"/>
      <point x="326" y="720"/>
      <point x="283" y="720" type="curve" smooth="yes"/>
      <point x="240" y="720"/>
      <point x="195" y="722"/>
      <point x="120" y="725" type="curve"/>
    </contour>
    <contour>
      <point x="269" y="582" type="move" name="_top"/>
    </contour>
  </outline>
</glyph>
<glyph name="brevecomb" format="1">
  <advance width="300"/>
  <unicode hex="0306"/>
  <outline>
    <component base="breve" xOffset="282"/>
    <contour>
      <point x="269" y="582" type="move" name="_top"/>
    </contour>
  </outline>
</glyph>
<glyph name="dieresiscomb" format="1">
  <advance width="256"/>
  <unicode hex="0308"/>
  <outline>
    <component base="dieresis" xOffset="273"/>
    <contour>
      <point x="256" y="682" type="move" name="_top"/>
    </contour>
  </outline>
</glyph>
<glyph name="hookabovecomb" format="1">
  <advance width="180"/>
  <unicode hex="0309"/>
  <outline>
    <contour>
      <point x="305" y="835"/>
      <point x="265" y="846"/>
      <point x="231" y="846" type="curve" smooth="yes"/>
      <point x="203" y="846"/>
      <point x="173" y="836"/>
      <point x="160" y="830" type="curve"/>
      <point x="151" y="815"/>
      <point x="150" y="797"/>
      <point x="153" y="782" type="curve"/>
      <point x="168" y="789"/>
      <point x="185" y="794"/>
      <point x="195" y="794" type="curve" smooth="yes"/>
      <point x="225" y="794"/>
      <point x="238" y="781"/>
      <point x="238" y="754" type="curve" smooth="yes"/>
      <point x="238" y="716"/>
      <point x="210" y="708"/>
      <point x="209" y="662" type="curve"/>
      <point x="227" y="663"/>
      <point x="244" y="664"/>
      <point x="262" y="665" type="curve"/>
      <point x="273" y="718"/>
      <point x="305" y="720"/>
      <point x="305" y="777" type="curve" smooth="yes"/>
    </contour>
    <contour>
      <point x="179" y="602" type="move" name="_top"/>
    </contour>
  </outline>
</glyph>
<glyph name="ringcomb" format="1">
  <advance width="180"/>
  <unicode hex="030A"/>
  <outline>
    <component base="ring" xOffset="228" yOffset="85"/>
    <contour>
      <point x="199" y="642" type="move" name="_top"/>
    </contour>
  </outline>
</glyph>
<glyph name="eta" format="1">
  <advance width="519"/>
  <unicode hex="03B7"/>
  <outline>
    <contour>
      <point x="-3" y="416" type="curve"/>
      <point x="7" y="390" type="line"/>
      <point x="19" y="392"/>
      <point x="29" y="394"/>
      <point x="39" y="394" type="curve" smooth="yes"/>
      <point x="97" y="394"/>
      <point x="115" y="348"/>
      <point x="115" y="251" type="curve" smooth="yes"/>
      <point x="115" y="154"/>
      <point x="87" y="27"/>
      <point x="80" y="0" type="curve"/>
      <point x="150" y="0" type="line"/>
      <point x="150" y="30"/>
      <point x="176" y="218"/>
      <point x="176" y="252" type="curve" smooth="yes"/>
      <point x="177" y="306"/>
      <point x="226" y="388"/>
      <point x="315" y="388" type="curve" smooth="yes"/>
      <point x="379" y="388"/>
      <point x="407" y="322"/>
      <point x="407" y="204" type="curve" smooth="yes"/>
      <point x="407" y="4"/>
      <point x="357" y="-121"/>
      <point x="325" y="-248" type="curve"/>
      <point x="414" y="-233" type="line"/>
      <point x="428" y="-219"/>
      <point x="466" y="60"/>
      <point x="466" y="246" type="curve" smooth="yes"/>
      <point x="466" y="293"/>
      <point x="464" y="335"/>
      <point x="458" y="365" type="curve" smooth="yes"/>
      <point x="445" y="427"/>
      <point x="407" y="464"/>
      <point x="349" y="464" type="curve" smooth="yes"/>
      <point x="340" y="464"/>
      <point x="332" y="464"/>
      <point x="323" y="462" type="curve" smooth="yes"/>
      <point x="274" y="454"/>
      <point x="179" y="374"/>
      <point x="150" y="283" type="curve"/>
      <point x="148" y="280"/>
      <point x="179" y="314"/>
      <point x="176" y="310" type="curve"/>
      <point x="175" y="381"/>
      <point x="182" y="457"/>
      <point x="106" y="457" type="curve" smooth="yes"/>
      <point x="56" y="457"/>
      <point x="14" y="432"/>
    </contour>
  </outline>
</glyph>
<glyph name="i-sinhala" format="1">
  <advance width="668"/>
  <unicode hex="0D89"/>
  <outline>
    <contour>
      <point x="256" y="-58" type="curve"/>
      <point x="475" y="-31"/>
      <point x="616" y="64"/>
      <point x="632" y="244" type="curve" smooth="yes"/>
      <point x="646" y="402"/>
      <point x="541" y="490"/>
      <point x="392" y="490" type="curve" smooth="yes"/>
      <point x="262" y="490"/>
      <point x="124" y="407"/>
      <point x="111" y="255" type="curve" smooth="yes"/>
      <point x="104" y="171"/>
      <point x="152" y="78"/>
      <point x="275" y="78" type="curve" smooth="yes"/>
      <point x="409" y="78"/>
      <point x="462" y="160"/>
      <point x="468" y="230" type="curve" smooth="yes"/>
      <point x="474" y="301"/>
      <point x="426" y="333"/>
      <point x="377" y="333" type="curve" smooth="yes"/>
      <point x="320" y="333"/>
      <point x="280" y="295"/>
      <point x="275" y="245" type="curve" smooth="yes"/>
      <point x="272" y="207"/>
      <point x="292" y="174"/>
      <point x="350" y="174" type="curve" smooth="yes"/>
      <point x="415" y="174"/>
      <point x="438" y="213"/>
      <point x="441" y="218" type="curve"/>
      <point x="445" y="245" type="line"/>
      <point x="445" y="245"/>
      <point x="405" y="213"/>
      <point x="362" y="213" type="curve" smooth="yes"/>
      <point x="329" y="213"/>
      <point x="306" y="230"/>
      <point x="307" y="246" type="curve" smooth="yes"/>
      <point x="309" y="269"/>
      <point x="334" y="279"/>
      <point x="365" y="279" type="curve" smooth="yes"/>
      <point x="399" y="279"/>
      <point x="440" y="259"/>
      <point x="437" y="217" type="curve" smooth="yes"/>
      <point x="433" y="178"/>
      <point x="368" y="144"/>
      <point x="290" y="144" type="curve" smooth="yes"/>
      <point x="187" y="144"/>
      <point x="142" y="197"/>
      <point x="149" y="273" type="curve" smooth="yes"/>
      <point x="157" y="364"/>
      <point x="246" y="412"/>
      <point x="369" y="412" type="curve" smooth="yes"/>
      <point x="554" y="412"/>
      <point x="602" y="316"/>
      <point x="595" y="228" type="curve" smooth="yes"/>
      <point x="584" y="101"/>
      <point x="406" y="5"/>
      <point x="245" y="8" type="curve"/>
      <point x="242" y="-14"/>
      <point x="248" y="-38"/>
    </contour>
    <contour>
      <point x="274" y="-255" type="curve" smooth="yes"/>
      <point x="429" y="-253"/>
      <point x="490" y="-173"/>
      <point x="495" y="-115" type="curve" smooth="yes"/>
      <point x="500" y="-51"/>
      <point x="452" y="-36"/>
      <point x="400" y="-36" type="curve" smooth="yes"/>
      <point x="380" y="-36"/>
      <point x="359" y="-39"/>
      <point x="341" y="-41" type="curve"/>
      <point x="255" y="-30" type="line"/>
      <point x="256" y="-58" type="line"/>
      <point x="334" y="-58"/>
      <point x="445" y="-83"/>
      <point x="440" y="-140" type="curve" smooth="yes"/>
      <point x="438" y="-170"/>
      <point x="414" y="-191"/>
      <point x="338" y="-191" type="curve" smooth="yes"/>
      <point x="284" y="-191"/>
      <point x="235" y="-174"/>
      <point x="208" y="-165" type="curve"/>
      <point x="207" y="-173"/>
      <point x="205" y="-182"/>
      <point x="204" y="-190" type="curve" smooth="yes"/>
      <point x="202" y="-212"/>
      <point x="204" y="-234"/>
      <point x="210" y="-249" type="curve"/>
      <point x="233" y="-252"/>
      <point x="253" y="-255"/>
    </contour>
  </outline>
</glyph>
<glyph name="ii-sinhala" format="1">
  <advance width="528"/>
  <unicode hex="0D8A"/>
  <outline>
    <contour>
      <point x="170" y="541" type="curve" smooth="yes"/>
      <point x="195" y="541"/>
      <point x="218" y="564"/>
      <point x="220" y="591" type="curve" smooth="yes"/>
      <point x="222" y="613"/>
      <point x="204" y="631"/>
      <point x="181" y="631" type="curve" smooth="yes"/>
      <point x="156" y="631"/>
      <point x="132" y="608"/>
      <point x="130" y="581" type="curve" smooth="yes"/>
      <point x="128" y="559"/>
      <point x="147" y="541"/>
    </contour>
    <contour>
      <point x="460" y="468" type="curve" smooth="yes"/>
      <point x="486" y="468"/>
      <point x="508" y="490"/>
      <point x="510" y="516" type="curve" smooth="yes"/>
      <point x="512" y="538"/>
      <point x="497" y="554"/>
      <point x="475" y="554" type="curve" smooth="yes"/>
      <point x="449" y="554"/>
      <point x="425" y="532"/>
      <point x="423" y="506" type="curve" smooth="yes"/>
      <point x="421" y="484"/>
      <point x="438" y="468"/>
    </contour>
    <component base="ra-sinhala" yxScale="0.087" xOffset="-28"/>
  </outline>
</glyph>
<glyph name="u-sinhala" format="1">
  <advance width="532"/>
  <unicode hex="0D8B"/>
  <outline>
    <contour>
      <point x="264" y="-173" type="curve" smooth="yes"/>
      <point x="385" y="-173"/>
      <point x="449" y="-112"/>
      <point x="476" y="-85" type="curve"/>
      <point x="477" y="-69"/>
      <point x="474" y="-51"/>
      <point x="465" y="-47" type="curve"/>
      <point x="433" y="-68"/>
      <point x="360" y="-87"/>
      <point x="289" y="-87" type="curve" smooth="yes"/>
      <point x="169" y="-87"/>
      <point x="52" y="-27"/>
      <point x="62" y="82" type="curve" smooth="yes"/>
      <point x="75" y="233"/>
      <point x="203" y="258"/>
      <point x="354" y="258" type="curve" smooth="yes"/>
      <point x="376" y="258"/>
      <point x="422" y="257"/>
      <point x="447" y="253" type="curve"/>
      <point x="466" y="270" type="line"/>
      <point x="469" y="280"/>
      <point x="470" y="291"/>
      <point x="471" y="301" type="curve" smooth="yes"/>
      <point x="479" y="393"/>
      <point x="430" y="484"/>
      <point x="330" y="484" type="curve" smooth="yes"/>
      <point x="258" y="484"/>
      <point x="198" y="449"/>
      <point x="193" y="394" type="curve" smooth="yes"/>
      <point x="190" y="364"/>
      <point x="213" y="351"/>
      <point x="236" y="351" type="curve" smooth="yes"/>
      <point x="239" y="351"/>
      <point x="243" y="351"/>
      <point x="246" y="352" type="curve"/>
      <point x="261" y="401"/>
      <point x="286" y="447"/>
      <point x="346" y="447" type="curve" smooth="yes"/>
      <point x="397" y="447"/>
      <point x="423" y="400"/>
      <point x="419" y="347" type="curve" smooth="yes"/>
      <point x="418" y="333"/>
      <point x="413" y="319"/>
      <point x="408" y="305" type="curve"/>
      <point x="431" y="332" type="line"/>
      <point x="423" y="333"/>
      <point x="409" y="333"/>
      <point x="385" y="333" type="curve" smooth="yes"/>
      <point x="349" y="333" type="line" smooth="yes"/>
      <point x="184" y="330"/>
      <point x="36" y="259"/>
      <point x="20" y="79" type="curve" smooth="yes"/>
      <point x="8" y="-61"/>
      <point x="86" y="-173"/>
    </contour>
  </outline>
</glyph>
<glyph name="rVocalic-sinhala" format="1">
  <advance width="996"/>
  <unicode hex="0D8D"/>
  <outline>
    <contour>
      <point x="465" y="-22" type="curve" smooth="yes"/>
      <point x="547" y="-22"/>
      <point x="628" y="44"/>
      <point x="636" y="145" type="curve" smooth="yes"/>
      <point x="644" y="234"/>
      <point x="596" y="315"/>
      <point x="488" y="316" type="curve" smooth="yes"/>
      <point x="444" y="316"/>
      <point x="432" y="306"/>
      <point x="401" y="295" type="curve"/>
      <point x="447" y="290" type="line"/>
      <point x="438" y="302"/>
      <point x="435" y="312"/>
      <point x="435" y="347" type="curve" smooth="yes"/>
      <point x="435" y="382"/>
      <point x="472" y="417"/>
      <point x="510" y="417" type="curve" smooth="yes"/>
      <point x="550" y="417"/>
      <point x="587" y="391"/>
      <point x="583" y="350" type="curve" smooth="yes"/>
      <point x="581" y="323"/>
      <point x="560" y="288"/>
      <point x="556" y="282" type="curve"/>
      <point x="581" y="295"/>
      <point x="643" y="318"/>
      <point x="643" y="373" type="curve" smooth="yes"/>
      <point x="642" y="420"/>
      <point x="616" y="462"/>
      <point x="539" y="462" type="curve" smooth="yes"/>
      <point x="447" y="462"/>
      <point x="396" y="388"/>
      <point x="386" y="282" type="curve" smooth="yes"/>
      <point x="386" y="272"/>
      <point x="385" y="262"/>
      <point x="385" y="252" type="curve"/>
      <point x="395" y="243" type="line"/>
      <point x="428" y="255"/>
      <point x="461" y="263"/>
      <point x="492" y="263" type="curve" smooth="yes"/>
      <point x="554" y="261"/>
      <point x="609" y="236"/>
      <point x="603" y="164" type="curve" smooth="yes"/>
      <point x="598" y="110"/>
      <point x="545" y="59"/>
      <point x="476" y="59" type="curve" smooth="yes"/>
      <point x="389" y="59"/>
      <point x="350" y="98"/>
      <point x="355" y="150" type="curve" smooth="yes"/>
      <point x="355" y="156"/>
      <point x="356" y="161"/>
      <point x="357" y="166" type="curve"/>
      <point x="351" y="165"/>
      <point x="345" y="162"/>
      <point x="340" y="161" type="curve"/>
      <point x="317" y="89"/>
      <point x="274" y="59"/>
      <point x="206" y="59" type="curve" smooth="yes"/>
      <point x="132" y="59"/>
      <point x="83" y="88"/>
      <point x="82" y="141" type="curve" smooth="yes"/>
      <point x="81" y="189"/>
      <point x="143" y="249"/>
      <point x="257" y="249" type="curve" smooth="yes"/>
      <point x="277" y="249"/>
      <point x="299" y="247"/>
      <point x="322" y="243" type="curve"/>
      <point x="333" y="254" type="line"/>
      <point x="337" y="266"/>
      <point x="339" y="279"/>
      <point x="340" y="293" type="curve" smooth="yes"/>
      <point x="347" y="370"/>
      <point x="312" y="463"/>
      <point x="221" y="463" type="curve" smooth="yes"/>
      <point x="159" y="463"/>
      <point x="120" y="427"/>
      <point x="117" y="387" type="curve" smooth="yes"/>
      <point x="113" y="351"/>
      <point x="146" y="333"/>
      <point x="171" y="332" type="curve"/>
      <point x="179" y="370"/>
      <point x="204" y="409"/>
      <point x="244" y="409" type="curve" smooth="yes"/>
      <point x="276" y="409"/>
      <point x="303" y="365"/>
      <point x="299" y="327" type="curve" smooth="yes"/>
      <point x="298" y="317"/>
      <point x="296" y="308"/>
      <point x="290" y="300" type="curve"/>
      <point x="212" y="299" type="line" smooth="yes"/>
      <point x="111" y="296"/>
      <point x="57" y="210"/>
      <point x="51" y="135" type="curve" smooth="yes"/>
      <point x="44" y="66"/>
      <point x="73" y="-20"/>
      <point x="186" y="-20" type="curve" smooth="yes"/>
      <point x="284" y="-20"/>
      <point x="332" y="57"/>
      <point x="346" y="95" type="curve"/>
      <point x="347" y="97"/>
      <point x="326" y="108"/>
      <point x="327" y="109" type="curve"/>
      <point x="326" y="103"/>
      <point x="324" y="96"/>
      <point x="324" y="90" type="curve" smooth="yes"/>
      <point x="319" y="33"/>
      <point x="367" y="-22"/>
    </contour>
    <component base="rVocalicMatra-sinhala" yxScale="0.087" xOffset="629"/>
  </outline>
</glyph>
<glyph name="lVocalic-sinhala" format="1">
  <advance width="883"/>
  <unicode hex="0D8F"/>
  <outline>
    <contour>
      <point x="423" y="-20" type="curve" smooth="yes"/>
      <point x="566" y="-20"/>
      <point x="691" y="70"/>
      <point x="702" y="203" type="curve" smooth="yes"/>
      <point x="709" y="283"/>
      <point x="652" y="330"/>
      <point x="571" y="330" type="curve" smooth="yes"/>
      <point x="532" y="330"/>
      <point x="505" y="323"/>
      <point x="482" y="312" type="curve"/>
      <point x="512" y="290" type="line"/>
      <point x="505" y="301"/>
      <point x="501" y="326"/>
      <point x="503" y="345" type="curve" smooth="yes"/>
      <point x="507" y="398"/>
      <point x="561" y="417"/>
      <point x="594" y="417" type="curve" smooth="yes"/>
      <point x="631" y="417"/>
      <point x="662" y="395"/>
      <point x="659" y="358" type="curve" smooth="yes"/>
      <point x="656" y="322"/>
      <point x="633" y="306"/>
      <point x="628" y="299" type="curve"/>
      <point x="640" y="285" type="line"/>
      <point x="667" y="295"/>
      <point x="707" y="321"/>
      <point x="711" y="375" type="curve" smooth="yes"/>
      <point x="715" y="419"/>
      <point x="679" y="463"/>
      <point x="615" y="463" type="curve" smooth="yes"/>
      <point x="520" y="463"/>
      <point x="471" y="391"/>
      <point x="463" y="299" type="curve" smooth="yes"/>
      <point x="462" y="288"/>
      <point x="462" y="276"/>
      <point x="462" y="264" type="curve"/>
      <point x="471" y="256" type="line"/>
      <point x="505" y="270"/>
      <point x="540" y="281"/>
      <point x="575" y="281" type="curve" smooth="yes"/>
      <point x="629" y="281"/>
      <point x="674" y="259"/>
      <point x="669" y="203" type="curve" smooth="yes"/>
      <point x="663" y="127"/>
      <point x="559" y="63"/>
      <point x="426" y="63" type="curve" smooth="yes"/>
      <point x="269" y="63"/>
      <point x="192" y="116"/>
      <point x="197" y="179" type="curve" smooth="yes"/>
      <point x="203" y="239"/>
      <point x="264" y="268"/>
      <point x="350" y="268" type="curve" smooth="yes"/>
      <point x="369" y="268"/>
      <point x="390" y="266"/>
      <point x="412" y="263" type="curve"/>
      <point x="424" y="275" type="line"/>
      <point x="429" y="292"/>
      <point x="433" y="312"/>
      <point x="435" y="332" type="curve" smooth="yes"/>
      <point x="440" y="394"/>
      <point x="421" y="461"/>
      <point x="328" y="461" type="curve" smooth="yes"/>
      <point x="267" y="461"/>
      <point x="226" y="427"/>
      <point x="223" y="390" type="curve" smooth="yes"/>
      <point x="220" y="360"/>
      <point x="239" y="347"/>
      <point x="257" y="346" type="curve"/>
      <point x="267" y="377"/>
      <point x="308" y="411"/>
      <point x="351" y="411" type="curve" smooth="yes"/>
      <point x="392" y="411"/>
      <point x="404" y="387"/>
      <point x="402" y="356" type="curve" smooth="yes"/>
      <point x="399" y="323"/>
      <point x="377" y="303"/>
      <point x="366" y="294" type="curve"/>
      <point x="406" y="323" type="line"/>
      <point x="394" y="325"/>
      <point x="382" y="326"/>
      <point x="371" y="326" type="curve" smooth="yes"/>
      <point x="275" y="326"/>
      <point x="173" y="269"/>
      <point x="164" y="169" type="curve" smooth="yes"/>
      <point x="156" y="78"/>
      <point x="219" y="-20"/>
    </contour>
    <contour>
      <point x="116" y="-11" type="curve"/>
      <point x="128" y="-8"/>
      <point x="145" y="3"/>
      <point x="149" y="8" type="curve"/>
      <point x="133" y="40"/>
      <point x="109" y="92"/>
      <point x="117" y="182" type="curve" smooth="yes"/>
      <point x="127" y="304"/>
      <point x="193" y="406"/>
      <point x="283" y="414" type="curve"/>
      <point x="328" y="461" type="line"/>
      <point x="179" y="461"/>
      <point x="76" y="338"/>
      <point x="63" y="187" type="curve" smooth="yes"/>
      <point x="54" y="88"/>
      <point x="92" y="25"/>
    </contour>
    <contour>
      <point x="732" y="-10" type="curve"/>
      <point x="761" y="25"/>
      <point x="804" y="104"/>
      <point x="812" y="203" type="curve" smooth="yes"/>
      <point x="826" y="354"/>
      <point x="758" y="463"/>
      <point x="616" y="463" type="curve"/>
      <point x="654" y="415" type="line"/>
      <point x="720" y="407"/>
      <point x="771" y="320"/>
      <point x="760" y="198" type="curve" smooth="yes"/>
      <point x="752" y="108"/>
      <point x="722" y="41"/>
      <point x="701" y="8" type="curve"/>
      <point x="706" y="2"/>
      <point x="722" y="-8"/>
    </contour>
  </outline>
</glyph>
<glyph name="ee-sinhala" format="1">
  <advance width="673"/>
  <unicode hex="0D92"/>
  <outline>
    <contour>
      <point x="273" y="-32" type="curve" smooth="yes"/>
      <point x="464" y="-32"/>
      <point x="575" y="105"/>
      <point x="590" y="273" type="curve" smooth="yes"/>
      <point x="609" y="488"/>
      <point x="392" y="631"/>
      <point x="231" y="631" type="curve"/>
      <point x="199" y="567" type="line"/>
      <point x="343" y="567"/>
      <point x="563" y="465"/>
      <point x="547" y="288" type="curve" smooth="yes"/>
      <point x="537" y="170"/>
      <point x="458" y="60"/>
      <point x="299" y="56" type="curve" smooth="yes"/>
      <point x="199" y="53"/>
      <point x="100" y="78"/>
      <point x="105" y="135" type="curve" smooth="yes"/>
      <point x="110" y="192"/>
      <point x="185" y="220"/>
      <point x="263" y="220" type="curve" smooth="yes"/>
      <point x="283" y="220"/>
      <point x="304" y="219"/>
      <point x="324" y="216" type="curve"/>
      <point x="340" y="228" type="line"/>
      <point x="341" y="235"/>
      <point x="343" y="246"/>
      <point x="344" y="256" type="curve" smooth="yes"/>
      <point x="350" y="327"/>
      <point x="300" y="414"/>
      <point x="196" y="414" type="curve" smooth="yes"/>
      <point x="151" y="414"/>
      <point x="118" y="389"/>
      <point x="114" y="346" type="curve" smooth="yes"/>
      <point x="112" y="319"/>
      <point x="131" y="300"/>
      <point x="170" y="304" type="curve"/>
      <point x="171" y="313"/>
      <point x="192" y="357"/>
      <point x="240" y="357" type="curve" smooth="yes"/>
      <point x="278" y="357"/>
      <point x="310" y="326"/>
      <point x="307" y="275" type="curve"/>
      <point x="194" y="272"/>
      <point x="72" y="225"/>
      <point x="63" y="122" type="curve" smooth="yes"/>
      <point x="55" y="36"/>
      <point x="142" y="-32"/>
    </contour>
    <contour>
      <point x="-3" y="181" type="line"/>
      <point x="36" y="208"/>
      <point x="144" y="256"/>
      <point x="268" y="263" type="curve"/>
      <point x="313" y="275" type="line"/>
      <point x="225" y="275"/>
      <point x="69" y="271"/>
      <point x="4" y="259" type="curve"/>
      <point x="-4" y="242"/>
      <point x="-10" y="212"/>
      <point x="-13" y="189" type="curve"/>
    </contour>
    <contour>
      <point x="343" y="413" type="curve" smooth="yes"/>
      <point x="393" y="413"/>
      <point x="470" y="429"/>
      <point x="496" y="450" type="curve"/>
      <point x="491" y="476" type="line"/>
      <point x="469" y="467"/>
      <point x="415" y="462"/>
      <point x="379" y="462" type="curve" smooth="yes"/>
      <point x="328" y="462"/>
      <point x="276" y="475"/>
      <point x="250" y="514" type="curve" smooth="yes"/>
      <point x="227" y="548"/>
      <point x="233" y="604"/>
      <point x="231" y="631" type="curve"/>
      <point x="199" y="615" type="line"/>
      <point x="196" y="606"/>
      <point x="191" y="585"/>
      <point x="189" y="566" type="curve" smooth="yes"/>
      <point x="187" y="538"/>
      <point x="190" y="509"/>
      <point x="201" y="483" type="curve" smooth="yes"/>
      <point x="221" y="435"/>
      <point x="285" y="413"/>
    </contour>
    <component base="virama-sinhala" yxScale="0.087" xOffset="528" yOffset="17"/>
  </outline>
</glyph>
<glyph name="oo-sinhala" format="1">
  <advance width="653"/>
  <unicode hex="0D95"/>
  <outline>
    <contour>
      <point x="403" y="-14" type="curve" smooth="yes"/>
      <point x="523" y="-14"/>
      <point x="595" y="131"/>
      <point x="608" y="276" type="curve" smooth="yes"/>
      <point x="625" y="472"/>
      <point x="471" y="582"/>
      <point x="304" y="582" type="curve" smooth="yes"/>
      <point x="242" y="582"/>
      <point x="182" y="572"/>
      <point x="145" y="548" type="curve"/>
      <point x="137" y="528"/>
      <point x="133" y="508"/>
      <point x="130" y="482" type="curve"/>
      <point x="132" y="482"/>
      <point x="209" y="525"/>
      <point x="299" y="525" type="curve" smooth="yes"/>
      <point x="405" y="525"/>
      <point x="581" y="474"/>
      <point x="565" y="288" type="curve" smooth="yes"/>
      <point x="555" y="181"/>
      <point x="502" y="69"/>
      <point x="401" y="69" type="curve" smooth="yes"/>
      <point x="349" y="69"/>
      <point x="311" y="103"/>
      <point x="316" y="150" type="curve" smooth="yes"/>
      <point x="316" y="155"/>
      <point x="316" y="160"/>
      <point x="318" y="165" type="curve"/>
      <point x="297" y="160" type="line"/>
      <point x="279" y="105"/>
      <point x="242" y="70"/>
      <point x="173" y="70" type="curve" smooth="yes"/>
      <point x="94" y="70"/>
      <point x="61" y="139"/>
      <point x="66" y="205" type="curve" smooth="yes"/>
      <point x="74" y="292"/>
      <point x="137" y="336"/>
      <point x="164" y="339" type="curve"/>
      <point x="158" y="367" type="line"/>
      <point x="157" y="364"/>
      <point x="146" y="178"/>
      <point x="316" y="178" type="curve" smooth="yes"/>
      <point x="411" y="178"/>
      <point x="471" y="240"/>
      <point x="479" y="323" type="curve" smooth="yes"/>
      <point x="486" y="402"/>
      <point x="429" y="466"/>
      <point x="357" y="466" type="curve" smooth="yes"/>
      <point x="283" y="466"/>
      <point x="252" y="416"/>
      <point x="248" y="369" type="curve" smooth="yes"/>
      <point x="243" y="320"/>
      <point x="274" y="288"/>
      <point x="321" y="288" type="curve" smooth="yes"/>
      <point x="370" y="288"/>
      <point x="411" y="322"/>
      <point x="415" y="378" type="curve" smooth="yes"/>
      <point x="417" y="391"/>
      <point x="416" y="407"/>
      <point x="412" y="424" type="curve"/>
      <point x="398" y="427" type="line"/>
      <point x="387" y="348"/>
      <point x="348" y="336"/>
      <point x="324" y="336" type="curve" smooth="yes"/>
      <point x="305" y="336"/>
      <point x="285" y="344"/>
      <point x="286" y="366" type="curve" smooth="yes"/>
      <point x="288" y="389"/>
      <point x="316" y="416"/>
      <point x="362" y="416" type="curve" smooth="yes"/>
      <point x="412" y="416"/>
      <point x="446" y="387"/>
      <point x="442" y="340" type="curve" smooth="yes"/>
      <point x="436" y="270"/>
      <point x="387" y="236"/>
      <point x="319" y="236" type="curve" smooth="yes"/>
      <point x="209" y="236"/>
      <point x="185" y="322"/>
      <point x="189" y="369" type="curve" smooth="yes"/>
      <point x="189" y="377"/>
      <point x="190" y="384"/>
      <point x="192" y="389" type="curve"/>
      <point x="187" y="398"/>
      <point x="179" y="406"/>
      <point x="172" y="408" type="curve"/>
      <point x="108" y="398"/>
      <point x="36" y="313"/>
      <point x="26" y="196" type="curve" smooth="yes"/>
      <point x="18" y="109"/>
      <point x="49" y="-13"/>
      <point x="165" y="-13" type="curve" smooth="yes"/>
      <point x="250" y="-13"/>
      <point x="278" y="40"/>
      <point x="300" y="79" type="curve"/>
      <point x="291" y="77" type="line"/>
      <point x="287" y="34"/>
      <point x="322" y="-14"/>
    </contour>
    <contour>
      <point x="597" y="321" type="line"/>
      <point x="609" y="464"/>
      <point x="574" y="690"/>
      <point x="313" y="690" type="curve" smooth="yes"/>
      <point x="223" y="690"/>
      <point x="167" y="653"/>
      <point x="167" y="653" type="curve"/>
      <point x="151" y="629"/>
      <point x="145" y="603"/>
      <point x="143" y="593" type="curve"/>
      <point x="167" y="608"/>
      <point x="177" y="612"/>
      <point x="205" y="622" type="curve"/>
      <point x="229" y="652" type="line"/>
      <point x="215" y="642"/>
      <point x="167" y="605"/>
      <point x="141" y="538" type="curve"/>
      <point x="168" y="533" type="line"/>
      <point x="190" y="582"/>
      <point x="248" y="635"/>
      <point x="282" y="640" type="curve"/>
      <point x="260" y="641"/>
      <point x="238" y="642"/>
      <point x="210" y="622" type="curve"/>
      <point x="210" y="622"/>
      <point x="225" y="632"/>
      <point x="287" y="632" type="curve" smooth="yes"/>
      <point x="569" y="632"/>
      <point x="570" y="431"/>
      <point x="565" y="383" type="curve"/>
    </contour>
  </outline>
</glyph>
<glyph name="nga-sinhala" format="1">
  <advance width="610"/>
  <unicode hex="0D9E"/>
  <outline>
    <contour>
      <point x="391" y="-19" type="curve" smooth="yes"/>
      <point x="520" y="-19"/>
      <point x="556" y="127"/>
      <point x="566" y="245" type="curve" smooth="yes"/>
      <point x="583" y="444"/>
      <point x="487" y="601"/>
      <point x="276" y="601" type="curve" smooth="yes"/>
      <point x="227" y="601"/>
      <point x="160" y="590"/>
      <point x="118" y="571" type="curve"/>
      <point x="110" y="555"/>
      <point x="104" y="519"/>
      <point x="103" y="501" type="curve"/>
      <point x="112" y="505"/>
      <point x="183" y="533"/>
      <point x="260" y="533" type="curve" smooth="yes"/>
      <point x="408" y="533"/>
      <point x="540" y="458"/>
      <point x="523" y="265" type="curve" smooth="yes"/>
      <point x="515" y="182"/>
      <point x="491" y="63"/>
      <point x="394" y="63" type="curve" smooth="yes"/>
      <point x="343" y="63"/>
      <point x="307" y="96"/>
      <point x="311" y="146" type="curve" smooth="yes"/>
      <point x="312" y="155"/>
      <point x="314" y="160"/>
      <point x="315" y="167" type="curve"/>
      <point x="295" y="162" type="line"/>
      <point x="274" y="105"/>
      <point x="234" y="64"/>
      <point x="169" y="64" type="curve" smooth="yes"/>
      <point x="102" y="64"/>
      <point x="63" y="83"/>
      <point x="67" y="135" type="curve" smooth="yes"/>
      <point x="72" y="184"/>
      <point x="131" y="217"/>
      <point x="199" y="217" type="curve" smooth="yes"/>
      <point x="239" y="217"/>
      <point x="286" y="206"/>
      <point x="306" y="197" type="curve"/>
      <point x="312" y="199"/>
      <point x="315" y="202"/>
      <point x="322" y="208" type="curve"/>
      <point x="332" y="232"/>
      <point x="341" y="269"/>
      <point x="343" y="295" type="curve" smooth="yes"/>
      <point x="354" y="416"/>
      <point x="280" y="462"/>
      <point x="218" y="462" type="curve" smooth="yes"/>
      <point x="144" y="462"/>
      <point x="104" y="412"/>
      <point x="100" y="368" type="curve" smooth="yes"/>
      <point x="96" y="329"/>
      <point x="116" y="287"/>
      <point x="173" y="287" type="curve" smooth="yes"/>
      <point x="212" y="287"/>
      <point x="253" y="321"/>
      <point x="258" y="377" type="curve" smooth="yes"/>
      <point x="259" y="390"/>
      <point x="258" y="406"/>
      <point x="254" y="423" type="curve"/>
      <point x="240" y="426" type="line"/>
      <point x="229" y="347"/>
      <point x="190" y="335"/>
      <point x="166" y="335" type="curve" smooth="yes"/>
      <point x="147" y="335"/>
      <point x="127" y="343"/>
      <point x="129" y="367" type="curve" smooth="yes"/>
      <point x="131" y="392"/>
      <point x="158" y="411"/>
      <point x="211" y="411" type="curve" smooth="yes"/>
      <point x="254" y="411"/>
      <point x="318" y="382"/>
      <point x="311" y="306" type="curve" smooth="yes"/>
      <point x="308" y="267"/>
      <point x="278" y="235"/>
      <point x="256" y="216" type="curve"/>
      <point x="308" y="239" type="line"/>
      <point x="277" y="263"/>
      <point x="241" y="272"/>
      <point x="205" y="272" type="curve" smooth="yes"/>
      <point x="112" y="272"/>
      <point x="31" y="216"/>
      <point x="23" y="118" type="curve" smooth="yes"/>
      <point x="16" y="42"/>
      <point x="68" y="-15"/>
      <point x="143" y="-15" type="curve" smooth="yes"/>
      <point x="237" y="-15"/>
      <point x="285" y="49"/>
      <point x="292" y="93" type="curve"/>
      <point x="294" y="95"/>
      <point x="286" y="90"/>
      <point x="288" y="92" type="curve"/>
      <point x="286" y="86"/>
      <point x="286" y="80"/>
      <point x="285" y="75" type="curve" smooth="yes"/>
      <point x="281" y="30"/>
      <point x="312" y="-19"/>
    </contour>
  </outline>
</glyph>
<glyph name="nnga-sinhala" format="1">
  <advance width="858"/>
  <unicode hex="0D9F"/>
  <outline>
    <contour>
      <point x="82" y="-8" type="curve"/>
      <point x="101" y="-8"/>
      <point x="112" y="-4"/>
      <point x="116" y="-1" type="curve"/>
      <point x="104" y="26"/>
      <point x="80" y="109"/>
      <point x="87" y="184" type="curve" smooth="yes"/>
      <point x="98" y="309"/>
      <point x="168" y="406"/>
      <point x="271" y="406" type="curve"/>
      <point x="380" y="447" type="line"/>
      <point x="366" y="450"/>
      <point x="358" y="453"/>
      <point x="314" y="453" type="curve" smooth="yes"/>
      <point x="181" y="453"/>
      <point x="48" y="366"/>
      <point x="33" y="196" type="curve" smooth="yes"/>
      <point x="26" y="119"/>
      <point x="59" y="23"/>
    </contour>
    <component base="ga-sinhala" yxScale="0.087" xOffset="81"/>
  </outline>
</glyph>
<glyph name="ja-sinhala" format="1">
  <advance width="642"/>
  <unicode hex="0DA2"/>
  <outline>
    <contour>
      <point x="437" y="284"/>
      <point x="447" y="360"/>
      <point x="493" y="437" type="curve" smooth="yes"/>
      <point x="565" y="560"/>
      <point x="660" y="655"/>
      <point x="660" y="655" type="curve"/>
      <point x="659" y="671"/>
      <point x="633" y="698"/>
      <point x="619" y="697" type="curve"/>
      <point x="619" y="697"/>
      <point x="539" y="614"/>
      <point x="465" y="473" type="curve" smooth="yes"/>
      <point x="423" y="393"/>
      <point x="407" y="303"/>
      <point x="407" y="303" type="curve"/>
      <point x="437" y="284" type="line"/>
    </contour>
    <component base="pa-sinhala" yxScale="0.087" xOffset="-30"/>
    <contour>
      <point x="544" y="175" type="move" name="rakar"/>
    </contour>
  </outline>
</glyph>
<glyph name="jha-sinhala" format="1">
  <advance width="1159"/>
  <unicode hex="0DA3"/>
  <outline>
    <contour>
      <point x="836" y="-18" type="curve" smooth="yes"/>
      <point x="951" y="-18"/>
      <point x="1033" y="122"/>
      <point x="1044" y="256" type="curve"/>
      <point x="1060" y="441"/>
      <point x="964" y="581"/>
      <point x="768" y="581" type="curve" smooth="yes"/>
      <point x="696" y="581"/>
      <point x="632" y="561"/>
      <point x="596" y="540" type="curve"/>
      <point x="578" y="522"/>
      <point x="562" y="496"/>
      <point x="560" y="480" type="curve" smooth="yes"/>
      <point x="560" y="472"/>
      <point x="560" y="467"/>
      <point x="561" y="464" type="curve"/>
      <point x="563" y="464"/>
      <point x="646" y="517"/>
      <point x="750" y="517" type="curve" smooth="yes"/>
      <point x="915" y="517"/>
      <point x="1014" y="451"/>
      <point x="998" y="275" type="curve" smooth="yes"/>
      <point x="992" y="196"/>
      <point x="935" y="81"/>
      <point x="844" y="79" type="curve" smooth="yes"/>
      <point x="798" y="79"/>
      <point x="759" y="107"/>
      <point x="764" y="162" type="curve" smooth="yes"/>
      <point x="764" y="166"/>
      <point x="764" y="171"/>
      <point x="766" y="176" type="curve"/>
      <point x="745" y="171" type="line"/>
      <point x="724" y="113"/>
      <point x="687" y="81"/>
      <point x="622" y="81" type="curve" smooth="yes"/>
      <point x="548" y="81"/>
      <point x="517" y="137"/>
      <point x="525" y="190" type="curve" smooth="yes"/>
      <point x="536" y="275"/>
      <point x="677" y="312"/>
      <point x="748" y="312" type="curve" smooth="yes"/>
      <point x="757" y="312"/>
      <point x="765" y="311"/>
      <point x="770" y="310" type="curve"/>
      <point x="771" y="338"/>
      <point x="772" y="358"/>
      <point x="762" y="382" type="curve"/>
      <point x="663" y="387"/>
      <point x="493" y="312"/>
      <point x="479" y="156" type="curve" smooth="yes"/>
      <point x="472" y="73"/>
      <point x="502" y="-15"/>
      <point x="608" y="-15" type="curve" smooth="yes"/>
      <point x="698" y="-15"/>
      <point x="739" y="56"/>
      <point x="747" y="102" type="curve"/>
      <point x="749" y="102"/>
      <point x="730" y="106"/>
      <point x="732" y="108" type="curve"/>
      <point x="730" y="102"/>
      <point x="729" y="96"/>
      <point x="728" y="90" type="curve" smooth="yes"/>
      <point x="724" y="42"/>
      <point x="752" y="-18"/>
    </contour>
    <contour>
      <point x="109" y="278" type="curve" smooth="yes"/>
      <point x="122" y="278"/>
      <point x="138" y="280"/>
      <point x="150" y="286" type="curve"/>
      <point x="142" y="299"/>
      <point x="135" y="311"/>
      <point x="137" y="333" type="curve" smooth="yes"/>
      <point x="141" y="386"/>
      <point x="173" y="422"/>
      <point x="209" y="422" type="curve" smooth="yes"/>
      <point x="245" y="422"/>
      <point x="258" y="393"/>
      <point x="253" y="360" type="curve"/>
      <point x="250" y="329"/>
      <point x="236" y="306"/>
      <point x="220" y="290" type="curve"/>
      <point x="243" y="298" type="line"/>
      <point x="261" y="314"/>
      <point x="301" y="356"/>
      <point x="304" y="396" type="curve" smooth="yes"/>
      <point x="307" y="435"/>
      <point x="272" y="450"/>
      <point x="231" y="450" type="curve" smooth="yes"/>
      <point x="150" y="450"/>
      <point x="72" y="395"/>
      <point x="66" y="324" type="curve" smooth="yes"/>
      <point x="63" y="294"/>
      <point x="77" y="278"/>
    </contour>
    <contour>
      <point x="182" y="-6" type="curve" smooth="yes"/>
      <point x="225" y="-6"/>
      <point x="262" y="21"/>
      <point x="281" y="62" type="curve"/>
      <point x="289" y="18"/>
      <point x="322" y="-6"/>
      <point x="367" y="-6" type="curve" smooth="yes"/>
      <point x="458" y="-6"/>
      <point x="506" y="95"/>
      <point x="512" y="168" type="curve" smooth="yes"/>
      <point x="520" y="255"/>
      <point x="480" y="319"/>
      <point x="403" y="319" type="curve" smooth="yes"/>
      <point x="316" y="319"/>
      <point x="212" y="253"/>
      <point x="173" y="215" type="curve"/>
      <point x="206" y="239" type="line"/>
      <point x="210" y="248"/>
      <point x="259" y="282"/>
      <point x="274" y="293" type="curve" smooth="yes"/>
      <point x="335" y="340"/>
      <point x="447" y="380"/>
      <point x="539" y="380" type="curve" smooth="yes"/>
      <point x="658" y="380"/>
      <point x="721" y="353"/>
      <point x="754" y="338" type="curve"/>
      <point x="762" y="382" type="line"/>
      <point x="726" y="413"/>
      <point x="657" y="436"/>
      <point x="569" y="436" type="curve" smooth="yes"/>
      <point x="475" y="436"/>
      <point x="360" y="401"/>
      <point x="251" y="314" type="curve" smooth="yes"/>
      <point x="96" y="193"/>
      <point x="15" y="115"/>
      <point x="-4" y="96" type="curve"/>
      <point x="-10" y="75"/>
      <point x="10" y="62"/>
      <point x="15" y="61" type="curve"/>
      <point x="24" y="96"/>
      <point x="128" y="173"/>
      <point x="169" y="197" type="curve" smooth="yes"/>
      <point x="223" y="230"/>
      <point x="297" y="252"/>
      <point x="358" y="252" type="curve" smooth="yes"/>
      <point x="431" y="252"/>
      <point x="485" y="222"/>
      <point x="479" y="158" type="curve" smooth="yes"/>
      <point x="474" y="105"/>
      <point x="422" y="79"/>
      <point x="374" y="79" type="curve" smooth="yes"/>
      <point x="330" y="79"/>
      <point x="307" y="117"/>
      <point x="311" y="168" type="curve" smooth="yes"/>
      <point x="312" y="173"/>
      <point x="312" y="178"/>
      <point x="313" y="183" type="curve"/>
      <point x="294" y="179" type="line"/>
      <point x="275" y="116"/>
      <point x="225" y="77"/>
      <point x="176" y="77" type="curve" smooth="yes"/>
      <point x="124" y="77"/>
      <point x="117" y="121"/>
      <point x="74" y="121" type="curve" smooth="yes"/>
      <point x="67" y="121"/>
      <point x="60" y="120"/>
      <point x="51" y="117" type="curve"/>
      <point x="28" y="89" type="line"/>
      <point x="34" y="94"/>
      <point x="40" y="96"/>
      <point x="47" y="96" type="curve" smooth="yes"/>
      <point x="59" y="96"/>
      <point x="71" y="89"/>
      <point x="77" y="79" type="curve" smooth="yes"/>
      <point x="102" y="37"/>
      <point x="124" y="-6"/>
    </contour>
  </outline>
</glyph>
<glyph name="nyja-sinhala" format="1">
  <advance width="751"/>
  <unicode hex="0DA6"/>
  <outline>
    <contour>
      <point x="64" y="2" type="curve"/>
      <point x="83" y="2"/>
      <point x="94" y="6"/>
      <point x="98" y="9" type="curve"/>
      <point x="86" y="36"/>
      <point x="65" y="109"/>
      <point x="71" y="184" type="curve" smooth="yes"/>
      <point x="82" y="304"/>
      <point x="158" y="407"/>
      <point x="253" y="407" type="curve" smooth="yes"/>
      <point x="257" y="407"/>
      <point x="262" y="406"/>
      <point x="266" y="406" type="curve"/>
      <point x="315" y="459" type="line"/>
      <point x="306" y="460"/>
      <point x="296" y="460"/>
      <point x="287" y="460" type="curve" smooth="yes"/>
      <point x="145" y="460"/>
      <point x="32" y="360"/>
      <point x="18" y="206" type="curve" smooth="yes"/>
      <point x="11" y="119"/>
      <point x="40" y="33"/>
    </contour>
    <component base="ja-sinhala" yxScale="0.087" xOffset="79"/>
  </outline>
</glyph>
<glyph name="tta-sinhala" format="1">
  <advance width="611"/>
  <unicode hex="0DA7"/>
  <outline>
    <contour>
      <point x="425" y="-27"/>
      <point x="545" y="107"/>
      <point x="561" y="292" type="curve" smooth="yes"/>
      <point x="579" y="490"/>
      <point x="474" y="605"/>
      <point x="287" y="605" type="curve" smooth="yes"/>
      <point x="233" y="605"/>
      <point x="173" y="589"/>
      <point x="145" y="577" type="curve"/>
      <point x="136" y="559"/>
      <point x="129" y="532"/>
      <point x="129" y="503" type="curve"/>
      <point x="129" y="501"/>
      <point x="196" y="534"/>
      <point x="289" y="534" type="curve" smooth="yes"/>
      <point x="432" y="534"/>
      <point x="531" y="464"/>
      <point x="518" y="309" type="curve" smooth="yes"/>
      <point x="505" y="164"/>
      <point x="404" y="66"/>
      <point x="246" y="66" type="curve" smooth="yes"/>
      <point x="149" y="66"/>
      <point x="70" y="110"/>
      <point x="77" y="183" type="curve" smooth="yes"/>
      <point x="83" y="254"/>
      <point x="162" y="283"/>
      <point x="240" y="283" type="curve" smooth="yes"/>
      <point x="260" y="283"/>
      <point x="281" y="281"/>
      <point x="300" y="277" type="curve"/>
      <point x="310" y="291" type="line"/>
      <point x="310" y="312"/>
      <point x="303" y="334"/>
      <point x="291" y="355" type="curve"/>
      <point x="284" y="356"/>
      <point x="277" y="356"/>
      <point x="270" y="356" type="curve" smooth="yes"/>
      <point x="189" y="356"/>
      <point x="46" y="312"/>
      <point x="33" y="164" type="curve" smooth="yes"/>
      <point x="24" y="61"/>
      <point x="103" y="-27"/>
      <point x="239" y="-27" type="curve" smooth="yes"/>
    </contour>
  </outline>
</glyph>
<glyph name="ta-sinhala" format="1">
  <advance width="798"/>
  <unicode hex="0DAD"/>
  <outline>
    <contour>
      <point x="386" y="-7"/>
      <point x="483" y="106"/>
      <point x="491" y="203" type="curve" smooth="yes"/>
      <point x="497" y="274"/>
      <point x="450" y="313"/>
      <point x="380" y="313" type="curve" smooth="yes"/>
      <point x="336" y="313"/>
      <point x="294" y="298"/>
      <point x="264" y="281" type="curve" smooth="yes"/>
      <point x="216" y="254"/>
      <point x="222" y="257"/>
      <point x="206" y="245" type="curve"/>
      <point x="217" y="256"/>
      <point x="232" y="269"/>
      <point x="254" y="285" type="curve" smooth="yes"/>
      <point x="317" y="330"/>
      <point x="397" y="373"/>
      <point x="507" y="373" type="curve" smooth="yes"/>
      <point x="636" y="373"/>
      <point x="723" y="314"/>
      <point x="714" y="210" type="curve" smooth="yes"/>
      <point x="706" y="123"/>
      <point x="638" y="72"/>
      <point x="542" y="72" type="curve" smooth="yes"/>
      <point x="529" y="72"/>
      <point x="510" y="72"/>
      <point x="493" y="76" type="curve"/>
      <point x="483" y="71" type="line"/>
      <point x="484" y="43"/>
      <point x="502" y="5"/>
      <point x="514" y="-6" type="curve"/>
      <point x="681" y="-1"/>
      <point x="752" y="128"/>
      <point x="761" y="233" type="curve" smooth="yes"/>
      <point x="773" y="375"/>
      <point x="673" y="456"/>
      <point x="551" y="456" type="curve" smooth="yes"/>
      <point x="444" y="456"/>
      <point x="330" y="394"/>
      <point x="248" y="322" type="curve" smooth="yes"/>
      <point x="184" y="266"/>
      <point x="76" y="152"/>
      <point x="20" y="89" type="curve"/>
      <point x="14" y="67"/>
      <point x="42" y="53"/>
      <point x="43" y="52" type="curve"/>
      <point x="67" y="108"/>
      <point x="124" y="157"/>
      <point x="156" y="183" type="curve" smooth="yes"/>
      <point x="213" y="229"/>
      <point x="267" y="247"/>
      <point x="349" y="247" type="curve" smooth="yes"/>
      <point x="403" y="247"/>
      <point x="453" y="230"/>
      <point x="450" y="186" type="curve" smooth="yes"/>
      <point x="446" y="139"/>
      <point x="396" y="70"/>
      <point x="267" y="70" type="curve" smooth="yes"/>
      <point x="164" y="70"/>
      <point x="143" y="120"/>
      <point x="99" y="120" type="curve" smooth="yes"/>
      <point x="84" y="120"/>
      <point x="60" y="115"/>
      <point x="46" y="101" type="curve"/>
      <point x="46" y="58" type="line"/>
      <point x="48" y="78"/>
      <point x="68" y="95"/>
      <point x="82" y="95" type="curve" smooth="yes"/>
      <point x="117" y="95"/>
      <point x="119" y="-7"/>
      <point x="260" y="-7" type="curve" smooth="yes"/>
    </contour>
    <contour>
      <point x="208" y="276" type="line"/>
      <point x="227" y="294"/>
      <point x="275" y="355"/>
      <point x="279" y="397" type="curve" smooth="yes"/>
      <point x="282" y="435"/>
      <point x="248" y="452"/>
      <point x="205" y="452" type="curve" smooth="yes"/>
      <point x="127" y="452"/>
      <point x="47" y="397"/>
      <point x="41" y="328" type="curve" smooth="yes"/>
      <point x="38" y="297"/>
      <point x="52" y="280"/>
      <point x="84" y="280" type="curve" smooth="yes"/>
      <point x="100" y="280"/>
      <point x="117" y="284"/>
      <point x="126" y="289" type="curve"/>
      <point x="120" y="296"/>
      <point x="110" y="318"/>
      <point x="113" y="345" type="curve" smooth="yes"/>
      <point x="115" y="377"/>
      <point x="136" y="417"/>
      <point x="181" y="417" type="curve" smooth="yes"/>
      <point x="215" y="417"/>
      <point x="228" y="395"/>
      <point x="225" y="362" type="curve" smooth="yes"/>
      <point x="222" y="330"/>
      <point x="204" y="280"/>
      <point x="183" y="258" type="curve"/>
    </contour>
    <contour>
      <point x="306" y="340" type="move" name="MatraI"/>
    </contour>
    <contour>
      <point x="680" y="394" type="move" name="Virama"/>
    </contour>
    <contour>
      <point x="758" y="217" type="move" name="rakaransaya"/>
    </contour>
  </outline>
</glyph>
<glyph name="tha-sinhala" format="1">
  <advance width="597"/>
  <unicode hex="0DAE"/>
  <outline>
    <contour>
      <point x="249" y="-18" type="curve" smooth="yes"/>
      <point x="415" y="-18"/>
      <point x="535" y="112"/>
      <point x="550" y="283" type="curve" smooth="yes"/>
      <point x="568" y="488"/>
      <point x="398" y="630"/>
      <point x="242" y="630" type="curve"/>
      <point x="214" y="566" type="line"/>
      <point x="372" y="566"/>
      <point x="518" y="446"/>
      <point x="505" y="300" type="curve" smooth="yes"/>
      <point x="493" y="158"/>
      <point x="384" y="69"/>
      <point x="251" y="69" type="curve" smooth="yes"/>
      <point x="131" y="69"/>
      <point x="64" y="122"/>
      <point x="70" y="189" type="curve" smooth="yes"/>
      <point x="76" y="259"/>
      <point x="141" y="295"/>
      <point x="226" y="295" type="curve" smooth="yes"/>
      <point x="236" y="295"/>
      <point x="246" y="295"/>
      <point x="256" y="293" type="curve"/>
      <point x="267" y="308" type="line"/>
      <point x="266" y="327"/>
      <point x="261" y="355"/>
      <point x="252" y="380" type="curve"/>
      <point x="160" y="382"/>
      <point x="39" y="293"/>
      <point x="28" y="173" type="curve" smooth="yes"/>
      <point x="17" y="46"/>
      <point x="113" y="-18"/>
    </contour>
    <contour>
      <point x="346" y="417" type="curve" smooth="yes"/>
      <point x="403" y="417"/>
      <point x="462" y="434"/>
      <point x="488" y="455" type="curve"/>
      <point x="482" y="476" type="line"/>
      <point x="460" y="467"/>
      <point x="427" y="461"/>
      <point x="391" y="461" type="curve" smooth="yes"/>
      <point x="274" y="461"/>
      <point x="232" y="516"/>
      <point x="242" y="630" type="curve"/>
      <point x="210" y="614" type="line"/>
      <point x="207" y="605"/>
      <point x="202" y="584"/>
      <point x="201" y="565" type="curve" smooth="yes"/>
      <point x="192" y="469"/>
      <point x="241" y="417"/>
    </contour>
  </outline>
</glyph>
<glyph name="na-sinhala" format="1">
  <advance width="813"/>
  <unicode hex="0DB1"/>
  <outline>
    <contour>
      <point x="505" y="-18" type="curve"/>
      <point x="671" y="-21"/>
      <point x="769" y="117"/>
      <point x="781" y="248" type="curve" smooth="yes"/>
      <point x="794" y="396"/>
      <point x="678" y="451"/>
      <point x="575" y="451" type="curve" smooth="yes"/>
      <point x="471" y="451"/>
      <point x="356" y="396"/>
      <point x="257" y="295" type="curve" smooth="yes"/>
      <point x="190" y="226"/>
      <point x="123" y="131"/>
      <point x="75" y="131" type="curve" smooth="yes"/>
      <point x="60" y="131"/>
      <point x="53" y="141"/>
      <point x="55" y="156" type="curve" smooth="yes"/>
      <point x="55" y="160"/>
      <point x="55" y="164"/>
      <point x="57" y="169" type="curve"/>
      <point x="55" y="170"/>
      <point x="49" y="171"/>
      <point x="42" y="171" type="curve" smooth="yes"/>
      <point x="35" y="171"/>
      <point x="26" y="170"/>
      <point x="21" y="168" type="curve"/>
      <point x="22" y="84"/>
      <point x="79" y="-15"/>
      <point x="226" y="-15" type="curve" smooth="yes"/>
      <point x="368" y="-15"/>
      <point x="470" y="77"/>
      <point x="480" y="192" type="curve" smooth="yes"/>
      <point x="486" y="265"/>
      <point x="450" y="303"/>
      <point x="394" y="303" type="curve" smooth="yes"/>
      <point x="333" y="303"/>
      <point x="268" y="259"/>
      <point x="206" y="213" type="curve"/>
      <point x="200" y="197" type="line"/>
      <point x="204" y="203"/>
      <point x="248" y="250"/>
      <point x="270" y="270" type="curve" smooth="yes"/>
      <point x="333" y="327"/>
      <point x="442" y="368"/>
      <point x="537" y="368" type="curve" smooth="yes"/>
      <point x="642" y="368"/>
      <point x="739" y="316"/>
      <point x="729" y="205" type="curve" smooth="yes"/>
      <point x="720" y="107"/>
      <point x="636" y="56"/>
      <point x="541" y="56" type="curve" smooth="yes"/>
      <point x="522" y="56"/>
      <point x="509" y="58"/>
      <point x="488" y="60" type="curve"/>
      <point x="476" y="55" type="line"/>
      <point x="474" y="28"/>
      <point x="493" y="-6"/>
    </contour>
    <contour>
      <point x="220" y="66" type="curve" smooth="yes"/>
      <point x="159" y="66"/>
      <point x="91" y="77"/>
      <point x="66" y="115" type="curve"/>
      <point x="61" y="91" type="line"/>
      <point x="163" y="92"/>
      <point x="198" y="240"/>
      <point x="360" y="240" type="curve" smooth="yes"/>
      <point x="419" y="240"/>
      <point x="447" y="223"/>
      <point x="443" y="183" type="curve" smooth="yes"/>
      <point x="438" y="120"/>
      <point x="356" y="66"/>
    </contour>
    <contour>
      <point x="241" y="265" type="line"/>
      <point x="265" y="286"/>
      <point x="315" y="351"/>
      <point x="318" y="393" type="curve" smooth="yes"/>
      <point x="321" y="426"/>
      <point x="297" y="447"/>
      <point x="247" y="447" type="curve" smooth="yes"/>
      <point x="168" y="447"/>
      <point x="87" y="395"/>
      <point x="80" y="325" type="curve" smooth="yes"/>
      <point x="78" y="292"/>
      <point x="93" y="276"/>
      <point x="126" y="276" type="curve" smooth="yes"/>
      <point x="140" y="276"/>
      <point x="156" y="279"/>
      <point x="168" y="284" type="curve"/>
      <point x="161" y="293"/>
      <point x="155" y="314"/>
      <point x="157" y="337" type="curve" smooth="yes"/>
      <point x="160" y="379"/>
      <point x="189" y="413"/>
      <point x="223" y="413" type="curve" smooth="yes"/>
      <point x="252" y="413"/>
      <point x="272" y="389"/>
      <point x="269" y="355" type="curve" smooth="yes"/>
      <point x="267" y="327"/>
      <point x="247" y="287"/>
      <point x="235" y="272" type="curve"/>
    </contour>
    <contour>
      <point x="344" y="348" type="move" name="MatraI"/>
    </contour>
    <contour>
      <point x="673" y="417" type="move" name="Virama"/>
    </contour>
  </outline>
</glyph>
<glyph name="nda-sinhala" format="1">
  <advance width="549"/>
  <unicode hex="0DB3"/>
  <outline>
    <contour>
      <point x="87" y="2" type="curve"/>
      <point x="106" y="2"/>
      <point x="117" y="6"/>
      <point x="121" y="9" type="curve"/>
      <point x="109" y="36"/>
      <point x="91" y="101"/>
      <point x="97" y="176" type="curve" smooth="yes"/>
      <point x="107" y="291"/>
      <point x="189" y="422"/>
      <point x="290" y="412" type="curve"/>
      <point x="376" y="461" type="line"/>
      <point x="362" y="463"/>
      <point x="348" y="464"/>
      <point x="334" y="464" type="curve" smooth="yes"/>
      <point x="199" y="464"/>
      <point x="52" y="363"/>
      <point x="38" y="197" type="curve" smooth="yes"/>
      <point x="30" y="110"/>
      <point x="64" y="33"/>
    </contour>
    <component base="da-sinhala" yxScale="0.087" xOffset="102"/>
  </outline>
</glyph>
<glyph name="ba-sinhala" format="1">
  <advance width="653"/>
  <unicode hex="0DB6"/>
  <outline>
    <contour>
      <point x="405" y="-9" type="curve" smooth="yes"/>
      <point x="532" y="-9"/>
      <point x="599" y="122"/>
      <point x="610" y="251" type="curve" smooth="yes"/>
      <point x="629" y="462"/>
      <point x="504" y="598"/>
      <point x="315" y="598" type="curve" smooth="yes"/>
      <point x="251" y="598"/>
      <point x="188" y="582"/>
      <point x="149" y="563" type="curve"/>
      <point x="143" y="552"/>
      <point x="138" y="533"/>
      <point x="136" y="514" type="curve" smooth="yes"/>
      <point x="136" y="506"/>
      <point x="136" y="497"/>
      <point x="136" y="490" type="curve"/>
      <point x="136" y="488"/>
      <point x="211" y="527"/>
      <point x="316" y="527" type="curve" smooth="yes"/>
      <point x="497" y="527"/>
      <point x="578" y="427"/>
      <point x="564" y="276" type="curve" smooth="yes"/>
      <point x="555" y="169"/>
      <point x="493" y="70"/>
      <point x="396" y="70" type="curve" smooth="yes"/>
      <point x="361" y="70"/>
      <point x="325" y="89"/>
      <point x="329" y="135" type="curve" smooth="yes"/>
      <point x="333" y="175"/>
      <point x="377" y="199"/>
      <point x="414" y="199" type="curve" smooth="yes"/>
      <point x="420" y="199"/>
      <point x="426" y="198"/>
      <point x="430" y="197" type="curve"/>
      <point x="440" y="200"/>
      <point x="447" y="202"/>
      <point x="454" y="208" type="curve"/>
      <point x="460" y="316"/>
      <point x="389" y="411"/>
      <point x="273" y="411" type="curve" smooth="yes"/>
      <point x="142" y="411"/>
      <point x="52" y="298"/>
      <point x="40" y="162" type="curve" smooth="yes"/>
      <point x="34" y="90"/>
      <point x="62" y="-6"/>
      <point x="158" y="-6" type="curve" smooth="yes"/>
      <point x="213" y="-6"/>
      <point x="254" y="36"/>
      <point x="259" y="94" type="curve" smooth="yes"/>
      <point x="264" y="144"/>
      <point x="239" y="185"/>
      <point x="189" y="185" type="curve" smooth="yes"/>
      <point x="139" y="185"/>
      <point x="112" y="145"/>
      <point x="109" y="107" type="curve" smooth="yes"/>
      <point x="106" y="82"/>
      <point x="112" y="64"/>
      <point x="120" y="48" type="curve"/>
      <point x="154" y="30" type="line"/>
      <point x="140" y="46"/>
      <point x="138" y="57"/>
      <point x="140" y="72" type="curve" smooth="yes"/>
      <point x="143" y="116"/>
      <point x="172" y="127"/>
      <point x="192" y="127" type="curve" smooth="yes"/>
      <point x="212" y="127"/>
      <point x="231" y="116"/>
      <point x="229" y="93" type="curve" smooth="yes"/>
      <point x="226" y="60"/>
      <point x="186" y="49"/>
      <point x="164" y="49" type="curve" smooth="yes"/>
      <point x="121" y="49"/>
      <point x="65" y="86"/>
      <point x="72" y="173" type="curve" smooth="yes"/>
      <point x="81" y="271"/>
      <point x="168" y="332"/>
      <point x="264" y="332" type="curve" smooth="yes"/>
      <point x="323" y="332"/>
      <point x="390" y="315"/>
      <point x="419" y="258" type="curve"/>
      <point x="377" y="257"/>
      <point x="298" y="213"/>
      <point x="290" y="120" type="curve" smooth="yes"/>
      <point x="284" y="58"/>
      <point x="319" y="-9"/>
    </contour>
  </outline>
</glyph>
<glyph name="bha-sinhala" format="1">
  <advance width="814"/>
  <unicode hex="0DB7"/>
  <outline>
    <contour>
      <point x="290" y="-8" type="curve" smooth="yes"/>
      <point x="416" y="-8"/>
      <point x="498" y="81"/>
      <point x="506" y="172" type="curve" smooth="yes"/>
      <point x="513" y="263"/>
      <point x="456" y="301"/>
      <point x="420" y="301" type="curve"/>
      <point x="406" y="253" type="line"/>
      <point x="426" y="253"/>
      <point x="477" y="239"/>
      <point x="473" y="185" type="curve" smooth="yes"/>
      <point x="467" y="130"/>
      <point x="400" y="77"/>
      <point x="282" y="77" type="curve" smooth="yes"/>
      <point x="200" y="77"/>
      <point x="130" y="114"/>
      <point x="135" y="168" type="curve" smooth="yes"/>
      <point x="141" y="236"/>
      <point x="206" y="262"/>
      <point x="273" y="262" type="curve" smooth="yes"/>
      <point x="297" y="262"/>
      <point x="321" y="259"/>
      <point x="343" y="253" type="curve"/>
      <point x="353" y="264" type="line"/>
      <point x="358" y="281"/>
      <point x="363" y="299"/>
      <point x="364" y="319" type="curve" smooth="yes"/>
      <point x="370" y="385"/>
      <point x="345" y="456"/>
      <point x="257" y="456" type="curve" smooth="yes"/>
      <point x="186" y="456"/>
      <point x="138" y="415"/>
      <point x="134" y="374" type="curve" smooth="yes"/>
      <point x="131" y="340"/>
      <point x="158" y="324"/>
      <point x="189" y="323" type="curve"/>
      <point x="214" y="384"/>
      <point x="238" y="408"/>
      <point x="274" y="408" type="curve" smooth="yes"/>
      <point x="296" y="408"/>
      <point x="320" y="399"/>
      <point x="324" y="377" type="curve"/>
      <point x="326" y="371"/>
      <point x="325" y="365"/>
      <point x="325" y="358" type="curve" smooth="yes"/>
      <point x="323" y="338"/>
      <point x="316" y="318"/>
      <point x="311" y="309" type="curve"/>
      <point x="204" y="310"/>
      <point x="108" y="262"/>
      <point x="99" y="158" type="curve" smooth="yes"/>
      <point x="91" y="64"/>
      <point x="164" y="-8"/>
    </contour>
    <contour>
      <point x="29" y="223" type="line"/>
      <point x="71" y="246"/>
      <point x="171" y="295"/>
      <point x="292" y="295" type="curve" smooth="yes"/>
      <point x="302" y="295"/>
      <point x="312" y="295"/>
      <point x="322" y="294" type="curve"/>
      <point x="337" y="309" type="line"/>
      <point x="305" y="309" type="line" smooth="yes"/>
      <point x="219" y="309"/>
      <point x="97" y="306"/>
      <point x="41" y="296" type="curve"/>
      <point x="30" y="275"/>
      <point x="24" y="253"/>
      <point x="21" y="230" type="curve"/>
    </contour>
    <contour>
      <point x="517" y="-10" type="curve"/>
      <point x="668" y="-7"/>
      <point x="755" y="117"/>
      <point x="766" y="248" type="curve" smooth="yes"/>
      <point x="777" y="371"/>
      <point x="702" y="454"/>
      <point x="610" y="454" type="curve" smooth="yes"/>
      <point x="469" y="454"/>
      <point x="384" y="333"/>
      <point x="364" y="170" type="curve"/>
      <point x="369" y="169"/>
      <point x="373" y="169"/>
      <point x="378" y="169" type="curve" smooth="yes"/>
      <point x="385" y="169"/>
      <point x="392" y="169"/>
      <point x="400" y="170" type="curve"/>
      <point x="399" y="177"/>
      <point x="399" y="190"/>
      <point x="400" y="197" type="curve" smooth="yes"/>
      <point x="409" y="305"/>
      <point x="475" y="364"/>
      <point x="591" y="364" type="curve" smooth="yes"/>
      <point x="655" y="364"/>
      <point x="727" y="322"/>
      <point x="718" y="224" type="curve" smooth="yes"/>
      <point x="711" y="140"/>
      <point x="647" y="66"/>
      <point x="549" y="66" type="curve" smooth="yes"/>
      <point x="533" y="66"/>
      <point x="512" y="69"/>
      <point x="495" y="73" type="curve"/>
      <point x="495" y="72"/>
      <point x="485" y="69"/>
      <point x="484" y="67" type="curve" smooth="yes"/>
      <point x="483" y="50"/>
      <point x="499" y="7"/>
    </contour>
  </outline>
</glyph>
